<?xml version="1.0" standalone="no"?>
<!DOCTYPE svg PUBLIC "-//W3C//DTD SVG 1.1//EN" "http://www.w3.org/Graphics/SVG/1.1/DTD/svg11.dtd" >
<svg xmlns="http://www.w3.org/2000/svg" xmlns:xlink="http://www.w3.org/1999/xlink" version="1.1">
<metadata>
Created by FontForge 20170731 at Sun Jul  5 22:04:26 2020
 By Aleksey,,,
Araboto (c) (Abd El-Rahman Farahat). 2019. All Rights Reserved
</metadata>
<defs>
<font id="Araboto-Bold" horiz-adv-x="0" >
  <font-face 
    font-family="Araboto-Bold"
    font-weight="400"
    font-stretch="normal"
    units-per-em="2048"
    panose-1="2 0 5 0 0 0 0 0 0 0"
    ascent="1599"
    descent="-449"
    x-height="1082"
    cap-height="1456"
    bbox="-1870 -903 4218 2163"
    underline-thickness="150"
    underline-position="-442"
    unicode-range="U+000D-1F16B"
  />
<missing-glyph horiz-adv-x="1024" 
d="M100 1434h824v-1434h-824v1434zM874 50v1334h-724v-1334h724zM325 1103v45q31 28 58 43q53 30 112 30q92 0 148 -47.5t56 -127.5q0 -49 -23 -98.5t-87 -129.5q-63 -80 -99 -132t-36 -99q0 -38 24 -133h-32q-35 97 -35 148q0 76 81.5 218t81.5 217q0 57 -33 90t-91 33
q-38 0 -69 -17q-26 -15 -56 -40zM378 312q0 10 11 22l57 58q11 10 20 10q10 0 22 -11l56 -60q9 -11 9 -20q0 -11 -10 -22l-56 -62q-14 -14 -21 -14q-11 0 -20 10l-61 71q-7 9 -7 18z" />
    <glyph glyph-name="f_f" unicode="ff" horiz-adv-x="1338" 
d="M190 0v870h-161v212h161v92q0 182 104.5 282.5t292.5 100.5q60 0 147 -20l-3 -224q-36 9 -88 9q-163 0 -163 -153v-87h215v-212h-215v-870h-290zM794 0v870h-161v212h161v92q0 182 104.5 282.5t292.5 100.5q60 0 147 -20l-3 -224q-36 9 -88 9q-163 0 -163 -153v-87h215
v-212h-215v-870h-290z" />
    <glyph glyph-name="fi" unicode="fi" horiz-adv-x="1246" 
d="M181 0v870h-161v212h161v50q2 204 125.5 314.5t348.5 110.5q135 0 328 -59l-42 -239q-98 29 -152 37.5t-116 8.5q-202 0 -202 -179v-44h213v-212h-213v-870h-290zM1118 0h-290v1082h290v-1082z" />
    <glyph glyph-name="fl" unicode="fl" horiz-adv-x="1255" 
d="M836 1312q-86 10 -160 10q-196 0 -196 -167v-73h215v-212h-215v-870h-290v870h-161v212h161v84q2 188 118 289.5t328 101.5q151 0 490 -32v-1525h-290v1312z" />
    <glyph glyph-name="f_f_i" unicode="ffi" horiz-adv-x="1901" 
d="M190 0v870h-161v212h161v92q0 182 104.5 282.5t292.5 100.5q60 0 147 -20l-3 -224q-36 9 -88 9q-163 0 -163 -153v-87h356v50q2 204 125.5 314.5t348.5 110.5q134 0 329 -59l-42 -239q-98 29 -152.5 37.5t-116.5 8.5q-202 0 -202 -179v-44h213v-212h-213v-870h-290v870
h-356v-870h-290zM1773 0h-290v1082h290v-1082z" />
    <glyph glyph-name="f_f_l" unicode="ffl" horiz-adv-x="1901" 
d="M190 0v870h-161v212h161v92q0 182 104.5 282.5t292.5 100.5q60 0 147 -20l-3 -224q-36 9 -88 9q-163 0 -163 -153v-87h356v81q1 191 118.5 292.5t328.5 101.5q144 0 490 -32v-1525h-290v1312q-86 10 -161 10q-196 0 -196 -167v-73h215v-212h-215v-870h-290v870h-356v-870
h-290z" />
    <glyph glyph-name="uniFDF2" unicode="&#xfedf;&#xfee0;&#xfeea;" horiz-adv-x="2796" arabic-form="isolated" 
d="M304 839q153 197 408 197h227q16 0 16 23v59h270v-803q0 -42 28 -70q30 -30 67 -34h332v1373h285v-1009q0 -161 52 -254q62 -110 197 -110h194v1369h287v-1625h-485h-11q-179 0 -234 66v-66h-617q-112 0 -205 49q-79 41 -124 97q-126 -83 -281 -83q-68 0 -134 16
q-133 35 -231 135q-99 96 -132 226q-18 71 -18 138q0 165 109 306zM476 459q36 -138 170 -172q34 -9 66 -9q79 0 148 53q95 73 95 195v245q7 2 7 3q0 2 -23 2h-227q-119 0 -194 -97q-52 -67 -52 -148q0 -35 10 -72z" />
    <glyph glyph-name="uniFEF5" unicode="&#xfedf;&#xfe82;" horiz-adv-x="1466" arabic-form="isolated" 
d="M183 -45v256h395l-201 1114h286l201 -1114h165v1370h287v-1626h-1133zM130 1600q54 47 84 63q41 21 91 30q26 4 50 4q27 0 52 -5q34 -7 68 -26l24 -17q36 -21 67 -21q5 0 10 1q41 7 89 53l46 46l115 -127l-54 -54l-17 -15q-21 -16 -39 -27q-50 -32 -113 -43
q-25 -5 -49 -5q-47 0 -88 17q-15 6 -34 16l-44 29q-14 8 -34 8q-9 0 -20 -2q-38 -7 -90 -52z" />
    <glyph glyph-name="uniFEF6" unicode="&#xfee0;&#xfe82;" horiz-adv-x="1563" arabic-form="final" 
d="M181 211h395l-201 1114h286l203 -1114h165v1370h285v-1025q3 -155 55 -242q62 -103 244 -103v-256h-38q-244 0 -261 86v-86h-1133v256zM214 1663q41 21 91 30q26 4 50 4q27 0 52 -5q34 -7 68 -26l24 -17q36 -21 67 -21q5 0 10 1q41 7 89 53l46 46l115 -127l-54 -54
l-17 -15q-21 -16 -39 -27q-50 -32 -113 -43q-25 -5 -49 -5q-47 0 -88 17q-15 6 -34 16l-44 29q-14 8 -34 8q-9 0 -20 -2q-38 -7 -90 -52l-114 127q54 47 84 63z" />
    <glyph glyph-name="uniFEF7" unicode="&#xfedf;&#xfe84;" horiz-adv-x="1466" arabic-form="isolated" 
d="M578 211l-201 1114h286l201 -1114h165v1370h287v-1626h-1133v256h395zM249 1610h56q-5 11 -5 28q0 27 12 69q21 77 92 118q46 26 95 26q28 0 56 -8q78 -22 134 -118l-136 -75q-23 40 -40 45q-7 2 -13 2q-11 0 -20 -5q-14 -8 -18 -25q-2 -7 -2 -14q0 -10 5 -19
q12 -22 37 -24h192v-152h-445v152z" />
    <glyph glyph-name="uniFEF8" unicode="&#xfee0;&#xfe84;" horiz-adv-x="1563" arabic-form="final" 
d="M576 211l-201 1114h286l203 -1114h165v1370h285v-1025q3 -155 55 -242q62 -103 244 -103v-256h-38q-244 0 -261 86v-86h-1133v256h395zM305 1610q-5 11 -5 28q0 27 12 69q21 77 92 118q46 26 95 26q28 0 56 -8q78 -22 134 -118l-136 -75q-23 40 -40 45q-7 2 -13 2
q-11 0 -20 -5q-14 -8 -18 -25q-2 -7 -2 -14q0 -10 5 -19q12 -22 37 -24h192v-152h-445v152h56z" />
    <glyph glyph-name="uniFEF9" unicode="&#xfedf;&#xfe88;" horiz-adv-x="1432" arabic-form="isolated" 
d="M545 213l-201 1114h286l202 -1114h166v1368h284v-1626h-1132v258h395zM485 -510v152h56q-5 11 -5 28q0 27 12 69q21 77 92 118q46 26 95 26q28 0 56 -8q78 -22 134 -118l-136 -75q-23 40 -40 45q-7 2 -13 2q-11 0 -20 -5q-14 -8 -18 -25q-2 -7 -2 -14q0 -10 5 -19
q12 -22 37 -24h192v-152h-445z" />
    <glyph glyph-name="uniFEFA" unicode="&#xfee0;&#xfe88;" horiz-adv-x="1563" arabic-form="final" 
d="M181 211h395l-201 1114h286l203 -1114h165v1370h285v-1025q3 -155 55 -242q62 -103 244 -103v-256h-38q-244 0 -261 86v-86h-1133v256zM571 -358q-5 11 -5 28q0 27 12 69q21 77 92 118q46 26 95 26q28 0 56 -8q78 -22 134 -118l-136 -75q-23 40 -40 45q-7 2 -13 2
q-11 0 -20 -5q-14 -8 -18 -25q-2 -7 -2 -14q0 -10 5 -19q12 -22 37 -24h192v-152h-445v152h56z" />
    <glyph glyph-name="uniFEFB" unicode="&#xfedf;&#xfe8e;" horiz-adv-x="1433" arabic-form="isolated" 
d="M545 211l-201 1114h286l201 -1114h165v1370h287v-1626h-1133v256h395z" />
    <glyph glyph-name="uniFEFC" unicode="&#xfee0;&#xfe8e;" horiz-adv-x="1563" arabic-form="final" 
d="M181 -45v256h395l-201 1114h286l203 -1114h165v1370h285v-1025q3 -155 55 -242q62 -103 244 -103v-256h-38q-244 0 -261 86v-86h-1133z" />
    <glyph glyph-name="uni0621" unicode="&#x621;" horiz-adv-x="1091" arabic-form="isolated" 
d="M150 211h66q-22 60 -22 123q0 51 15 104q42 152 180 230q92 52 189 52q53 0 108 -16q155 -44 254 -218l-229 -128q-51 88 -97 101q-16 4 -32 4q-29 0 -57 -16q-45 -24 -59 -75q-6 -19 -6 -38q0 -31 17 -60q35 -63 102 -63h362v-256h-791v256z" />
    <glyph glyph-name="uni0622" unicode="&#x622;" horiz-adv-x="587" arabic-form="isolated" 
d="M150 -45v1626h287v-1626h-287zM-55 1843q54 47 84 63q41 21 91 30q26 4 50 4q27 0 52 -5q34 -7 68 -26l24 -17q36 -21 67 -21q5 0 10 1q41 7 89 53l46 46l115 -127l-54 -54l-17 -15q-21 -16 -39 -27q-50 -32 -113 -43q-25 -5 -49 -5q-47 0 -88 17q-15 6 -34 16l-44 29
q-14 8 -34 8q-9 0 -20 -2q-38 -7 -90 -52z" />
    <glyph glyph-name="uni0623" unicode="&#x623;" horiz-adv-x="587" arabic-form="isolated" 
d="M150 -45v1626h287v-1626h-287zM74 1853h56q-5 11 -5 28q0 27 12 69q21 77 92 118q46 26 95 26q28 0 56 -8q78 -22 134 -118l-136 -75q-23 40 -40 45q-7 2 -13 2q-11 0 -20 -5q-14 -8 -18 -25q-2 -7 -2 -14q0 -10 5 -19q12 -22 37 -24h192v-152h-445v152z" />
    <glyph glyph-name="uni0624" unicode="&#x624;" horiz-adv-x="1420" arabic-form="isolated" 
d="M150 512q0 228 164 392q163 163 396 163t396 -163q164 -164 164 -392v-427q-2 -63 -12 -96q-49 -181 -227 -301q-214 -147 -598 -147v258q262 0 399 67q119 56 130 89h-252q-233 0 -398 165q-162 164 -162 392zM434 512q0 -127 81 -215q79 -86 195 -86h276v301
q0 125 -81 213q-79 86 -195 86t-195 -86q-81 -88 -81 -213zM556 1372q-5 11 -5 28q0 27 12 69q21 77 92 118q46 26 95 26q28 0 56 -8q78 -22 134 -118l-136 -75q-23 40 -40 45q-7 2 -13 2q-11 0 -20 -5q-14 -8 -18 -25q-2 -7 -2 -14q0 -10 5 -19q12 -22 37 -24h192v-152
h-445v152h56z" />
    <glyph glyph-name="uni0625" unicode="&#x625;" horiz-adv-x="587" arabic-form="isolated" 
d="M150 -45v1626h287v-1626h-287zM74 -382h56q-5 11 -5 28q0 27 12 69q21 77 92 118q46 26 95 26q28 0 56 -8q78 -22 134 -118l-136 -75q-23 40 -40 45q-7 2 -13 2q-11 0 -20 -5q-14 -8 -18 -25q-2 -7 -2 -14q0 -10 5 -19q12 -22 37 -24h192v-152h-445v152z" />
    <glyph glyph-name="uni0626" unicode="&#x626;" horiz-adv-x="2123" arabic-form="isolated" 
d="M156 188q6 158 232 375l186 -192q-89 -85 -120.5 -146t-31.5 -105q0 -40 17 -81q49 -125 225 -208.5t408 -83.5q264 0 402 78t181 160q21 42 21 76q0 33 -19 59q-17 23 -81.5 40.5t-141.5 31.5q-136 23 -292.5 78t-190.5 231q-8 40 -8 78q0 155 136 290q174 169 473 169
q141 0 311 -38l-59 -257q-146 38 -258 38q-178 0 -272 -96q-45 -45 -45 -103q0 -15 3 -31q8 -38 68 -59t184 -43q111 -21 226 -53.5t184 -125.5q69 -97 69 -205q0 -93 -51 -195q-93 -181 -318 -280.5t-522 -99.5q-313 0 -558.5 123.5t-328.5 329.5q-30 74 -30 200q0 22 1 45
zM200 700v152h56q-5 11 -5 28q0 27 12 69q21 77 92 118q46 26 95 26q28 0 56 -8q78 -22 134 -118l-136 -75q-23 40 -40 45q-7 2 -13 2q-11 0 -20 -5q-14 -8 -18 -25q-2 -7 -2 -14q0 -10 5 -19q12 -22 37 -24h192v-152h-445z" />
    <glyph glyph-name="uni0627" unicode="&#x627;" horiz-adv-x="587" arabic-form="isolated" 
d="M437 1581v-1626h-287v1626h287z" />
    <glyph glyph-name="uni0628" unicode="&#x628;" horiz-adv-x="1836" arabic-form="isolated" 
d="M447 931l144 -237q-155 -93 -155 -233q0 -106 73 -177q75 -73 197 -73h695v793h285v-1049h-1005q-230 0 -385 150q-146 144 -146 356q0 294 297 470zM870 -174q41 47 119 47q80 0 121 -47q40 -43 40 -104t-40 -104q-41 -48 -121 -48q-78 0 -119 48q-40 43 -40 104t40 104
z" />
    <glyph glyph-name="uni0629" unicode="&#x629;" horiz-adv-x="1322" arabic-form="isolated" 
d="M100 510q0 230 164 394q163 163 396 163q235 0 398 -163q164 -164 164 -394q0 -228 -164 -392q-163 -163 -398 -163q-233 0 -396 163q-164 164 -164 392zM387 510q0 -125 80 -213q79 -86 193 -86q116 0 197 86q81 88 81 213q0 127 -81 215q-81 86 -197 86
q-114 0 -193 -86q-80 -88 -80 -215zM699 1311q0 58 37 98q39 47 115 47q73 0 114 -47q35 -41 35 -98q0 -58 -36 -97q-41 -44 -113 -44q-76 0 -114 45q-38 40 -38 96zM356 1413q42 47 115 47t113 -47q38 -40 38 -98q0 -59 -38 -97q-38 -44 -113 -44q-72 0 -114 45
q-36 41 -36 96q0 57 35 98z" />
    <glyph glyph-name="uni062A" unicode="&#x62a;" horiz-adv-x="1836" arabic-form="isolated" 
d="M447 933l144 -239q-154 -93 -154 -231q0 -108 72 -179q76 -73 197 -73h696v795h284v-1051h-1005q-230 0 -385 150q-146 146 -146 358q0 292 297 470zM1066 1254q39 47 115 47q73 0 114 -47q35 -41 35 -98q0 -58 -36 -97q-41 -44 -113 -44q-76 0 -114 45q-38 40 -38 96
q0 58 37 98zM686 1258q42 47 115 47t113 -47q38 -40 38 -98q0 -59 -38 -97q-38 -44 -113 -44q-72 0 -114 45q-36 41 -36 96q0 57 35 98z" />
    <glyph glyph-name="uni062B" unicode="&#x62b;" horiz-adv-x="1835" arabic-form="isolated" 
d="M447 933l144 -239q-155 -93 -155 -231q0 -108 73 -179q75 -73 196 -73h696v795h284v-1051h-1004q-231 0 -381 148t-150 360q0 292 297 470zM1029 1156q0 58 37 98q39 47 115 47q73 0 114 -47q35 -41 35 -98q0 -58 -36 -97q-41 -44 -113 -44q-76 0 -114 45q-38 40 -38 96z
M826 1455q0 58 37 98q38 47 112 47q76 0 114 -47q38 -40 38 -98q0 -59 -39 -97q-38 -44 -113 -44q-73 0 -111 44q-38 38 -38 97zM686 1258q42 47 115 47t113 -47q38 -40 38 -98q0 -59 -38 -97q-38 -44 -113 -44q-72 0 -114 45q-36 41 -36 96q0 57 35 98z" />
    <glyph glyph-name="uni062C" unicode="&#x62c;" horiz-adv-x="1745" arabic-form="isolated" 
d="M302 93q147 118 373 118h432q-56 77 -56 305q0 124 -79 212q-74 85 -174 85q-67 0 -127 -41q-60 -44 -118 -163l-241 119q85 176 209 257q127 84 277 84q218 0 370 -164q153 -164 153 -389q0 -150 61 -231q57 -74 213 -74v-256h-920q-105 0 -170 -41q-69 -44 -69 -131
q0 -97 72 -138q61 -36 168 -38h11q102 0 178 34q31 14 66 38l109 75l152 -214l-73 -53l-43 -28q-53 -31 -103 -53q-131 -55 -294 -55h-6q-232 2 -375 116q-148 120 -148 316q0 190 152 310zM1200 -144q41 47 119 47q80 0 121 -47q40 -43 40 -104t-40 -104q-41 -48 -121 -48
q-78 0 -119 48q-40 43 -40 104t40 104z" />
    <glyph glyph-name="uni062D" unicode="&#x62d;" horiz-adv-x="1745" arabic-form="isolated" 
d="M302 93q147 118 373 118h432q-56 77 -56 305q0 124 -79 212q-74 85 -174 85q-67 0 -127 -41q-60 -44 -118 -163l-241 119q85 176 209 257q127 84 277 84q218 0 370 -164q153 -164 153 -389q0 -150 61 -231q57 -74 213 -74v-256h-920q-105 0 -170 -41q-69 -44 -69 -131
q0 -97 72 -138q61 -36 168 -38h11q102 0 178 34q31 14 66 38l109 75l152 -214l-73 -53l-43 -28q-53 -31 -103 -53q-131 -55 -294 -55h-6q-232 2 -375 116q-148 120 -148 316q0 190 152 310z" />
    <glyph glyph-name="uni062E" unicode="&#x62e;" horiz-adv-x="1745" arabic-form="isolated" 
d="M302 93q147 118 373 118h433q-57 77 -57 305q0 124 -79 212q-74 85 -174 85q-67 0 -127 -41q-60 -44 -118 -163l-241 119q85 176 209 257q127 84 277 84q218 0 370 -164q153 -164 153 -389q0 -150 61 -231q56 -74 213 -74v-256h-920q-105 0 -170 -41q-71 -44 -71 -131
q0 -96 73 -138q62 -36 169 -38h11q102 0 178 34q31 14 66 38l109 75l152 -214l-73 -53l-43 -28q-53 -31 -103 -53q-131 -55 -294 -55h-6q-232 2 -375 116q-148 120 -148 316q0 190 152 310zM643 1349q0 61 40 104q41 47 119 47q80 0 121 -47q40 -43 40 -104t-40 -104
q-41 -48 -121 -48q-78 0 -119 48q-40 43 -40 104z" />
    <glyph glyph-name="uni062F" unicode="&#x62f;" horiz-adv-x="1232" arabic-form="isolated" 
d="M797 211v106q0 61 -7 107q-10 69 -35 130q-68 159 -280 293l123 239q305 -193 413 -441q40 -90 58 -189q13 -71 13 -139v-362h-932v256h647z" />
    <glyph glyph-name="uni0630" unicode="&#x630;" horiz-adv-x="1232" arabic-form="isolated" 
d="M797 211v106q0 61 -7 107q-10 69 -35 130q-68 159 -280 293l123 239q305 -193 413 -441q40 -90 58 -189q13 -71 13 -139v-362h-932v256h647zM410 1311q0 61 40 104q41 47 119 47q80 0 121 -47q40 -43 40 -104t-40 -104q-41 -48 -121 -48q-78 0 -119 48q-40 43 -40 104z
" />
    <glyph glyph-name="uni0631" unicode="&#x631;" horiz-adv-x="590" arabic-form="isolated" 
d="M-200 -371q356 217 356 559v818h284v-818q0 -478 -501 -783z" />
    <glyph glyph-name="uni0632" unicode="&#x632;" horiz-adv-x="600" arabic-form="isolated" 
d="M-200 -371q356 217 356 559v818h284v-818q0 -478 -501 -783zM130 1278q0 61 40 104q41 47 119 47q80 0 121 -47q40 -43 40 -104t-40 -104q-41 -48 -121 -48q-78 0 -119 48q-40 43 -40 104z" />
    <glyph glyph-name="uni0633" unicode="&#x633;" horiz-adv-x="2727" arabic-form="isolated" 
d="M425 667l165 -207q-156 -126 -156 -313q0 -155 103 -261q100 -105 245 -105t244 105q101 106 101 261v732h286v-304q0 -159 50 -254q62 -110 199 -110h46v669h287v-365q9 -137 62 -215q61 -89 185 -89h48v795h287v-1051h-335q-225 0 -247 82v-82h-335q-168 0 -256 81
q-32 -188 -176 -328q-185 -183 -446 -183q-264 0 -447 181q-185 182 -185 441q0 299 275 520z" />
    <glyph glyph-name="uni0634" unicode="&#x634;" horiz-adv-x="2727" arabic-form="isolated" 
d="M150 147q0 299 275 520l165 -207q-156 -126 -156 -313q0 -155 103 -261q100 -105 245 -105t244 105q101 106 101 261v732h286v-304q0 -159 50 -254q62 -110 199 -110h46v669h287v-365q9 -137 62 -215q61 -89 185 -89h48v795h287v-1051h-335q-225 0 -247 82v-82h-335
q-168 0 -256 81q-32 -188 -176 -328q-185 -183 -446 -183q-264 0 -447 181q-185 182 -185 441zM1937 1353q39 47 115 47q73 0 114 -47q35 -41 35 -98q0 -58 -36 -97q-41 -44 -113 -44q-76 0 -114 45q-38 40 -38 96q0 58 37 98zM1734 1652q38 47 112 47q76 0 114 -47
q38 -40 38 -98q0 -59 -39 -97q-38 -44 -113 -44q-73 0 -111 44q-38 38 -38 97q0 58 37 98zM1557 1357q42 47 115 47t113 -47q38 -40 38 -98q0 -59 -38 -97q-38 -44 -113 -44q-72 0 -114 45q-36 41 -36 96q0 57 35 98z" />
    <glyph glyph-name="uni0635" unicode="&#x635;" horiz-adv-x="2714" arabic-form="isolated" 
d="M150 203q0 298 275 519l165 -206q-156 -126 -156 -313q0 -156 103 -262q100 -105 245 -105t244 105q101 106 101 262v731h286v-171q254 173 497 231q91 22 176 22q146 0 276 -65q202 -99 202 -363v-633h-1204q-57 -148 -214 -261q-163 -114 -364 -114q-264 0 -447 181
q-185 183 -185 442zM1413 213h867v375q0 106 -61 140q-10 6 -23 11q-16 6 -38 9q-33 7 -71 7q-32 0 -69 -5q-245 -35 -605 -259v-278z" />
    <glyph glyph-name="uni0636" unicode="&#x636;" horiz-adv-x="2714" arabic-form="isolated" 
d="M150 203q0 298 275 519l165 -206q-156 -126 -156 -313q0 -156 103 -262q100 -105 245 -105t244 105q101 106 101 262v731h286v-171q254 173 497 231q91 22 176 22q146 0 276 -65q202 -99 202 -363v-633h-1204q-57 -148 -214 -261q-163 -114 -364 -114q-264 0 -447 181
q-185 183 -185 442zM1413 491v-278h867v375q0 106 -61 140q-10 6 -23 11q-16 6 -38 9q-33 7 -71 7q-32 0 -69 -5q-245 -35 -605 -259zM1782 1278q0 61 40 104q41 47 119 47q80 0 121 -47q40 -43 40 -104t-40 -104q-41 -48 -121 -48q-78 0 -119 48q-40 43 -40 104z" />
    <glyph glyph-name="uni0637" unicode="&#x637;" horiz-adv-x="1856" arabic-form="isolated" 
d="M150 -45v256h104v1370h285v-829q261 180 508 240q94 23 181 23q146 0 276 -64q202 -101 202 -363v-633h-1556zM539 211h881v377q0 106 -58 138l-12 6l-14 5q-17 8 -38 11q-30 6 -65 7q-35 -1 -76 -7q-250 -37 -618 -268v-269z" />
    <glyph glyph-name="uni0638" unicode="&#x638;" horiz-adv-x="1856" arabic-form="isolated" 
d="M254 211v1370h285v-829q261 180 508 240q94 23 181 23q146 0 276 -64q202 -101 202 -363v-633h-1556v256h104zM1420 211v377q0 106 -58 138l-12 6l-14 5q-17 8 -38 11q-30 6 -65 7q-35 -1 -76 -7q-250 -37 -618 -268v-269h881zM804 1382q41 47 119 47q80 0 121 -47
q40 -43 40 -104t-40 -104q-41 -48 -121 -48q-78 0 -119 48q-40 43 -40 104t40 104z" />
    <glyph glyph-name="uni0639" unicode="&#x639;" horiz-adv-x="1578" arabic-form="isolated" 
d="M261 56q102 103 199 127q-20 24 -34 51q-73 128 -73 264q0 75 22 152q60 214 269 332q132 76 273 76q76 0 154 -22q225 -63 357 -298l-232 -135q-85 152 -199 185q-39 11 -77 11q-71 0 -137 -40q-123 -74 -138 -171q-6 -40 -6 -77q0 -87 34 -154q53 -101 172 -138
q33 -8 76 -8h490v-256h-736q-105 0 -168 -41q-71 -44 -71 -131q0 -97 72 -139q62 -37 168 -37h11q102 0 179 34q30 14 66 38l108 75l152 -214l-73 -53l-43 -28q-53 -31 -103 -53q-131 -55 -294 -55h-6q-232 2 -375 116q-148 120 -148 316q0 158 111 273z" />
    <glyph glyph-name="uni063A" unicode="&#x63a;" horiz-adv-x="1578" arabic-form="isolated" 
d="M150 -217q0 158 111 273q102 103 199 127q-20 24 -34 51q-73 128 -73 264q0 75 22 152q60 214 269 332q132 76 273 76q76 0 154 -22q225 -63 357 -298l-232 -135q-85 152 -199 185q-39 11 -77 11q-71 0 -137 -40q-123 -74 -138 -171q-6 -40 -6 -77q0 -87 34 -154
q53 -101 172 -138q33 -8 76 -8h490v-256h-736q-105 0 -168 -41q-71 -44 -71 -131q0 -97 72 -139q62 -37 168 -37h11q102 0 179 34q30 14 66 38l108 75l152 -214l-73 -53l-43 -28q-53 -31 -103 -53q-131 -55 -294 -55h-6q-232 2 -375 116q-148 120 -148 316zM730 1341
q0 61 37 104q45 48 121 48q77 0 119 -45t42 -107q0 -61 -42 -106t-119 -45q-76 0 -121 47q-37 44 -37 104z" />
    <glyph glyph-name="uni0641" unicode="&#x641;" horiz-adv-x="2325" arabic-form="isolated" 
d="M150 463q0 292 297 470l144 -239q-154 -93 -154 -231q0 -108 72 -179q75 -73 197 -73h427q-80 86 -80 301q0 228 164 392q163 163 396 163t400 -164q162 -163 162 -391v-557h-1494q-232 0 -385 150q-146 146 -146 358zM1336 512q0 -129 78 -215t199 -86h276v301
q0 125 -81 213q-79 86 -195 86t-195 -86q-82 -88 -82 -213zM1493 1448q44 47 120 47q77 0 121 -47q40 -46 40 -105q0 -61 -42 -106t-119 -45q-76 0 -120 47q-38 41 -38 104q0 61 38 105z" />
    <glyph glyph-name="uni0642" unicode="&#x642;" horiz-adv-x="1966" arabic-form="isolated" 
d="M340 729l189 -207q-100 -160 -100 -328q0 -238 166.5 -404.5t399.5 -166.5q234 0 399 166q77 78 118 166h-260q-233 2 -395 165q-163 164 -163 392t163 390q164 165 397 165t396 -163q164 -164 164 -392q0 -40 2 -114v-363q0 -14 -3 -44.5t-13 -61.5q-59 -182 -207 -330
q-246 -246 -598 -246q-351 0 -598 247t-247 594q0 273 190 535zM1056 298q77 -85 198 -87h276v301q0 127 -80 213t-196 86t-195 -86q-80 -86 -80 -213t77 -214zM949 1462q42 47 119 47q80 0 121 -47q40 -43 40 -104t-40 -104q-40 -48 -121 -48q-77 0 -119 48q-39 43 -39 104
t39 104zM1279 1358q0 60 38 105q45 46 121 46t120 -46q41 -44 41 -105t-41 -105q-45 -45 -120 -45q-78 0 -121 46q-38 44 -38 104z" />
    <glyph glyph-name="uni0643" unicode="&#x643;" horiz-adv-x="1832" arabic-form="isolated" 
d="M447 931l144 -237q-155 -93 -155 -233q0 -106 73 -177q75 -73 197 -73h695v1373h285v-1629h-1005q-230 0 -385 150q-146 144 -146 356q0 294 297 470zM740 610v152h56q-5 11 -5 28q0 27 12 69q21 77 92 118q46 26 95 26q28 0 56 -8q78 -22 134 -118l-136 -75
q-23 40 -40 45q-7 2 -13 2q-11 0 -20 -5q-14 -8 -18 -25q-2 -7 -2 -14q0 -10 5 -19q12 -22 37 -24h192v-152h-445z" />
    <glyph glyph-name="uni0644" unicode="&#x644;" horiz-adv-x="1662" arabic-form="isolated" 
d="M150 199q0 343 357 630l166 -207q-238 -189 -238 -423q0 -194 105 -316q108 -123 283 -123t289 129q114 127 114 320v794h1v578h285v-1372q0 -294 -194 -496q-198 -209 -493 -209t-486 205q-189 196 -189 490z" />
    <glyph glyph-name="uni0645" unicode="&#x645;" horiz-adv-x="1799" arabic-form="isolated" 
d="M814 487q0 -58 19.5 -112.5t55 -96.5t86 -67t112.5 -25t113.5 24.5t88 66t56.5 96t20 114.5t-20 114t-57 95t-88 65.5t-113 24.5q-61 0 -111.5 -25t-86.5 -66t-55.5 -95t-19.5 -113zM1649 487q0 -117 -44 -218.5t-120.5 -177t-178.5 -118.5t-219 -43q-240 0 -357 124
q-56 -103 -295 -103q-12 -18 -12 -84v-619h-273v619q0 69 16 131.5t50 109.5t87.5 75t128.5 28h14l16 2q11 2 21 4t19 4q25 9 25 27v239q0 229 164 393q164 162 396 162q116 0 218.5 -43t179 -117.5t120.5 -176t44 -218.5z" />
    <glyph glyph-name="uni0646" unicode="&#x646;" horiz-adv-x="1662" arabic-form="isolated" 
d="M150 199q0 343 358 630l165 -207q-238 -190 -238 -423q0 -194 106 -317q107 -122 282 -122t289 129q114 127 114 320v794h286v-794q0 -293 -194 -496q-198 -209 -493 -209t-486 205q-189 197 -189 490zM730 1145q0 60 39 105q40 46 120 46q76 0 118 -45t42 -106
q0 -62 -41 -105q-44 -45 -119 -45q-79 0 -121 46q-38 43 -38 104z" />
    <glyph glyph-name="uni0647" unicode="&#x647;" horiz-adv-x="1322" arabic-form="isolated" 
d="M264 904q163 163 396 163q235 0 398 -163q164 -164 164 -394q0 -228 -164 -392q-163 -163 -398 -163q-233 0 -396 163q-164 164 -164 392q0 230 164 394zM467 297q79 -86 193 -86q116 0 197 86q81 88 81 213q0 127 -81 215q-81 86 -197 86q-114 0 -193 -86
q-80 -88 -80 -215q0 -125 80 -213z" />
    <glyph glyph-name="uni0648" unicode="&#x648;" horiz-adv-x="1422" arabic-form="isolated" 
d="M314 904q163 163 396 163t396 -163q164 -164 164 -392l2 -380q-2 -27 -2 -47q-2 -63 -12 -96q-49 -181 -227 -301q-214 -147 -600 -147v258q263 0 401 67q119 56 130 89h-252q-233 0 -396 163q-164 164 -164 394q0 228 164 392zM515 297q79 -86 195 -86h276v301
q0 125 -81 213q-79 86 -195 86t-195 -86q-81 -88 -81 -213q0 -127 81 -215z" />
    <glyph glyph-name="uni0649" unicode="&#x649;" horiz-adv-x="2123" arabic-form="isolated" 
d="M156 188q6 158 232 375l186 -192q-89 -85 -120.5 -146t-31.5 -105q0 -40 17 -81q49 -125 225 -208.5t408 -83.5q264 0 402 78t181 160q21 42 21 76q0 33 -19 59q-17 23 -81.5 40.5t-141.5 31.5q-136 23 -292.5 78t-190.5 231q-8 40 -8 78q0 155 136 290q174 169 473 169
q141 0 311 -38l-59 -257q-146 38 -258 38q-178 0 -272 -96q-45 -45 -45 -103q0 -15 3 -31q8 -38 68 -59t184 -43q111 -21 226 -53.5t184 -125.5q69 -97 69 -205q0 -93 -51 -195q-93 -181 -318 -280.5t-522 -99.5q-313 0 -558.5 123.5t-328.5 329.5q-30 74 -30 200q0 22 1 45
z" />
    <glyph glyph-name="uni064A" unicode="&#x64a;" horiz-adv-x="2123" arabic-form="isolated" 
d="M156 188q6 158 232 375l186 -192q-89 -85 -120.5 -146t-31.5 -105q0 -40 17 -81q49 -125 225 -208.5t408 -83.5q264 0 402 78t181 160q21 42 21 76q0 33 -19 59q-17 23 -81.5 40.5t-141.5 31.5q-136 23 -292.5 78t-190.5 231q-8 40 -8 78q0 155 136 290q174 169 473 169
q141 0 311 -38l-59 -257q-146 38 -258 38q-178 0 -272 -96q-45 -45 -45 -103q0 -15 3 -31q8 -38 68 -59t184 -43q111 -21 226 -53.5t184 -125.5q69 -97 69 -205q0 -93 -51 -195q-93 -181 -318 -280.5t-522 -99.5q-313 0 -558.5 123.5t-328.5 329.5q-30 74 -30 200q0 22 1 45
zM1136 -727q0 60 36 103q42 51 122 51q78 0 121 -50q40 -43 40 -104q0 -62 -41 -103q-43 -46 -120 -46q-80 0 -121 47q-37 41 -37 102zM806 -727q0 61 39 103q41 51 119 51q81 0 122 -51q39 -42 39 -103q0 -62 -40 -103q-41 -46 -121 -46q-77 0 -118 47q-40 43 -40 102z" />
    <glyph glyph-name="uni0671" unicode="&#x671;" horiz-adv-x="587" arabic-form="isolated" 
d="M150 -45v1626h287v-1626h-287zM95 1800h25v323h105v-178q35 24 96 39q24 6 46 6q39 0 75 -18q58 -29 58 -102v-169h-405v99zM225 1800h169v70q0 13 -4 15l-3 2q-3 1 -6 1l-12 2q-7 -1 -15 -2q-55 -8 -129 -55v-33z" />
    <glyph glyph-name="uni0679" unicode="&#x679;" horiz-adv-x="1836" arabic-form="isolated" 
d="M447 933l144 -237q-155 -93 -155 -233q0 -106 73 -177q75 -73 197 -73h695v793h285v-1049h-1005q-230 0 -385 150q-146 144 -146 356q0 294 297 470zM770 978v99h25v323h105v-178q35 24 96 39q24 6 46 6q39 0 75 -18q58 -29 58 -102v-169h-405zM1069 1077v70q0 13 -4 15
l-3 2q-3 1 -6 1l-12 2q-7 -1 -15 -2q-55 -8 -129 -55v-33h169z" />
    <glyph glyph-name="uni067E" unicode="&#x67e;" horiz-adv-x="1836" arabic-form="isolated" 
d="M447 931l144 -237q-155 -93 -155 -233q0 -106 73 -177q75 -73 197 -73h695v793h285v-1049h-1005q-230 0 -385 150q-146 144 -146 356q0 294 297 470zM1087 -160q38 45 114 45q72 0 113 -44q36 -39 36 -97q0 -57 -35 -98q-41 -47 -114 -47q-76 0 -115 47q-37 40 -37 98
q0 56 38 96zM884 -458q38 44 111 44q75 0 113 -44q39 -38 39 -97q0 -58 -38 -98q-38 -47 -114 -47q-74 0 -112 47q-37 40 -37 98q0 59 38 97zM671 -260q0 55 36 96q42 45 114 45q75 0 113 -44q38 -38 38 -97q0 -58 -38 -98q-40 -47 -113 -47t-115 47q-35 41 -35 98z" />
    <glyph glyph-name="uni0686" unicode="&#x686;" horiz-adv-x="1745" arabic-form="isolated" 
d="M302 93q147 118 373 118h432q-56 77 -56 305q0 124 -79 212q-74 85 -174 85q-67 0 -127 -41q-60 -44 -118 -163l-241 119q85 176 209 257q127 84 277 84q218 0 370 -164q153 -164 153 -389q0 -150 61 -231q57 -74 213 -74v-256h-920q-105 0 -170 -41q-69 -44 -69 -131
q0 -97 72 -138q61 -36 168 -38h11q102 0 178 34q31 14 66 38l109 75l152 -214l-73 -53l-43 -28q-53 -31 -103 -53q-131 -55 -294 -55h-6q-232 2 -375 116q-148 120 -148 316q0 190 152 310zM1450 -120q34 40 101 40q64 0 101 -39q32 -35 32 -86t-32 -87q-36 -42 -101 -42
q-67 0 -102 42q-33 35 -33 87q0 49 34 85zM1100 -209q0 49 32 85q37 40 101 40q67 0 101 -39q34 -33 34 -86q0 -51 -34 -87q-36 -42 -101 -42t-102 42q-31 36 -31 87zM1289 -365q34 39 99 39q67 0 100 -39q35 -34 35 -86t-34 -87q-33 -42 -101 -42q-66 0 -100 42
q-32 35 -32 87t33 86z" />
    <glyph glyph-name="uni0688" unicode="&#x688;" horiz-adv-x="1232" arabic-form="isolated" 
d="M797 211v106q0 61 -7 107q-10 69 -35 130q-68 159 -280 293l123 239q305 -193 413 -441q40 -90 58 -189q13 -71 13 -139v-362h-932v256h647zM425 1277v323h105v-178q35 24 96 39q24 6 46 6q39 0 75 -18q58 -29 58 -102v-169h-405v99h25zM699 1277v70q0 13 -4 15l-3 2
q-3 1 -6 1l-12 2q-7 -1 -15 -2q-55 -8 -129 -55v-33h169z" />
    <glyph glyph-name="uni0691" unicode="&#x691;" horiz-adv-x="674" arabic-form="isolated" 
d="M-200 -371q356 217 356 559v818h284v-818q0 -478 -501 -783zM90 1140v99h25v323h105v-178q35 24 96 39q24 6 46 6q39 0 75 -18q58 -29 58 -102v-169h-405zM220 1272v-33h169v70q0 13 -4 15l-3 2q-3 1 -6 1l-12 2q-7 -1 -15 -2q-55 -8 -129 -55z" />
    <glyph glyph-name="uni0698" unicode="&#x698;" horiz-adv-x="680" arabic-form="isolated" 
d="M-200 -371q356 217 356 559v818h284v-818q0 -478 -501 -783zM349 1241q0 58 37 98q39 47 115 47q73 0 114 -47q35 -41 35 -98q0 -58 -36 -97q-41 -44 -113 -44q-76 0 -114 45q-38 40 -38 96zM146 1540q0 58 37 98q38 47 112 47q76 0 114 -47q38 -40 38 -98q0 -59 -39 -97
q-38 -44 -113 -44q-73 0 -111 44q-38 38 -38 97zM-29 1245q0 57 35 98q42 47 115 47t113 -47q38 -40 38 -98q0 -59 -38 -97q-38 -44 -113 -44q-72 0 -114 45q-36 41 -36 96z" />
    <glyph glyph-name="uni06A4" unicode="&#x6a4;" horiz-adv-x="2325" arabic-form="isolated" 
d="M447 933l144 -239q-154 -93 -154 -231q0 -108 72 -179q75 -73 197 -73h427q-80 86 -80 301q0 228 164 392q163 163 396 163t400 -164q162 -163 162 -391v-557h-1494q-232 0 -385 150q-146 146 -146 358q0 292 297 470zM1414 297q78 -86 199 -86h276v301q0 125 -81 213
q-79 86 -195 86t-195 -86q-82 -88 -82 -213q0 -129 78 -215zM1678 1256q0 58 37 98q39 47 115 47q73 0 114 -47q35 -41 35 -98q0 -58 -36 -97q-41 -44 -113 -44q-76 0 -114 45q-38 40 -38 96zM1512 1653q38 47 112 47q76 0 114 -47q38 -40 38 -98q0 -59 -39 -97
q-38 -44 -113 -44q-73 0 -111 44q-38 38 -38 97q0 58 37 98zM1335 1358q42 47 115 47t113 -47q38 -40 38 -98q0 -59 -38 -97q-38 -44 -113 -44q-72 0 -114 45q-36 41 -36 96q0 57 35 98z" />
    <glyph glyph-name="uni06A9" unicode="&#x6a9;" horiz-adv-x="2585" arabic-form="isolated" 
d="M446 930l146 -235q-156 -94 -156 -234q0 -106 73 -177q75 -73 197 -73h1445v108q0 100 -95 173q-113 84 -312 84h-826v234l1119 763l148 -218l-767 -524h320q292 0 492 -141q205 -149 205 -371v-153l-3 -211h-1751q-231 0 -385 150q-146 144 -146 356q0 292 296 469z" />
    <glyph glyph-name="uni06AF" unicode="&#x6af;" horiz-adv-x="2585" arabic-form="isolated" 
d="M150 461q0 292 296 469l146 -235q-156 -94 -156 -234q0 -106 73 -177q75 -73 197 -73h1445v108q0 100 -95 173q-113 84 -312 84h-826v234l1119 763l148 -218l-767 -524h320q292 0 492 -141q205 -149 205 -371v-153l-3 -211h-1751q-231 0 -385 150q-146 144 -146 356z
M1889 1738l82 -136l-1015 -678l-83 136z" />
    <glyph glyph-name="uniFB51" unicode="&#x671;" horiz-adv-x="701" arabic-form="final" 
d="M150 1581h287v-1325q0 -45 40 -45h271l3 -256h-280q-142 0 -231 84q-90 84 -90 217v1325zM95 1701v99h25v323h105v-178q35 24 96 39q24 6 46 6q39 0 75 -18q58 -29 58 -102v-169h-405zM225 1833v-33h169v70q0 13 -4 15l-3 2q-3 1 -6 1l-12 2q-7 -1 -15 -2
q-55 -8 -129 -55z" />
    <glyph glyph-name="uniFB57" unicode="&#x67e;" horiz-adv-x="1943" arabic-form="final" 
d="M447 931l144 -237q-155 -93 -155 -233q0 -106 73 -177q75 -73 197 -73h695v792h285v-792h307v-256h-1312q-230 0 -385 150q-146 144 -146 356q0 292 297 470zM1079 -256q0 56 38 96q38 45 114 45q72 0 113 -44q36 -39 36 -97q0 -57 -35 -98q-41 -47 -114 -47
q-76 0 -115 47q-37 40 -37 98zM914 -458q38 44 111 44q75 0 113 -44q39 -38 39 -97q0 -58 -38 -98q-38 -47 -114 -47q-74 0 -112 47q-37 40 -37 98q0 59 38 97zM737 -164q42 45 114 45q75 0 113 -44q38 -38 38 -97q0 -58 -38 -98q-40 -47 -113 -47t-115 47q-35 41 -35 98
q0 55 36 96z" />
    <glyph glyph-name="uniFB58" unicode="&#x67e;" horiz-adv-x="755" arabic-form="initial" 
d="M288 211v792h287v-1048h-595v256h308zM394 -160q38 45 114 45q72 0 113 -44q36 -39 36 -97q0 -57 -35 -98q-41 -47 -114 -47q-76 0 -115 47q-37 40 -37 98q0 56 38 96zM153 -555q0 59 38 97q38 44 111 44q75 0 113 -44q39 -38 39 -97q0 -58 -38 -98q-38 -47 -114 -47
q-74 0 -112 47q-37 40 -37 98zM14 -164q42 45 114 45q75 0 113 -44q38 -38 38 -97q0 -58 -38 -98q-40 -47 -113 -47t-115 47q-35 41 -35 98q0 55 36 96z" />
    <glyph glyph-name="uniFB59" unicode="&#x67e;" horiz-adv-x="840" arabic-form="medial" 
d="M-20 -45v256h270v792h285v-428q0 -161 52 -254q62 -110 197 -110h106v-256h-110h-11q-179 0 -234 66v-66h-555zM458 -256q0 56 38 96q38 45 114 45q72 0 113 -44q36 -39 36 -97q0 -57 -35 -98q-41 -47 -114 -47q-76 0 -115 47q-37 40 -37 98zM255 -555q0 59 38 97
q38 44 111 44q75 0 113 -44q39 -38 39 -97q0 -58 -38 -98q-38 -47 -114 -47q-74 0 -112 47q-37 40 -37 98zM116 -164q42 45 114 45q75 0 113 -44q38 -38 38 -97q0 -58 -38 -98q-40 -47 -113 -47t-115 47q-35 41 -35 98q0 55 36 96z" />
    <glyph glyph-name="uniFB67" unicode="&#x679;" horiz-adv-x="1943" arabic-form="final" 
d="M447 931l144 -237q-155 -93 -155 -233q0 -106 73 -177q75 -73 197 -73h695v792h285v-792h307v-256h-1312q-230 0 -385 150q-146 144 -146 356q0 292 297 470zM770 1077h25v323h105v-178q35 24 96 39q24 6 46 6q39 0 75 -18q58 -29 58 -102v-169h-405v99zM900 1110v-33
h169v70q0 13 -4 15l-3 2q-3 1 -6 1l-12 2q-7 -1 -15 -2q-55 -8 -129 -55z" />
    <glyph glyph-name="uniFB68" unicode="&#x679;" horiz-adv-x="725" arabic-form="initial" 
d="M-20 211h308v792h287v-1048h-595v256zM195 1248v323h105v-178q35 24 96 39q24 6 46 6q39 0 75 -18q58 -29 58 -102v-169h-405v99h25zM469 1248v70q0 13 -4 15l-3 2q-3 1 -6 1l-12 2q-7 -1 -15 -2q-55 -8 -129 -55v-33h169z" />
    <glyph glyph-name="uniFB69" unicode="&#x679;" horiz-adv-x="840" arabic-form="medial" 
d="M-20 -45v256h270v792h285v-428q0 -161 52 -254q62 -110 197 -110h106v-256h-110q-223 2 -245 36v-36h-555zM170 1248h25v323h105v-178q35 24 96 39q24 6 46 6q39 0 75 -18q58 -29 58 -102v-169h-405v99zM300 1281v-33h169v70q0 13 -4 15l-3 2q-3 1 -6 1l-12 2
q-7 -1 -15 -2q-55 -8 -129 -55z" />
    <glyph glyph-name="uniFB6B" unicode="&#x6a4;" horiz-adv-x="2438" arabic-form="final" 
d="M447 933l144 -239q-155 -93 -155 -231q0 -108 73 -179q75 -73 197 -73h427q-80 86 -80 301q0 228 164 392q163 163 396 163t400 -164q162 -163 162 -391v-301h313v-256h-1807q-230 0 -385 150q-146 146 -146 358q0 292 297 470zM1414 297q77 -86 199 -86h276v301
q0 125 -81 213q-79 86 -195 86t-195 -86q-83 -88 -83 -213q0 -129 79 -215zM1658 1291q0 58 37 98q39 47 115 47q73 0 114 -47q35 -41 35 -98q0 -58 -36 -97q-41 -44 -113 -44q-76 0 -114 45q-38 40 -38 96zM1492 1688q38 47 112 47q76 0 114 -47q38 -40 38 -98
q0 -59 -39 -97q-38 -44 -113 -44q-73 0 -111 44q-38 38 -38 97q0 58 37 98zM1280 1295q0 57 35 98q42 47 115 47t113 -47q38 -40 38 -98q0 -59 -38 -97q-38 -44 -113 -44q-72 0 -114 45q-36 41 -36 96z" />
    <glyph glyph-name="uniFB6C" unicode="&#x6a4;" horiz-adv-x="1559" arabic-form="initial" 
d="M-20 211h386q-79 86 -79 299q0 230 164 394q163 163 396 163t396 -163q164 -164 164 -394l2 -555h-1429v256zM567 510q0 -127 81 -213q77 -86 197 -86h277v299q0 127 -80 215q-79 86 -195 86t-198 -86q-82 -88 -82 -215zM937 1389q39 47 115 47q73 0 114 -47
q35 -41 35 -98q0 -58 -36 -97q-41 -44 -113 -44q-76 0 -114 45q-38 40 -38 96q0 58 37 98zM697 1590q0 58 37 98q38 47 112 47q76 0 114 -47q38 -40 38 -98q0 -59 -39 -97q-38 -44 -113 -44q-73 0 -111 44q-38 38 -38 97zM557 1393q42 47 115 47t113 -47q38 -40 38 -98
q0 -59 -38 -97q-38 -44 -113 -44q-72 0 -114 45q-36 41 -36 96q0 57 35 98z" />
    <glyph glyph-name="uniFB6D" unicode="&#x6a4;" horiz-adv-x="1669" arabic-form="medial" 
d="M367 211q-80 86 -80 301q0 228 165 392q162 163 395 163t396 -163q164 -164 164 -392v-301h312v-256h-1739v256h387zM568 512q0 -129 80 -215q78 -86 197 -86h278v301q0 125 -81 213q-79 86 -195 86t-197 -86q-82 -88 -82 -213zM937 1389q39 47 115 47q73 0 114 -47
q35 -41 35 -98q0 -58 -36 -97q-41 -44 -113 -44q-76 0 -114 45q-38 40 -38 96q0 58 37 98zM734 1688q38 47 112 47q76 0 114 -47q38 -40 38 -98q0 -59 -39 -97q-38 -44 -113 -44q-73 0 -111 44q-38 38 -38 97q0 58 37 98zM522 1295q0 57 35 98q42 47 115 47t113 -47
q38 -40 38 -98q0 -59 -38 -97q-38 -44 -113 -44q-72 0 -114 45q-36 41 -36 96z" />
    <glyph glyph-name="uniFB7B" unicode="&#x686;" horiz-adv-x="1606" arabic-form="final" 
d="M302 93q147 118 371 118h435q-57 77 -57 305q0 124 -79 212q-73 85 -174 85q-67 0 -127 -42q-61 -43 -117 -163l-242 120q85 176 209 256q125 85 277 85q218 0 370 -164q153 -164 153 -389q0 -150 61 -231q57 -74 164 -74h109v-256h-982q-103 0 -168 -41
q-71 -44 -71 -131q0 -96 74 -138q61 -36 168 -38h11q102 0 179 34q30 14 66 38l108 75l152 -214l-73 -53l-43 -28q-53 -31 -103 -53q-131 -55 -294 -55h-6q-232 2 -375 116q-148 120 -148 316q0 190 152 310zM1416 -205q0 49 34 85q34 40 101 40q64 0 101 -39q32 -35 32 -86
t-32 -87q-36 -42 -101 -42q-67 0 -102 42q-33 35 -33 87zM1100 -209q0 49 32 85q37 40 101 40q67 0 101 -39q34 -33 34 -86q0 -51 -34 -87q-36 -42 -101 -42t-102 42q-31 36 -31 87zM1289 -365q34 39 99 39q67 0 100 -39q35 -34 35 -86t-34 -87q-33 -42 -101 -42
q-66 0 -100 42q-32 35 -32 87t33 86z" />
    <glyph glyph-name="uniFB7C" unicode="&#x686;" horiz-adv-x="1459" arabic-form="initial" 
d="M-20 211h859q-51 83 -51 330q0 111 -75 193q-71 79 -172 79q-151 0 -247 -185l-238 126q87 165 213 241q123 74 272 74q217 0 375 -165q154 -160 154 -374q0 -177 68 -260q48 -59 171 -59v-256h-1329v256zM1016 -225q0 49 34 85q34 40 101 40q64 0 101 -39q32 -35 32 -86
t-32 -87q-36 -42 -101 -42q-67 0 -102 42q-33 35 -33 87zM700 -229q0 49 32 85q37 40 101 40q67 0 101 -39q34 -33 34 -86q0 -51 -34 -87q-36 -42 -101 -42t-102 42q-31 36 -31 87zM856 -471q0 52 33 86q34 39 99 39q67 0 100 -39q35 -34 35 -86t-34 -87q-33 -42 -101 -42
q-66 0 -100 42q-32 35 -32 87z" />
    <glyph glyph-name="uniFB7D" unicode="&#x686;" horiz-adv-x="1361" arabic-form="medial" 
d="M-20 -45v256h858q-51 83 -51 330q0 111 -75 193q-71 79 -172 79q-150 0 -246 -185l-238 126q87 165 213 241q123 74 271 74q218 0 376 -165q153 -160 153 -374q0 -177 68 -260q49 -59 122 -59h152v-256h-1431zM1050 -140q34 40 101 40q64 0 101 -39q32 -35 32 -86
t-32 -87q-36 -42 -101 -42q-67 0 -102 42q-33 35 -33 87q0 49 34 85zM700 -229q0 49 32 85q37 40 101 40q67 0 101 -39q34 -33 34 -86q0 -51 -34 -87q-36 -42 -101 -42t-102 42q-31 36 -31 87zM856 -471q0 52 33 86q34 39 99 39q67 0 100 -39q35 -34 35 -86t-34 -87
q-33 -42 -101 -42q-66 0 -100 42q-32 35 -32 87z" />
    <glyph glyph-name="uniFB89" unicode="&#x688;" horiz-adv-x="1399" arabic-form="final" 
d="M150 211h647v113q0 60 -8 108q-9 67 -34 128q-68 161 -280 293l122 239q252 -158 364 -344q84 -138 110 -295q39 -242 239 -242h139v-256h-139q-207 0 -230 27v-27h-931zM400 1277h25v323h105v-178q35 24 96 39q24 6 46 6q39 0 75 -18q58 -29 58 -102v-169h-405v99z
M699 1277v70q0 13 -4 15l-3 2q-3 1 -6 1l-12 2q-7 -1 -15 -2q-55 -8 -129 -55v-33h169z" />
    <glyph glyph-name="uniFB8B" unicode="&#x698;" horiz-adv-x="771" arabic-form="final" 
d="M-200 -371q354 215 354 559v818h286v-428q0 -162 51 -255q61 -112 198 -112h132v-256h-140q-223 4 -247 42q-9 -295 -498 -592zM349 1241q0 58 37 98q39 47 115 47q73 0 114 -47q35 -41 35 -98q0 -58 -36 -97q-41 -44 -113 -44q-76 0 -114 45q-38 40 -38 96zM146 1540
q0 58 37 98q38 47 112 47q76 0 114 -47q38 -40 38 -98q0 -59 -39 -97q-38 -44 -113 -44q-73 0 -111 44q-38 38 -38 97zM6 1343q42 47 115 47t113 -47q38 -40 38 -98q0 -59 -38 -97q-38 -44 -113 -44q-72 0 -114 45q-36 41 -36 96q0 57 35 98z" />
    <glyph glyph-name="uniFB8D" unicode="&#x691;" horiz-adv-x="771" arabic-form="final" 
d="M154 188v818h286v-428q0 -162 51 -255q61 -112 198 -112h132v-256h-140q-223 4 -247 42q-9 -295 -498 -592l-136 224q354 215 354 559zM115 1239v323h105v-178q35 24 96 39q24 6 46 6q39 0 75 -18q58 -29 58 -102v-169h-405v99h25zM220 1272v-33h169v70q0 13 -4 15l-3 2
q-3 1 -6 1l-12 2q-7 -1 -15 -2q-55 -8 -129 -55z" />
    <glyph glyph-name="uniFB8F" unicode="&#x6a9;" horiz-adv-x="2701" arabic-form="final" 
d="M446 930l146 -235q-156 -94 -156 -234q0 -106 73 -177q75 -73 197 -73h1445v108q0 100 -95 173q-113 84 -312 84h-826v234l1119 763l148 -218l-767 -524h320q292 0 492 -141q205 -149 205 -371v-108h316v-256h-2070q-231 0 -385 150q-146 144 -146 356q0 292 296 469z
" />
    <glyph glyph-name="uniFB90" unicode="&#x6a9;" horiz-adv-x="1963" arabic-form="initial" 
d="M-20 -45v256h1549v108q0 101 -95 173q-112 84 -312 84h-826v235l1119 762l148 -218l-767 -524h320q292 0 490 -141q207 -148 207 -371v-364h-1833z" />
    <glyph glyph-name="uniFB91" unicode="&#x6a9;" horiz-adv-x="2072" arabic-form="medial" 
d="M-20 211h1545v108q0 101 -95 173q-112 84 -312 84h-826v235l1119 762l148 -218l-767 -524h320q292 0 492 -140q205 -149 205 -372v-108h313v-256h-2142v256z" />
    <glyph glyph-name="uniFB93" unicode="&#x6af;" horiz-adv-x="2701" arabic-form="final" 
d="M150 461q0 292 296 469l146 -235q-156 -94 -156 -234q0 -106 73 -177q75 -73 197 -73h1445v108q0 100 -95 173q-113 84 -312 84h-826v234l1119 763l148 -218l-767 -524h320q292 0 492 -141q205 -149 205 -371v-108h316v-256h-2070q-231 0 -385 150q-146 144 -146 356z
M1889 1738l82 -136l-1015 -678l-83 136z" />
    <glyph glyph-name="uniFB94" unicode="&#x6af;" horiz-adv-x="1963" arabic-form="initial" 
d="M-20 211h1549v108q0 101 -95 173q-112 84 -312 84h-826v235l1119 762l148 -218l-767 -524h320q292 0 490 -141q207 -148 207 -371v-364h-1833v256zM253 1060l1016 678l82 -136l-1015 -678z" />
    <glyph glyph-name="uniFB95" unicode="&#x6af;" horiz-adv-x="2072" arabic-form="medial" 
d="M-20 211h1545v108q0 101 -95 173q-112 84 -312 84h-826v235l1119 762l148 -218l-767 -524h320q292 0 492 -140q205 -149 205 -372v-108h313v-256h-2142v256zM253 1060l1016 678l82 -136l-1015 -678z" />
    <glyph glyph-name="uniFC5E" unicode="&#xfc5e;" arabic-form="isolated" 
d="M-100 503q-15 -28 12 -43q8 -5 17 -2t15 15q6 11 2 24q-3 11 -14 19q-6 2 -10 2q-13 0 -22 -15zM145 503q-15 -28 12 -43q8 -5 17 -2q8 3 16 15q5 11 2 24q-5 12 -14 19q-6 2 -10 2q-14 0 -23 -15zM99 281h113v-127q0 -29 -12 -55t-32 -45.5t-46 -30.5t-55 -11
q-40 0 -57 13q-16 -20 -44.5 -27.5t-52.5 -7.5q-52 0 -87 32.5t-35 85.5v127h113v-127q0 -11 4 -12q3 -3 7 -2q29 5 29 37v127h114v-127q0 -10 4 -13q2 -2 6 -1q31 4 31 37v127zM34 517q6 -19 2.5 -38.5t-6.5 -31.5q-12 -43 -36 -73q26 -2 48 -1.5t39 2.5q19 3 34 7
q12 0 -6 9q-21 12 -34 29t-19 37.5t-3.5 42t12.5 40.5q16 27 44 42.5t60 15.5q38 0 68.5 -21.5t41.5 -59.5q6 -19 3 -38.5t-7 -31.5q-26 -89 -98 -123t-145 -34q-24 0 -60 6l8 61q-18 -16 -41.5 -29t-49.5 -21t-52 -12.5t-50 -4.5t-60 6l10 79q28 -3 52.5 -2.5t42 2.5
t28 4.5l10.5 2.5q10 0 -6 9q-21 12 -34.5 29t-19 37.5t-3.5 42t13 40.5q16 27 44 42.5t60 15.5q38 0 68.5 -21.5t41.5 -59.5z" />
    <glyph glyph-name="uniFC5F" unicode="&#xfc5f;" arabic-form="isolated" 
d="M-206 419v127h114v-127q0 -10 3 -12q2 -2 5 -2h2q29 4 29 37v127h114v-127q0 -10 4 -13q2 -1 4 -1h3q30 4 30 37v127h113v-127q0 -50 -35 -91.5t-90 -48.5q-13 -2 -20 -2q-39 0 -57 13q-23 -27 -77 -34q-12 -1 -20 -1q-47 0 -82 29q-40 35 -40 89zM-224 205l435 105
l22 -91l-435 -105zM-224 74l435 105l22 -91l-435 -105z" />
    <glyph glyph-name="uniFC60" unicode="&#xfc60;" arabic-form="isolated" 
d="M-96 235v-127q0 -10 4 -12q2 -2 5 -2h2q29 4 29 37v127h114v-127q0 -10 4 -13q1 -1 4 -1h2q30 4 30 37v127h113v-127q0 -50 -35 -91.5t-89 -48.5q-13 -2 -20 -2q-39 0 -57 13q-23 -27 -77 -34q-12 -1 -20 -1q-48 0 -83 29q-40 35 -40 89v127h114zM208 483l22 -91
l-436 -105l-22 91z" />
    <glyph glyph-name="uniFC61" unicode="&#xfc61;" arabic-form="isolated" 
d="M-209 235h113v-127q0 -10 4 -12q2 -2 5 -2h2q29 4 29 37v127h114v-127q0 -10 4 -13q1 -1 4 -1h2q31 4 31 37v127h113v-127q0 -50 -35.5 -91.5t-89.5 -48.5q-13 -2 -20 -2q-39 0 -57 13q-23 -27 -77 -34q-12 -1 -20 -1q-48 0 -83 29q-39 35 -39 89v127zM-168 306l10 79
q28 -3 52 -3t43 3l38 7q5 0 5 1q0 3 -11 8q-41 23 -49 52.5t-8 45.5q0 26 13 51q23 40 55 49t49 9q29 0 56 -14q42 -23 54 -67q4 -13 4 -26q0 -6 -2 -19t-6 -25q-25 -89 -98.5 -123t-144.5 -34q-24 0 -60 6zM17 470q5 -3 10 -3q4 0 7 1q9 3 16 15q3 6 3 14q0 5 -1 10
q-4 12 -14 19q-5 2 -10 2q-14 0 -23 -15q-5 -10 -5 -18q0 -15 17 -25z" />
    <glyph glyph-name="uniFC62" unicode="&#xfc62;" arabic-form="isolated" 
d="M-97 438v-127q0 -10 4 -12q2 -2 5 -2h2q29 4 29 37v127h114v-127q0 -10 4 -13q1 -1 4 -1h2q30 4 30 37v127h113v-127q0 -50 -35 -91.5t-89 -48.5q-13 -2 -20 -2q-39 0 -57 13q-23 -27 -77 -34q-12 -1 -20 -1q-48 0 -83 29q-40 35 -40 89v127h114zM207 179l22 -91
l-436 -105l-22 91z" />
    <glyph glyph-name="uniFE82" unicode="&#x622;" horiz-adv-x="701" arabic-form="final" 
d="M437 1581v-1325q0 -45 40 -45h271l3 -256h-280q-142 0 -231 84q-90 84 -90 217v1325h287zM-55 1843q54 47 84 63q41 21 91 30q26 4 50 4q27 0 52 -5q34 -7 68 -26l24 -17q36 -21 67 -21q5 0 10 1q41 7 89 53l46 46l115 -127l-54 -54l-17 -15q-21 -16 -39 -27
q-50 -32 -113 -43q-25 -5 -49 -5q-47 0 -88 17q-15 6 -34 16l-44 29q-14 8 -34 8q-9 0 -20 -2q-38 -7 -90 -52z" />
    <glyph glyph-name="uniFE84" unicode="&#x623;" horiz-adv-x="701" arabic-form="final" 
d="M150 256v1325h287v-1325q0 -45 40 -45h271l3 -256h-280q-142 0 -231 84q-90 84 -90 217zM74 1701v152h56q-5 11 -5 28q0 27 12 69q21 77 92 118q46 26 95 26q28 0 56 -8q78 -22 134 -118l-136 -75q-23 40 -40 45q-7 2 -13 2q-11 0 -20 -5q-14 -8 -18 -25q-2 -7 -2 -14
q0 -10 5 -19q12 -22 37 -24h192v-152h-445z" />
    <glyph glyph-name="uniFE86" unicode="&#x624;" horiz-adv-x="1534" arabic-form="final" 
d="M312 902q165 165 400 165q233 0 398 -165q162 -164 162 -392v-299h312v-256h-335q-38 -147 -218 -267q-214 -147 -598 -147v256q263 0 401 66q118 59 129 92h-251q-235 0 -398 163q-164 164 -164 392t162 392zM434 510q0 -125 83 -213q79 -86 195 -86h276v299
q0 127 -83 215q-79 86 -193 86q-116 0 -195 -86q-83 -88 -83 -215zM556 1372q-5 11 -5 28q0 27 12 69q21 77 92 118q46 26 95 26q28 0 56 -8q78 -22 134 -118l-136 -75q-23 40 -40 45q-7 2 -13 2q-11 0 -20 -5q-14 -8 -18 -25q-2 -7 -2 -14q0 -10 5 -19q12 -22 37 -24h192
v-152h-445v152h56z" />
    <glyph glyph-name="uniFE88" unicode="&#x625;" horiz-adv-x="701" arabic-form="final" 
d="M150 256v1325h287v-1325q0 -45 40 -45h271l3 -256h-280q-142 0 -231 84q-90 84 -90 217zM163 -382h56q-5 11 -5 28q0 27 12 69q21 77 92 118q46 26 95 26q28 0 56 -8q78 -22 134 -118l-136 -75q-23 40 -40 45q-7 2 -13 2q-11 0 -20 -5q-14 -8 -18 -25q-2 -7 -2 -14
q0 -10 5 -19q12 -22 37 -24h192v-152h-445v152z" />
    <glyph glyph-name="uniFE8A" unicode="&#x626;" horiz-adv-x="2045" arabic-form="final" 
d="M192 257q45 154 221 322l184 -194q-151 -140 -151 -266q0 -40 16 -79q53 -134 225 -220q179 -90 406 -90q168 0 278 59q102 54 127 148q8 27 8 54q0 33 -12 65q-21 56 -67 83q-65 42 -169 114l-102 72l149 218l248 -173q76 -49 134 -81q147 -76 260 -78h148v-256h-148
q-119 0 -167 18v-6q0 -26 -18 -97q-52 -187 -235 -293q-175 -103 -434 -103q-311 0 -552 129q-247 128 -331 343q-35 91 -35 182q0 64 17 129zM311 852q-5 11 -5 28q0 27 12 69q21 77 92 118q46 26 95 26q28 0 56 -8q78 -22 134 -118l-136 -75q-23 40 -40 45q-7 2 -13 2
q-11 0 -20 -5q-14 -8 -18 -25q-2 -7 -2 -14q0 -10 5 -19q12 -22 37 -24h192v-152h-445v152h56z" />
    <glyph glyph-name="uniFE8B" unicode="&#x626;" horiz-adv-x="745" arabic-form="initial" 
d="M-20 -45v256h308v792h287v-1048h-595zM155 1159v152h56q-5 11 -5 28q0 27 12 69q21 77 92 118q46 26 95 26q28 0 56 -8q78 -22 134 -118l-136 -75q-23 40 -40 45q-7 2 -13 2q-11 0 -20 -5q-14 -8 -18 -25q-2 -7 -2 -14q0 -10 5 -19q12 -22 37 -24h192v-152h-445z" />
    <glyph glyph-name="uniFE8C" unicode="&#x626;" horiz-adv-x="840" arabic-form="medial" 
d="M-20 -45v256h270v792h285v-428q0 -161 52 -254q62 -110 197 -110h106v-256h-110q-223 2 -245 36v-36h-555zM211 1311q-5 11 -5 28q0 27 12 69q21 77 92 118q46 26 95 26q28 0 56 -8q78 -22 134 -118l-136 -75q-23 40 -40 45q-7 2 -13 2q-11 0 -20 -5q-14 -8 -18 -25
q-2 -7 -2 -14q0 -10 5 -19q12 -22 37 -24h192v-152h-445v152h56z" />
    <glyph glyph-name="uniFE8E" unicode="&#x627;" horiz-adv-x="701" arabic-form="final" 
d="M150 1581h287v-1325q0 -45 40 -45h271l3 -256h-280q-142 0 -231 84q-90 84 -90 217v1325z" />
    <glyph glyph-name="uniFE90" unicode="&#x628;" horiz-adv-x="1943" arabic-form="final" 
d="M447 931l144 -237q-155 -93 -155 -233q0 -106 73 -177q75 -73 197 -73h695v792h285v-792h307v-256h-1312q-230 0 -385 150q-146 144 -146 356q0 292 297 470zM888 -279q0 61 37 104q44 50 122 50q77 0 120 -49q40 -43 40 -105t-41 -103q-43 -46 -119 -46q-77 0 -121 47
q-38 41 -38 102z" />
    <glyph glyph-name="uniFE91" unicode="&#x628;" horiz-adv-x="725" arabic-form="initial" 
d="M-20 211h308v792h287v-1048h-595v256zM283 -175q44 50 121 50q81 0 122 -50q39 -42 39 -104t-40 -102q-41 -47 -121 -47q-76 0 -120 47q-38 41 -38 102t37 104z" />
    <glyph glyph-name="uniFE92" unicode="&#x628;" horiz-adv-x="840" arabic-form="medial" 
d="M-20 -45v256h270v792h285v-428q0 -161 52 -254q62 -110 197 -110h106v-256h-110h-11q-179 0 -234 66v-66h-555zM208 -279q0 61 37 104q44 50 122 50q77 0 120 -49q40 -43 40 -105t-41 -103q-43 -46 -119 -46q-77 0 -121 47q-38 41 -38 102z" />
    <glyph glyph-name="uniFE94" unicode="&#x629;" horiz-adv-x="1383" arabic-form="final" 
d="M304 839q153 197 408 197h227q16 0 16 23v59h270v-803q0 -42 28 -70q30 -30 67 -34h114v-256h-114q-112 0 -205 49q-79 41 -124 97q-126 -83 -281 -83q-68 0 -134 16q-133 35 -231 135q-99 96 -132 226q-18 71 -18 138q0 165 109 306zM476 459q36 -138 170 -172
q34 -9 66 -9q79 0 148 53q95 73 95 195v245q7 2 7 3q0 2 -23 2h-227q-119 0 -194 -97q-52 -67 -52 -148q0 -35 10 -72zM678 1326q0 58 37 98q39 47 115 47q73 0 114 -47q35 -41 35 -98q0 -58 -36 -97q-41 -44 -113 -44q-76 0 -114 45q-38 40 -38 96zM335 1428q42 47 115 47
t113 -47q38 -40 38 -98q0 -59 -38 -97q-38 -44 -113 -44q-72 0 -114 45q-36 41 -36 96q0 57 35 98z" />
    <glyph glyph-name="uniFE96" unicode="&#x62a;" horiz-adv-x="1943" arabic-form="final" 
d="M447 931l144 -237q-155 -93 -155 -233q0 -106 73 -177q75 -73 197 -73h695v792h285v-792h307v-256h-1312q-230 0 -385 150q-146 144 -146 356q0 292 297 470zM1019 1156q0 58 37 98q39 47 115 47q73 0 114 -47q35 -41 35 -98q0 -58 -36 -97q-41 -44 -113 -44
q-76 0 -114 45q-38 40 -38 96zM676 1258q42 47 115 47t113 -47q38 -40 38 -98q0 -59 -38 -97q-38 -44 -113 -44q-72 0 -114 45q-36 41 -36 96q0 57 35 98z" />
    <glyph glyph-name="uniFE97" unicode="&#x62a;" horiz-adv-x="737" arabic-form="initial" 
d="M-10 -45v256h308v792h287v-1048h-595zM428 1241q0 58 37 98q39 47 115 47q73 0 114 -47q35 -41 35 -98q0 -58 -36 -97q-41 -44 -113 -44q-76 0 -114 45q-38 40 -38 96zM50 1245q0 57 35 98q42 47 115 47t113 -47q38 -40 38 -98q0 -59 -38 -97q-38 -44 -113 -44
q-72 0 -114 45q-36 41 -36 96z" />
    <glyph glyph-name="uniFE98" unicode="&#x62a;" horiz-adv-x="840" arabic-form="medial" 
d="M-20 -45v256h270v792h285v-428q0 -161 52 -254q62 -110 197 -110h106v-256h-110h-11q-179 0 -234 66v-66h-555zM428 1241q0 58 37 98q39 47 115 47q73 0 114 -47q35 -41 35 -98q0 -58 -36 -97q-41 -44 -113 -44q-76 0 -114 45q-38 40 -38 96zM50 1245q0 57 35 98
q42 47 115 47t113 -47q38 -40 38 -98q0 -59 -38 -97q-38 -44 -113 -44q-72 0 -114 45q-36 41 -36 96z" />
    <glyph glyph-name="uniFE9A" unicode="&#x62b;" horiz-adv-x="1943" arabic-form="final" 
d="M447 931l144 -237q-155 -93 -155 -233q0 -106 73 -177q75 -73 197 -73h695v792h285v-792h307v-256h-1312q-230 0 -385 150q-146 144 -146 356q0 292 297 470zM1056 1254q39 47 115 47q73 0 114 -47q35 -41 35 -98q0 -58 -36 -97q-41 -44 -113 -44q-76 0 -114 45
q-38 40 -38 96q0 58 37 98zM816 1455q0 58 37 98q38 47 112 47q76 0 114 -47q38 -40 38 -98q0 -59 -39 -97q-38 -44 -113 -44q-73 0 -111 44q-38 38 -38 97zM641 1160q0 57 35 98q42 47 115 47t113 -47q38 -40 38 -98q0 -59 -38 -97q-38 -44 -113 -44q-72 0 -114 45
q-36 41 -36 96z" />
    <glyph glyph-name="uniFE9B" unicode="&#x62b;" horiz-adv-x="806" arabic-form="initial" 
d="M298 211v792h287v-1048h-595v256h308zM465 1339q39 47 115 47q73 0 114 -47q35 -41 35 -98q0 -58 -36 -97q-41 -44 -113 -44q-76 0 -114 45q-38 40 -38 96q0 58 37 98zM245 1540q0 58 37 98q38 47 112 47q76 0 114 -47q38 -40 38 -98q0 -59 -39 -97q-38 -44 -113 -44
q-73 0 -111 44q-38 38 -38 97zM50 1245q0 57 35 98q42 47 115 47t113 -47q38 -40 38 -98q0 -59 -38 -97q-38 -44 -113 -44q-72 0 -114 45q-36 41 -36 96z" />
    <glyph glyph-name="uniFE9C" unicode="&#x62b;" horiz-adv-x="840" arabic-form="medial" 
d="M-20 -45v256h270v792h285v-428q0 -161 52 -254q62 -110 197 -110h106v-256h-110h-11q-179 0 -234 66v-66h-555zM428 1241q0 58 37 98q39 47 115 47q73 0 114 -47q35 -41 35 -98q0 -58 -36 -97q-41 -44 -113 -44q-76 0 -114 45q-38 40 -38 96zM225 1540q0 58 37 98
q38 47 112 47q76 0 114 -47q38 -40 38 -98q0 -59 -39 -97q-38 -44 -113 -44q-73 0 -111 44q-38 38 -38 97zM85 1343q42 47 115 47t113 -47q38 -40 38 -98q0 -59 -38 -97q-38 -44 -113 -44q-72 0 -114 45q-36 41 -36 96q0 57 35 98z" />
    <glyph glyph-name="uniFE9E" unicode="&#x62c;" horiz-adv-x="1605" arabic-form="final" 
d="M150 -217q0 190 152 310q147 118 371 118h435q-57 77 -57 305q0 124 -79 212q-73 85 -174 85q-67 0 -127 -42q-61 -43 -117 -163l-242 120q85 176 209 256q125 85 277 85q218 0 370 -164q153 -164 153 -389q0 -150 61 -231q57 -74 164 -74h109v-256h-982q-103 0 -168 -41
q-71 -44 -71 -131q0 -96 74 -138q61 -36 168 -38h11q102 0 179 34q30 14 66 38l108 75l152 -214l-73 -53l-43 -28q-53 -31 -103 -53q-131 -55 -294 -55h-6q-232 2 -375 116q-148 120 -148 316zM1169 -237q0 62 40 104q41 48 118 48q80 0 121 -48q40 -42 40 -104
q0 -61 -40 -104q-41 -47 -121 -47q-77 0 -118 47q-40 43 -40 104z" />
    <glyph glyph-name="uniFE9F" unicode="&#x62c;" horiz-adv-x="1459" arabic-form="initial" 
d="M839 211q-51 83 -51 330q0 111 -75 193q-71 79 -172 79q-151 0 -247 -185l-238 126q87 165 213 241q123 74 272 74q217 0 375 -165q154 -160 154 -374q0 -177 68 -260q48 -59 171 -59v-256h-1329v256h859zM616 -185q44 50 121 50q81 0 121 -50q40 -42 40 -104t-41 -102
q-40 -47 -120 -47q-76 0 -120 47q-38 41 -38 102t37 104z" />
    <glyph glyph-name="uniFEA0" unicode="&#x62c;" horiz-adv-x="1361" arabic-form="medial" 
d="M-20 -45v256h858q-51 83 -51 330q0 111 -75 193q-71 79 -172 79q-150 0 -246 -185l-238 126q87 165 213 241q123 74 271 74q218 0 376 -165q153 -160 153 -374q0 -177 68 -260q49 -59 122 -59h152v-256h-1431zM722 -185q41 50 122 50q77 0 121 -50q37 -43 37 -104
t-38 -102q-44 -47 -120 -47q-80 0 -121 47q-40 40 -40 102t39 104z" />
    <glyph glyph-name="uniFEA2" unicode="&#x62d;" horiz-adv-x="1605" arabic-form="final" 
d="M302 93q147 118 371 118h435q-57 77 -57 305q0 124 -79 212q-73 85 -174 85q-67 0 -127 -42q-61 -43 -117 -163l-242 120q85 176 209 256q125 85 277 85q218 0 370 -164q153 -164 153 -389q0 -150 61 -231q57 -74 164 -74h109v-256h-982q-103 0 -168 -41
q-71 -44 -71 -131q0 -96 74 -138q61 -36 168 -38h11q102 0 179 34q30 14 66 38l108 75l152 -214l-73 -53l-43 -28q-53 -31 -103 -53q-131 -55 -294 -55h-6q-232 2 -375 116q-148 120 -148 316q0 190 152 310z" />
    <glyph glyph-name="uniFEA3" unicode="&#x62d;" horiz-adv-x="1459" arabic-form="initial" 
d="M839 211q-51 83 -51 330q0 111 -75 193q-71 79 -172 79q-151 0 -247 -185l-238 126q87 165 213 241q123 74 272 74q217 0 375 -165q154 -160 154 -374q0 -177 68 -260q48 -59 171 -59v-256h-1329v256h859z" />
    <glyph glyph-name="uniFEA4" unicode="&#x62d;" horiz-adv-x="1361" arabic-form="medial" 
d="M-20 -45v256h858q-51 83 -51 330q0 111 -75 193q-71 79 -172 79q-150 0 -246 -185l-238 126q87 165 213 241q123 74 271 74q218 0 376 -165q153 -160 153 -374q0 -177 68 -260q49 -59 122 -59h152v-256h-1431z" />
    <glyph glyph-name="uniFEA6" unicode="&#x62e;" horiz-adv-x="1605" arabic-form="final" 
d="M302 93q147 118 371 118h435q-57 77 -57 305q0 124 -79 212q-73 85 -174 85q-67 0 -127 -42q-61 -43 -117 -163l-242 120q85 176 209 256q125 85 277 85q218 0 370 -164q153 -164 153 -389q0 -150 61 -231q57 -74 164 -74h109v-256h-982q-103 0 -168 -41
q-71 -44 -71 -131q0 -96 74 -138q61 -36 168 -38h11q102 0 179 34q30 14 66 38l108 75l152 -214l-73 -53l-43 -28q-53 -31 -103 -53q-131 -55 -294 -55h-6q-232 2 -375 116q-148 120 -148 316q0 190 152 310zM633 1339q0 62 40 104q41 48 121 48q76 0 121 -48
q37 -43 37 -104t-38 -102q-44 -47 -120 -47q-80 0 -120 47q-41 40 -41 102z" />
    <glyph glyph-name="uniFEA7" unicode="&#x62e;" horiz-adv-x="1459" arabic-form="initial" 
d="M-20 211h859q-51 83 -51 330q0 111 -75 193q-71 79 -172 79q-151 0 -247 -185l-238 126q87 165 213 241q123 74 272 74q217 0 375 -165q154 -160 154 -374q0 -177 68 -260q48 -59 171 -59v-256h-1329v256zM383 1341q0 62 40 104q41 48 118 48q80 0 121 -48
q40 -42 40 -104q0 -61 -40 -104q-41 -47 -121 -47q-77 0 -118 47q-40 43 -40 104z" />
    <glyph glyph-name="uniFEA8" unicode="&#x62e;" horiz-adv-x="1361" arabic-form="medial" 
d="M-20 -45v256h858q-51 83 -51 330q0 111 -75 193q-71 79 -172 79q-150 0 -246 -185l-238 126q87 165 213 241q123 74 271 74q218 0 376 -165q153 -160 153 -374q0 -177 68 -260q49 -59 122 -59h152v-256h-1431zM423 1445q41 48 118 48q80 0 121 -48q40 -42 40 -104
q0 -61 -40 -104q-41 -47 -121 -47q-77 0 -118 47q-40 43 -40 104q0 62 40 104z" />
    <glyph glyph-name="uniFEAA" unicode="&#x62f;" horiz-adv-x="1399" arabic-form="final" 
d="M149 -45l1 256h647v113q0 60 -8 108q-9 67 -34 128q-68 161 -280 293l122 239q252 -158 364 -344q84 -138 110 -295q39 -242 239 -242h139v-256h-139q-207 0 -230 70v-70h-931z" />
    <glyph glyph-name="uniFEAC" unicode="&#x630;" horiz-adv-x="1399" arabic-form="final" 
d="M150 211h647v113q0 60 -8 108q-9 67 -34 128q-68 161 -280 293l122 239q252 -158 364 -344q84 -138 110 -295q39 -242 239 -242h139v-256h-139q-207 0 -230 70v-70h-931zM420 1346q0 60 37 106q45 48 121 48q77 0 121 -48q40 -45 40 -106q0 -62 -41 -103
q-43 -46 -120 -46q-76 0 -120 46q-38 42 -38 103z" />
    <glyph glyph-name="uniFEAE" unicode="&#x631;" horiz-adv-x="771" arabic-form="final" 
d="M154 188v818h286v-428q0 -162 51 -255q61 -112 198 -112h132v-256h-140q-223 4 -247 42q-9 -295 -498 -592l-136 224q354 215 354 559z" />
    <glyph glyph-name="uniFEB0" unicode="&#x632;" horiz-adv-x="771" arabic-form="final" 
d="M-200 -371q354 215 354 559v818h286v-428q0 -162 51 -255q61 -112 198 -112h132v-256h-140q-223 4 -247 42q-9 -295 -498 -592zM137 1278q0 61 40 104q41 47 121 47q76 0 120 -47q38 -44 38 -104t-38 -105q-45 -44 -120 -44q-79 0 -121 44q-40 44 -40 105z" />
    <glyph glyph-name="uniFEB2" unicode="&#x633;" horiz-adv-x="2836" arabic-form="final" 
d="M150 147q0 299 275 520l165 -207q-156 -126 -156 -313q0 -155 103 -261q100 -105 245 -105t244 105q101 106 101 261v732h286v-304q0 -159 50 -254q62 -110 199 -110h46v669h287v-365q9 -137 62 -215q61 -89 185 -89h48v795h287v-795h309v-256h-644q-225 0 -247 33v-33
h-335q-168 0 -256 81q-32 -188 -176 -328q-185 -183 -446 -183q-264 0 -447 181q-185 182 -185 441z" />
    <glyph glyph-name="uniFEB3" unicode="&#x633;" horiz-adv-x="1888" arabic-form="initial" 
d="M-20 -45v256h310v668h285v-304q0 -159 52 -254q60 -110 197 -110h48v668h286v-364q10 -137 63 -215q61 -89 182 -89h51v795h284v-1051h-335q-223 0 -245 33v-33h-334q-228 0 -249 34v-34h-595z" />
    <glyph glyph-name="uniFEB4" unicode="&#x633;" horiz-adv-x="2002" arabic-form="medial" 
d="M-20 -45v256h311v668h285v-304q0 -159 52 -254q60 -110 197 -110h48v668h286v-364q10 -137 63 -215q61 -89 182 -89h51v795h284v-795h313v-256h-648q-223 0 -245 33v-33h-334q-228 0 -249 34v-34h-596z" />
    <glyph glyph-name="uniFEB6" unicode="&#x634;" horiz-adv-x="2836" arabic-form="final" 
d="M150 147q0 299 275 520l165 -207q-156 -126 -156 -313q0 -155 103 -261q100 -105 245 -105t244 105q101 106 101 261v732h286v-304q0 -159 50 -254q62 -110 199 -110h46v669h287v-365q9 -137 62 -215q61 -89 185 -89h48v795h287v-795h309v-256h-644q-225 0 -247 33v-33
h-335q-168 0 -256 81q-32 -188 -176 -328q-185 -183 -446 -183q-264 0 -447 181q-185 182 -185 441zM1937 1353q39 47 115 47q73 0 114 -47q35 -41 35 -98q0 -58 -36 -97q-41 -44 -113 -44q-76 0 -114 45q-38 40 -38 96q0 58 37 98zM1697 1554q0 58 37 98q38 47 112 47
q76 0 114 -47q38 -40 38 -98q0 -59 -39 -97q-38 -44 -113 -44q-73 0 -111 44q-38 38 -38 97zM1522 1259q0 57 35 98q42 47 115 47t113 -47q38 -40 38 -98q0 -59 -38 -97q-38 -44 -113 -44q-72 0 -114 45q-36 41 -36 96z" />
    <glyph glyph-name="uniFEB7" unicode="&#x634;" horiz-adv-x="1888" arabic-form="initial" 
d="M290 211v668h285v-304q0 -159 52 -254q60 -110 197 -110h48v668h286v-364q10 -137 63 -215q61 -89 182 -89h51v795h284v-1051h-335q-223 0 -245 33v-33h-334q-228 0 -249 34v-34h-595v256h310zM1041 1255q0 58 37 98q39 47 115 47q73 0 114 -47q35 -41 35 -98
q0 -58 -36 -97q-41 -44 -113 -44q-76 0 -114 45q-38 40 -38 96zM875 1652q38 47 112 47q76 0 114 -47q38 -40 38 -98q0 -59 -39 -97q-38 -44 -113 -44q-73 0 -111 44q-38 38 -38 97q0 58 37 98zM663 1259q0 57 35 98q42 47 115 47t113 -47q38 -40 38 -98q0 -59 -38 -97
q-38 -44 -113 -44q-72 0 -114 45q-36 41 -36 96z" />
    <glyph glyph-name="uniFEB8" unicode="&#x634;" horiz-adv-x="2002" arabic-form="medial" 
d="M-20 -45v256h311v668h285v-304q0 -159 52 -254q60 -110 197 -110h48v668h286v-364q10 -137 63 -215q61 -89 182 -89h51v795h284v-795h313v-256h-648q-223 0 -245 33v-33h-334q-228 0 -249 34v-34h-596zM1068 1353q39 47 115 47q73 0 114 -47q35 -41 35 -98q0 -58 -36 -97
q-41 -44 -113 -44q-76 0 -114 45q-38 40 -38 96q0 58 37 98zM865 1652q38 47 112 47q76 0 114 -47q38 -40 38 -98q0 -59 -39 -97q-38 -44 -113 -44q-73 0 -111 44q-38 38 -38 97q0 58 37 98zM653 1259q0 57 35 98q42 47 115 47t113 -47q38 -40 38 -98q0 -59 -38 -97
q-38 -44 -113 -44q-72 0 -114 45q-36 41 -36 96z" />
    <glyph glyph-name="uniFEBA" unicode="&#x635;" horiz-adv-x="2824" arabic-form="final" 
d="M425 722l165 -206q-156 -126 -156 -313q0 -156 103 -262q100 -105 245 -105t244 105q101 106 101 262v731h286v-171q254 173 497 231q91 22 176 22q146 0 276 -65q202 -99 202 -363v-377h310v-256h-1514q-57 -148 -214 -261q-163 -114 -364 -114q-264 0 -447 181
q-185 183 -185 442q0 298 275 519zM1413 213h867v375q0 106 -61 140q-10 6 -23 11q-16 6 -38 9q-33 7 -71 7q-32 0 -69 -5q-245 -35 -605 -259v-278z" />
    <glyph glyph-name="uniFEBB" unicode="&#x635;" horiz-adv-x="1891" arabic-form="initial" 
d="M290 211v721h284v-180q262 180 508 240q94 23 181 23q146 0 276 -64q202 -101 202 -363v-633h-1761v256h310zM1455 211v377q0 106 -58 138l-11 6l-14 5q-18 8 -39 11q-30 6 -65 7q-35 -1 -76 -7q-249 -37 -618 -268v-269h881z" />
    <glyph glyph-name="uniFEBC" unicode="&#x635;" horiz-adv-x="1989" arabic-form="medial" 
d="M-20 211h295v721h285v-180q261 180 508 240q94 23 181 23q146 0 276 -64q202 -101 202 -363v-377h312v-256h-2059v256zM560 211h883v377q0 105 -60 138l-12 6l-14 5q-17 8 -38 11q-30 6 -65 7q-36 -1 -77 -7q-249 -37 -617 -268v-269z" />
    <glyph glyph-name="uniFEBE" unicode="&#x636;" horiz-adv-x="2824" arabic-form="final" 
d="M150 203q0 298 275 519l165 -206q-156 -126 -156 -313q0 -156 103 -262q100 -105 245 -105t244 105q101 106 101 262v731h286v-171q254 173 497 231q91 22 176 22q146 0 276 -65q202 -99 202 -363v-377h310v-256h-1514q-57 -148 -214 -261q-163 -114 -364 -114
q-264 0 -447 181q-185 183 -185 442zM2280 213v375q0 106 -61 140q-10 6 -23 11q-16 6 -38 9q-33 7 -71 7q-32 0 -69 -5q-245 -35 -605 -259v-278h867zM1856 1278q0 60 38 104q44 47 121 47q76 0 118 -45t42 -106t-41 -105q-44 -44 -119 -44q-76 0 -121 44q-38 45 -38 105z
" />
    <glyph glyph-name="uniFEBF" unicode="&#x636;" horiz-adv-x="1891" arabic-form="initial" 
d="M290 211v721h284v-180q262 180 508 240q94 23 181 23q146 0 276 -64q202 -101 202 -363v-633h-1761v256h310zM1455 211v377q0 106 -58 138l-11 6l-14 5q-18 8 -39 11q-30 6 -65 7q-35 -1 -76 -7q-249 -37 -618 -268v-269h881zM1038 1382q44 47 121 47q76 0 118 -45
t42 -106t-42 -107q-42 -45 -118 -45q-77 0 -121 48q-38 44 -38 104t38 104z" />
    <glyph glyph-name="uniFEC0" unicode="&#x636;" horiz-adv-x="1989" arabic-form="medial" 
d="M-20 -45v256h295v721h285v-180q261 180 508 240q94 23 181 23q146 0 276 -64q202 -101 202 -363v-377h312v-256h-2059zM560 480v-269h883v377q0 105 -60 138l-12 6l-14 5q-17 8 -38 11q-30 6 -65 7q-36 -1 -77 -7q-249 -37 -617 -268zM1075 1383q40 46 119 46
q77 0 119 -45t42 -106t-41 -105q-44 -44 -120 -44q-78 0 -121 45q-37 44 -37 104t39 105z" />
    <glyph glyph-name="uniFEC2" unicode="&#x637;" horiz-adv-x="1970" arabic-form="final" 
d="M150 -45v256h104v1370h285v-829q261 180 508 240q94 23 181 23q146 0 276 -64q202 -101 202 -363v-377h314v-256h-1870zM1420 211v377q0 106 -58 138l-12 6l-14 5q-17 8 -38 11q-30 6 -65 7q-35 -1 -76 -7q-250 -37 -618 -268v-269h881z" />
    <glyph glyph-name="uniFEC3" unicode="&#x637;" horiz-adv-x="1893" arabic-form="initial" 
d="M-20 -45v256h311v1370h285v-828q259 179 506 239q94 23 182 23q146 0 275 -64q204 -101 204 -363v-633h-1763zM576 211h881v377q0 106 -59 138l-11 6l-14 5q-17 8 -38 11q-31 6 -66 7q-36 -1 -76 -7q-249 -37 -617 -268v-269z" />
    <glyph glyph-name="uniFEC4" unicode="&#x637;" horiz-adv-x="2003" arabic-form="medial" 
d="M-20 -45v256h311v1370h285v-828q259 179 506 239q94 23 182 23q146 0 275 -64q204 -101 204 -363v-377h310v-256h-2073zM1457 211v377q0 106 -59 138l-11 6l-14 5q-17 8 -38 11q-31 6 -66 7q-36 -1 -76 -7q-249 -37 -617 -268v-269h881z" />
    <glyph glyph-name="uniFEC6" unicode="&#x638;" horiz-adv-x="1970" arabic-form="final" 
d="M254 211v1370h285v-829q261 180 508 240q94 23 181 23q146 0 276 -64q202 -101 202 -363v-377h314v-256h-1870v256h104zM539 211h881v377q0 106 -58 138l-12 6l-14 5q-17 8 -38 11q-30 6 -65 7q-35 -1 -76 -7q-250 -37 -618 -268v-269zM804 1382q41 47 119 47
q80 0 121 -47q40 -43 40 -104t-40 -104q-41 -48 -121 -48q-78 0 -119 48q-40 43 -40 104t40 104z" />
    <glyph glyph-name="uniFEC7" unicode="&#x638;" horiz-adv-x="1893" arabic-form="initial" 
d="M291 211v1370h285v-828q259 179 506 239q94 23 182 23q146 0 275 -64q204 -101 204 -363v-633h-1763v256h311zM576 211h881v377q0 106 -59 138l-11 6l-14 5q-17 8 -38 11q-31 6 -66 7q-36 -1 -76 -7q-249 -37 -617 -268v-269zM839 1382q44 47 121 47q76 0 118 -45
t42 -106t-42 -107q-42 -45 -118 -45q-77 0 -121 48q-38 44 -38 104t38 104z" />
    <glyph glyph-name="uniFEC8" unicode="&#x638;" horiz-adv-x="2003" arabic-form="medial" 
d="M291 211v1370h285v-828q259 179 506 239q94 23 182 23q146 0 275 -64q204 -101 204 -363v-377h310v-256h-2073v256h311zM576 211h881v377q0 106 -59 138l-11 6l-14 5q-17 8 -38 11q-31 6 -66 7q-36 -1 -76 -7q-249 -37 -617 -268v-269zM839 1382q44 47 121 47
q76 0 118 -45t42 -106t-42 -107q-42 -45 -118 -45q-77 0 -121 48q-38 44 -38 104t38 104z" />
    <glyph glyph-name="uniFECA" unicode="&#x639;" horiz-adv-x="1811" arabic-form="final" 
d="M1018 852q-142 -6 -188 -23q11 -4 109 -108q19 -20 37 -43t37 -51l77 -121q176 122 174 251q0 22 -14 36.5t-31 25.5q-70 41 -201 33zM1861 -45h-256q-389 0 -577 197l-30 -16q-54 -31 -202 -82q-97 -35 -165 -65t-106 -56q-91 -61 -91 -146q0 -48 24.5 -83t62 -57.5
t82.5 -33t86 -10.5q60 1 112 11t98 29q17 8 36.5 18.5t39.5 23.5l35 21l75 59l154 -216l-75 -56l-46 -30q-97 -60 -202 -88t-220 -28h-7q-230 1 -383 124q-156 126 -156 316q0 102 41.5 178.5t108.5 133t150 97t167 70.5l43 18l42 14q126 45 161 64q-1 3 -23 36
q-91 154 -155 195q-66 42 -193 42q-59 0 -131 -9l-85 219q85 57 178 106t191 84.5t200.5 55.5t206.5 20q173 0 299 -66q198 -104 199 -284q3 -250 -290 -460q98 -90 345 -90h256v-256z" />
    <glyph glyph-name="uniFECB" unicode="&#x639;" horiz-adv-x="1513" arabic-form="initial" 
d="M-20 -45v256h393q-5 9 -13 23q-73 128 -73 265q0 75 22 153q61 212 270 332q131 74 271 74q76 0 155 -22q225 -61 358 -299l-233 -132q-84 152 -199 184q-38 11 -76 11q-71 0 -138 -41q-122 -74 -138 -171q-6 -39 -6 -75q0 -88 35 -156q52 -101 173 -136q33 -10 74 -10
h491v-256h-1366z" />
    <glyph glyph-name="uniFECC" unicode="&#x639;" horiz-adv-x="1747" arabic-form="medial" 
d="M941 846q-153 -8 -195 -23q6 -2 107 -103q37 -39 78 -94l63 -91q47 -72 47 -73v0v0q7 5 47 45q112 114 112 232v4v9l-2 10q-1 9 -5 18q-8 18 -36 33q-64 34 -175 34q-20 0 -41 -1zM1797 -45h-276q-337 9 -524 169q-306 -165 -767 -169h-250v256h251q354 4 581 115l-45 69
q-99 148 -166 189t-194 41q-67 0 -150 -11l-84 222q293 191 603 244q114 19 213 19q169 0 295 -55q198 -88 200 -294v-4q0 -214 -200 -418q-44 -45 -47 -48q100 -69 318 -69h242v-256z" />
    <glyph glyph-name="uniFECE" unicode="&#x63a;" horiz-adv-x="1811" arabic-form="final" 
d="M1018 852q-142 -6 -188 -23q11 -4 109 -108q19 -20 37 -43t37 -51l77 -121q176 122 174 251q0 22 -14 36.5t-31 25.5q-70 41 -201 33zM1861 -45h-256q-389 0 -577 197l-30 -16q-54 -31 -202 -82q-97 -35 -165 -65t-106 -56q-91 -61 -91 -146q0 -48 24.5 -83t62 -57.5
t82.5 -33t86 -10.5q60 1 112 11t98 29q17 8 36.5 18.5t39.5 23.5l35 21l75 59l154 -216l-75 -56l-46 -30q-97 -60 -202 -88t-220 -28h-7q-230 1 -383 124q-156 126 -156 316q0 102 41.5 178.5t108.5 133t150 97t167 70.5l43 18l42 14q126 45 161 64q-1 3 -23 36
q-91 154 -155 195q-66 42 -193 42q-59 0 -131 -9l-85 219q85 57 178 106t191 84.5t200.5 55.5t206.5 20q173 0 299 -66q198 -104 199 -284q3 -250 -290 -460q98 -90 345 -90h256v-256zM846 1343q0 72 44.5 112t114.5 40q35 0 64 -10.5t50.5 -30t33.5 -47.5t12 -64
q0 -35 -12 -63t-33.5 -47.5t-50.5 -30t-64 -10.5q-34 0 -63.5 10.5t-50.5 30t-33 47.5t-12 63z" />
    <glyph glyph-name="uniFECF" unicode="&#x63a;" horiz-adv-x="1513" arabic-form="initial" 
d="M-20 -45v256h393q-5 9 -13 23q-73 128 -73 265q0 75 22 153q61 212 270 332q131 74 271 74q76 0 155 -22q225 -61 358 -299l-233 -132q-84 152 -199 184q-38 11 -76 11q-71 0 -138 -41q-122 -74 -138 -171q-6 -39 -6 -75q0 -88 35 -156q52 -101 173 -136q33 -10 74 -10
h491v-256h-1366zM648 1341q0 62 40 104q41 48 120 48q77 0 121 -48q38 -43 38 -104q0 -60 -38 -104q-45 -45 -121 -45q-78 0 -120 45q-40 43 -40 104z" />
    <glyph glyph-name="uniFED0" unicode="&#x63a;" horiz-adv-x="1747" arabic-form="medial" 
d="M766 1341q0 62 40 104q41 48 118 48q80 0 121 -48q40 -42 40 -104t-40 -102q-41 -47 -121 -47q-77 0 -118 47q-40 40 -40 102zM941 846q-153 -8 -195 -23q6 -2 107 -103q37 -39 78 -94l63 -91q47 -72 47 -73v0v0q7 5 47 45q112 114 112 232v4v9l-2 10q-1 9 -5 18
q-8 18 -36 33q-64 34 -175 34q-20 0 -41 -1zM1797 -45h-276q-337 9 -524 169q-306 -165 -767 -169h-250v256h251q354 4 581 115l-45 69q-99 148 -166 189t-194 41q-67 0 -150 -11l-84 222q293 191 603 244q114 19 213 19q169 0 295 -55q198 -88 200 -294v-4
q0 -214 -200 -418q-44 -45 -47 -48q100 -69 318 -69h242v-256z" />
    <glyph glyph-name="uniFED2" unicode="&#x641;" horiz-adv-x="2438" arabic-form="final" 
d="M447 933l144 -239q-155 -93 -155 -231q0 -108 73 -179q75 -73 197 -73h427q-80 86 -80 301q0 228 164 392q163 163 396 163t400 -164q162 -163 162 -391v-301h313v-256h-1807q-230 0 -385 150q-146 146 -146 358q0 292 297 470zM1335 512q0 -129 79 -215q77 -86 199 -86
h276v301q0 125 -81 213q-79 86 -195 86t-195 -86q-83 -88 -83 -213zM1455 1341q0 63 37 107q45 47 121 47q77 0 119 -45t42 -109q0 -59 -42 -104t-119 -45q-76 0 -120 47q-38 41 -38 102z" />
    <glyph glyph-name="uniFED3" unicode="&#x641;" horiz-adv-x="1559" arabic-form="initial" 
d="M-20 211h386q-79 86 -79 299q0 230 164 394q163 163 396 163t396 -163q164 -164 164 -394l2 -555h-1429v256zM648 297q77 -86 197 -86h277v299q0 127 -80 215q-79 86 -195 86t-198 -86q-82 -88 -82 -215t81 -213zM727 1449q40 46 120 46q76 0 121 -48q37 -46 37 -104
q0 -60 -37 -104q-45 -47 -121 -47q-80 0 -121 48q-38 40 -38 103q0 61 39 106z" />
    <glyph glyph-name="uniFED4" unicode="&#x641;" horiz-adv-x="1669" arabic-form="medial" 
d="M-20 211h387q-80 86 -80 301q0 228 165 392q162 163 395 163t396 -163q164 -164 164 -392v-301h312v-256h-1739v256zM648 297q78 -86 197 -86h278v301q0 125 -81 213q-79 86 -195 86t-197 -86q-82 -88 -82 -213q0 -129 80 -215zM728 1449q40 46 119 46q77 0 122 -48
q37 -46 37 -104q0 -60 -38 -104q-44 -47 -121 -47q-79 0 -120 48q-38 40 -38 103q0 61 39 106z" />
    <glyph glyph-name="uniFED6" unicode="&#x642;" horiz-adv-x="2076" arabic-form="final" 
d="M340 729l189 -207q-100 -160 -100 -328q0 -238 166.5 -404.5t399.5 -166.5q234 0 399 166q77 77 118 166h-260q-233 2 -395 165q-163 164 -163 392t163 390q164 165 397 165t396 -163q164 -164 164 -392q0 -40 2 -114v-185h310v-258h-319q-2 -12 -6 -24
q-60 -184 -208 -332q-246 -246 -598 -246q-351 0 -598 247t-247 594q0 273 190 535zM1056 298q77 -85 198 -87h276v301q0 127 -80 213t-196 86t-195 -86q-80 -86 -80 -213t77 -214zM949 1462q42 47 119 47q80 0 121 -47q40 -43 40 -104t-40 -104q-40 -48 -121 -48
q-77 0 -119 48q-39 43 -39 104t39 104zM1279 1358q0 60 38 105q45 46 121 46t120 -46q41 -44 41 -105t-41 -105q-45 -45 -120 -45q-78 0 -121 46q-38 44 -38 104z" />
    <glyph glyph-name="uniFED7" unicode="&#x642;" horiz-adv-x="1559" arabic-form="initial" 
d="M-20 211h386q-79 86 -79 299q0 230 164 394q163 163 396 163t396 -163q164 -164 164 -394l2 -555h-1429v256zM567 510q0 -127 81 -213q77 -86 197 -86h277v299q0 127 -80 215q-79 86 -195 86t-198 -86q-82 -88 -82 -215zM503 1358q0 61 39 104q42 47 119 47q80 0 121 -47
q40 -43 40 -104t-40 -104q-40 -48 -121 -48q-77 0 -119 48q-39 43 -39 104zM872 1358q0 60 38 105q45 46 121 46t120 -46q41 -44 41 -105t-41 -105q-45 -45 -120 -45q-78 0 -121 46q-38 44 -38 104z" />
    <glyph glyph-name="uniFED8" unicode="&#x642;" horiz-adv-x="1669" arabic-form="medial" 
d="M-20 -45v256h387q-80 86 -80 301q0 228 165 392q162 163 395 163t396 -163q164 -164 164 -392v-301h312v-256h-1739zM568 512q0 -129 80 -215q78 -86 197 -86h278v301q0 125 -81 213q-79 86 -195 86t-197 -86q-82 -88 -82 -213zM542 1462q42 47 119 47q80 0 121 -47
q40 -43 40 -104t-40 -104q-40 -48 -121 -48q-77 0 -119 48q-39 43 -39 104t39 104zM872 1358q0 60 38 105q45 46 121 46t120 -46q41 -44 41 -105t-41 -105q-45 -45 -120 -45q-78 0 -121 46q-38 44 -38 104z" />
    <glyph glyph-name="uniFEDA" unicode="&#x643;" horiz-adv-x="2007" arabic-form="final" 
d="M443 931l144 -237q-155 -93 -155 -233q0 -106 73 -177q75 -73 197 -73h695v1373h285v-1010q2 -162 54 -253q60 -110 195 -110h126v-256h-126q-225 0 -249 37v-37h-1005q-230 0 -385 150q-146 144 -146 356q0 294 297 470zM750 600v152h56q-5 11 -5 28q0 27 12 69
q21 77 92 118q46 26 95 26q28 0 56 -8q78 -22 134 -118l-136 -75q-23 40 -40 45q-7 2 -13 2q-11 0 -20 -5q-14 -8 -18 -25q-2 -7 -2 -14q0 -10 5 -19q12 -22 37 -24h192v-152h-445z" />
    <glyph glyph-name="uniFEDB" unicode="&#x643;" horiz-adv-x="1843" arabic-form="initial" 
d="M-20 -45v256h1429v108q0 101 -95 173q-112 84 -312 84h-826v235l1119 762l148 -218l-767 -524h320q292 0 490 -141q207 -148 207 -371v-364h-1713z" />
    <glyph glyph-name="uniFEDC" unicode="&#x643;" horiz-adv-x="1889" arabic-form="medial" 
d="M-20 211h1429v108q0 101 -95 173q-112 84 -312 84h-826v235l1119 762l148 -218l-767 -524h320q292 0 492 -140q205 -149 205 -372v-108h246v-256h-1959v256z" />
    <glyph glyph-name="uniFEDE" unicode="&#x644;" horiz-adv-x="1759" arabic-form="final" 
d="M505 828l168 -205q-239 -190 -239 -424q0 -194 106 -316q108 -123 283 -123q174 0 288 129q114 127 114 320v364h-2v1002h287v-1000q0 -161 52 -254q62 -110 247 -110v-256q-280 0 -313 53q-8 -124 -196 -310q-195 -194 -475 -194q-296 0 -487 205q-188 196 -188 490
q0 343 355 629z" />
    <glyph glyph-name="uniFEDF" unicode="&#x644;" horiz-adv-x="725" arabic-form="initial" 
d="M288 1580h287v-1625h-595v256h308v1369z" />
    <glyph glyph-name="uniFEE0" unicode="&#x644;" horiz-adv-x="910" arabic-form="medial" 
d="M-20 211h310v1373h285v-1009q0 -161 52 -254q62 -110 197 -110h106v-256h-110h-11q-179 0 -234 66v-66h-595v256z" />
    <glyph glyph-name="uniFEE2" unicode="&#x645;" horiz-adv-x="1903" arabic-form="final" 
d="M150 -752v619q0 196 106 283q41 35 95 51q38 10 80 10h14l16 2q22 3 38 8q26 9 26 27v239q0 229 164 391q165 164 398 164t396 -162q164 -164 164 -393q0 -114 -37 -201q13 -21 15 -24q30 -49 140 -49h188v-258h-248q-190 0 -257 103q-121 -128 -361 -128t-358 125
q-58 -104 -297 -104q-12 -18 -12 -84v-619h-270zM892 272q79 -86 195 -86t195 87q82 87 82 214q0 125 -82 213q-79 86 -195 86t-195 -86q-81 -87 -81 -213q0 -127 81 -215z" />
    <glyph glyph-name="uniFEE3" unicode="&#x645;" horiz-adv-x="1562" arabic-form="initial" 
d="M-20 -45v256h216q6 0 30 2.5t40 7.5q26 9 26 27v237q0 231 164 395q163 162 396 162t396 -162q164 -164 164 -395q0 -228 -164 -392q-163 -163 -396 -163q-242 0 -357 122q-12 -20 -108 -61q-71 -36 -191 -36h-216zM578 485q0 -125 79 -213q79 -84 195 -84t197 87
q81 85 81 210q0 127 -83 215q-79 86 -195 86t-195 -85q-79 -88 -79 -216z" />
    <glyph glyph-name="uniFEE4" unicode="&#x645;" horiz-adv-x="1675" arabic-form="medial" 
d="M-20 -45v256h249q20 3 37 8q26 10 26 27v239q0 231 164 395q163 162 396 162t396 -162q164 -164 164 -395q0 -112 -37 -199q10 -15 28.5 -45t128.5 -30h193v-256h-255q-190 0 -257 103q-121 -128 -361 -128q-242 0 -357 122q-12 -20 -108 -61q-71 -36 -191 -36h-216z
M578 485q0 -125 79 -213q79 -84 195 -84t197 87q81 85 81 210q0 127 -83 215q-79 86 -195 86t-195 -85q-79 -88 -79 -216z" />
    <glyph glyph-name="uniFEE6" unicode="&#x646;" horiz-adv-x="1759" arabic-form="final" 
d="M150 199q0 343 355 629l168 -206q-239 -190 -239 -423q0 -194 106 -317q108 -122 283 -122q174 0 288 129q114 127 114 320v794h285v-428q0 -161 52 -254q61 -110 247 -110v-256q-280 0 -313 52q-8 -124 -198 -311q-193 -192 -473 -192q-296 0 -487 205
q-188 197 -188 490zM730 1145q0 60 37 104q45 47 121 47q77 0 119 -45t42 -106q0 -62 -41 -105q-44 -45 -120 -45q-78 0 -121 46q-37 43 -37 104z" />
    <glyph glyph-name="uniFEE7" unicode="&#x646;" horiz-adv-x="741" arabic-form="initial" 
d="M-20 211h308v792h287v-1048h-595v256zM311 1382q41 47 121 47q76 0 121 -47q38 -44 38 -104t-38 -104q-45 -48 -121 -48q-80 0 -121 48q-40 43 -40 104t40 104z" />
    <glyph glyph-name="uniFEE8" unicode="&#x646;" horiz-adv-x="840" arabic-form="medial" 
d="M-20 -45v256h270v792h285v-428q0 -161 52 -254q62 -110 197 -110h106v-256h-110h-11q-179 0 -234 66v-66h-555zM200 1278q0 61 40 104q41 47 121 47q76 0 120 -47q38 -44 38 -104t-38 -104q-44 -48 -120 -48q-80 0 -121 48q-40 43 -40 104z" />
    <glyph glyph-name="uniFEEA" unicode="&#x647;" horiz-adv-x="1383" arabic-form="final" 
d="M304 839q153 197 408 197h227q16 0 16 23v59h270v-803q0 -42 28 -70q30 -30 67 -34h114v-256h-114q-112 0 -205 49q-79 41 -124 97q-126 -83 -281 -83q-68 0 -134 16q-133 35 -231 135q-99 96 -132 226q-18 71 -18 138q0 165 109 306zM476 459q36 -138 170 -172
q34 -9 66 -9q79 0 148 53q95 73 95 195v245q7 2 7 3q0 2 -23 2h-227q-119 0 -194 -97q-52 -67 -52 -148q0 -35 10 -72z" />
    <glyph glyph-name="uniFEEB" unicode="&#x647;" horiz-adv-x="1739" arabic-form="initial" 
d="M-20 -45v256h454q-30 42 -60 128q-14 38 -21 76q-2 12 -4 28v18q0 178 132 301q129 125 315 125q183 0 313 -125q132 -123 132 -301q0 -12 -2 -23q0 -11 -2 -27q-7 -38 -21 -76q-31 -87 -59 -124h146l-2 371q0 206 -141 351q-145 148 -348 148q-204 0 -389 -191l-194 184
q256 263 583 263q317 0 549 -229q228 -224 228 -526v-627q-400 0 -517 2q-161 2 -276 35q-132 -37 -320 -37h-496zM796 268q157 57 157 193q0 74 -48 124q-44 46 -109 46q-67 0 -112 -46q-49 -51 -49 -124q0 -134 161 -193z" />
    <glyph glyph-name="uniFEEC" unicode="&#x647;" horiz-adv-x="1422" arabic-form="medial" 
d="M-20 -45v256h311v305q0 219 112 364q119 152 303 152q185 0 308 -151q121 -147 121 -365q0 -213 -63 -305h400v-256h-337q26 -36 26 -162q0 -171 -132 -297q-130 -125 -309 -125q-180 0 -304 124q-125 125 -125 298v162h-311zM575 210h131q43 0 86 77q58 95 58 229
q0 121 -49 197q-39 63 -95 63q-54 0 -89 -61q-42 -74 -42 -199v-306zM620 -326q40 -47 100 -47q61 0 108 48q49 49 49 118t-47 116q-46 46 -110 46h-145v-162q0 -70 45 -119z" />
    <glyph glyph-name="uniFEEE" unicode="&#x648;" horiz-adv-x="1534" arabic-form="final" 
d="M312 902q165 165 400 165q233 0 398 -165q162 -164 162 -392v-299h312v-256h-335q-38 -147 -218 -267q-214 -147 -598 -147v256q263 0 401 66q118 59 129 92h-251q-235 0 -398 163q-164 164 -164 392t162 392zM434 510q0 -125 83 -213q79 -86 195 -86h276v299
q0 127 -83 215q-79 86 -193 86q-116 0 -195 -86q-83 -88 -83 -215z" />
    <glyph glyph-name="uniFEF0" unicode="&#x649;" horiz-adv-x="2045" arabic-form="final" 
d="M192 257q45 154 221 322l184 -194q-151 -140 -151 -266q0 -40 16 -79q53 -134 225 -220q179 -90 406 -90q168 0 278 59q102 54 127 148q8 27 8 54q0 33 -12 65q-21 56 -67 83q-65 42 -169 114l-102 72l149 218l248 -173q76 -49 134 -81q147 -76 260 -78h148v-256h-148
q-119 0 -167 18v-6q0 -26 -18 -97q-52 -187 -235 -293q-175 -103 -434 -103q-311 0 -552 129q-247 128 -331 343q-35 91 -35 182q0 64 17 129z" />
    <glyph glyph-name="uniFEF2" unicode="&#x64a;" horiz-adv-x="2045" arabic-form="final" 
d="M192 257q45 154 221 322l184 -194q-151 -140 -151 -266q0 -40 16 -79q53 -134 225 -220q179 -90 406 -90q168 0 278 59q102 54 127 148q8 27 8 54q0 33 -12 65q-21 56 -67 83q-65 42 -169 114l-102 72l149 218l248 -173q76 -49 134 -81q147 -76 260 -78h148v-256h-148
q-119 0 -167 18v-6q0 -26 -18 -97q-52 -187 -235 -293q-175 -103 -434 -103q-311 0 -552 129q-247 128 -331 343q-35 91 -35 182q0 64 17 129zM670 -647q42 47 119 47q80 0 121 -47q40 -43 40 -104t-40 -104q-40 -48 -121 -48q-77 0 -119 48q-39 43 -39 104t39 104z
M1048 -646q45 46 121 46t120 -46q41 -44 41 -105t-41 -105q-45 -45 -120 -45q-78 0 -121 46q-38 44 -38 104t38 105z" />
    <glyph glyph-name="uniFEF3" unicode="&#x64a;" horiz-adv-x="755" arabic-form="initial" 
d="M288 211v792h287v-1048h-595v256h308zM356 -256q0 56 38 96q38 45 114 45q72 0 113 -44q36 -39 36 -97q0 -57 -35 -98q-41 -47 -114 -47q-76 0 -115 47q-37 40 -37 98zM14 -164q42 45 114 45q75 0 113 -44q38 -38 38 -97q0 -58 -38 -98q-40 -47 -113 -47t-115 47
q-35 41 -35 98q0 55 36 96z" />
    <glyph glyph-name="uniFEF4" unicode="&#x64a;" horiz-adv-x="840" arabic-form="medial" 
d="M-20 -45v256h270v792h285v-428q0 -161 52 -254q62 -110 197 -110h106v-256h-110h-11q-179 0 -234 66v-66h-555zM29 -204q42 47 119 47q80 0 121 -47q40 -43 40 -104t-40 -104q-40 -48 -121 -48q-77 0 -119 48q-39 43 -39 104t39 104zM359 -308q0 60 38 105q45 46 121 46
t120 -46q41 -44 41 -105t-41 -105q-45 -45 -120 -45q-78 0 -121 46q-38 44 -38 104z" />
    <glyph glyph-name=".notdef" horiz-adv-x="1024" 
d="M100 1434h824v-1434h-824v1434zM874 50v1334h-724v-1334h724zM325 1103v45q31 28 58 43q53 30 112 30q92 0 148 -47.5t56 -127.5q0 -49 -23 -98.5t-87 -129.5q-63 -80 -99 -132t-36 -99q0 -38 24 -133h-32q-35 97 -35 148q0 76 81.5 218t81.5 217q0 57 -33 90t-91 33
q-38 0 -69 -17q-26 -15 -56 -40zM378 312q0 10 11 22l57 58q11 10 20 10q10 0 22 -11l56 -60q9 -11 9 -20q0 -11 -10 -22l-56 -62q-14 -14 -21 -14q-11 0 -20 10l-61 71q-7 9 -7 18z" />
    <glyph glyph-name=".null" 
 />
    <glyph glyph-name="uni000D" unicode="&#xd;" horiz-adv-x="512" 
 />
    <glyph glyph-name="uni001D" 
 />
    <glyph glyph-name="uni001D" 
 />
    <glyph glyph-name="space" unicode=" " horiz-adv-x="500" 
 />
    <glyph glyph-name="exclam" unicode="!" horiz-adv-x="557" 
d="M131 1456h308l-34 -1009h-240zM124 136q0 66 44.5 109.5t116.5 43.5q73 0 117.5 -43t44.5 -110q0 -66 -44.5 -109t-117.5 -43q-72 0 -116.5 43t-44.5 109z" />
    <glyph glyph-name="quotedbl" unicode="&#x22;" horiz-adv-x="657" 
d="M64 1536h202v-138l-40 -411h-162v549zM390 1536h201v-138l-39 -411h-162v549z" />
    <glyph glyph-name="numbersign" unicode="#" horiz-adv-x="1220" 
d="M321 582l50 284h-232v174h263l73 416h182l-73 -416h194l73 416h183l-73 -416h219v-174h-250l-50 -284h224v-172h-254l-72 -410h-183l72 410h-193l-72 -410h-183l72 410h-227v172h257zM504 582h193l50 284h-194z" />
    <glyph glyph-name="dollar" unicode="$" horiz-adv-x="1175" 
d="M381 457q0 -119 56.5 -182.5t162.5 -63.5q88 0 139 46.5t51 125.5q0 82 -45.5 130.5t-154.5 89.5t-188 81.5t-135.5 93t-88 123.5t-31.5 169q0 169 108 277t287 126v214h160v-217q177 -25 277 -147.5t100 -317.5h-289q0 120 -49.5 179.5t-132.5 59.5q-82 0 -127 -46.5
t-45 -128.5q0 -76 44 -122t163.5 -94t196.5 -90.5t130 -96t81 -122t28 -159.5q0 -170 -106 -276t-292 -125v-199h-159v198q-205 22 -317.5 145.5t-112.5 328.5h289z" />
    <glyph glyph-name="percent" unicode="%" horiz-adv-x="1512" 
d="M879 575q88 82 228 82q142 0 229.5 -81.5t87.5 -224.5v-72q0 -134 -86 -216.5t-229 -82.5q-144 0 -231 83t-87 220v74q0 135 88 218zM95 1105v71q0 134 87 217.5t228 83.5q143 0 230 -82.5t87 -223.5v-72q0 -135 -87 -217t-228 -82q-142 0 -229.5 82.5t-87.5 222.5z
M1039 1323l141 -76l-711 -1138l-141 76zM983 354v-75q0 -55 36 -94t90 -39q122 0 122 135v76q0 60 -34 96.5t-90 36.5t-90 -36.5t-34 -99.5zM287 1099q0 -60 34.5 -96.5t90.5 -36.5t89 37t33 99v74q0 60 -33 97t-91 37q-55 0 -89 -36.5t-34 -101.5v-73z" />
    <glyph glyph-name="ampersand" unicode="&#x26;" horiz-adv-x="1344" 
d="M71 392q0 101 56.5 187t207.5 191q-65 87 -102 163.5t-37 159.5q0 170 107.5 276.5t289.5 106.5q163 0 267.5 -97t104.5 -242q0 -174 -176 -307l-112 -81l251 -292q59 116 59 256h246q0 -284 -131 -460l218 -253h-328l-75 86q-161 -106 -370 -106q-216 0 -346 113.5
t-130 298.5zM417 267q55 -55 144 -55q104 0 197 58l-287 332l-21 -15q-89 -76 -89 -179q0 -87 56 -141zM455 1097q0 -75 88 -189l77 51q59 38 81.5 74t22.5 86t-37 87t-95 37q-62 0 -99.5 -40t-37.5 -106z" />
    <glyph glyph-name="quotesingle" unicode="'" horiz-adv-x="331" 
d="M275 1389l-29 -404h-183v551h212v-147z" />
    <glyph glyph-name="parenleft" unicode="(" horiz-adv-x="719" 
d="M124 539v53q0 229 61 436t180 366.5t258 221.5l56 -156q-146 -108 -228 -334t-82 -528v-31q0 -303 81 -530t229 -339l-56 -153q-136 61 -253.5 215.5t-179.5 356.5t-66 422z" />
    <glyph glyph-name="parenright" unicode=")" horiz-adv-x="722" 
d="M264 28q82 223 85 513v53q0 299 -81.5 527t-227.5 342l56 153q136 -59 256.5 -214t187 -361t69.5 -427v-45q0 -226 -65 -435t-187 -369t-261 -220l-56 153q142 107 224 330z" />
    <glyph glyph-name="asterisk" unicode="*" horiz-adv-x="928" 
d="M341 962l-314 89l59 181l311 -125l-20 349h196l-20 -356l303 123l59 -183l-320 -89l210 -266l-159 -113l-182 292l-180 -282l-159 108z" />
    <glyph glyph-name="plus" unicode="+" horiz-adv-x="1118" 
d="M419 815v391h275v-391h361v-261h-361v-408h-275v408h-362v261h362z" />
    <glyph glyph-name="comma" unicode="," horiz-adv-x="500" 
d="M71 -221q67 122 69 243v224h244l-1 -200q-1 -111 -56 -224t-141 -187l-151 79z" />
    <glyph glyph-name="hyphen" unicode="-" horiz-adv-x="794" 
d="M673 507h-563v233h563v-233z" />
    <glyph glyph-name="period" unicode="." horiz-adv-x="595" 
d="M126 142q0 69 46.5 112t116.5 43q71 0 117.5 -43t46.5 -112q0 -68 -46 -110.5t-118 -42.5q-71 0 -117 42.5t-46 110.5z" />
    <glyph glyph-name="slash" unicode="/" horiz-adv-x="765" 
d="M202 -125h-215l536 1581h215z" />
    <glyph glyph-name="zero" unicode="0" horiz-adv-x="1175" 
d="M95 587v268q0 305 126.5 463t364.5 158t364 -156.5t129 -449.5v-268q0 -302 -125 -462t-366 -160q-238 0 -364 157t-129 450zM433 300q48 -87 155 -87q106 0 153 83t49 254v346q0 181 -49.5 263.5t-154.5 82.5q-102 0 -150.5 -78.5t-51.5 -245.5v-354q0 -178 49 -264z
" />
    <glyph glyph-name="one" unicode="1" horiz-adv-x="1175" 
d="M801 0h-289v1114l-345 -107v235l603 216h31v-1458z" />
    <glyph glyph-name="two" unicode="2" horiz-adv-x="1175" 
d="M134 1241q63 110 179 172.5t263 62.5q225 0 349.5 -108t124.5 -305q0 -108 -56 -220t-192 -261l-331 -349h626v-233h-998v198l471 502q97 106 143.5 185t46.5 150q0 97 -49 152.5t-140 55.5q-98 0 -154.5 -67.5t-56.5 -177.5h-290q0 133 64 243z" />
    <glyph glyph-name="three" unicode="3" horiz-adv-x="1175" 
d="M353 399q0 -82 61.5 -134t151.5 -52q103 0 161.5 54.5t58.5 144.5q0 218 -240 218h-153v226h154q110 0 163 55t53 146q0 88 -52.5 137t-144.5 49q-83 0 -139 -45.5t-56 -118.5h-289q0 114 61.5 204.5t172 141.5t243.5 51q231 0 362 -110.5t131 -304.5q0 -100 -61 -184
t-160 -129q123 -44 183.5 -132t60.5 -208q0 -194 -141.5 -311t-374.5 -117q-218 0 -356.5 115t-138.5 304h289z" />
    <glyph glyph-name="four" unicode="4" horiz-adv-x="1175" 
d="M662 1456h292v-908h165v-233h-165v-315h-289v315h-597l-13 182zM343 548h322v514l-19 -33z" />
    <glyph glyph-name="five" unicode="5" horiz-adv-x="1175" 
d="M105 405h286q9 -91 63.5 -141.5t142.5 -50.5q98 0 151 70.5t53 199.5q0 124 -61 190t-173 66q-103 0 -167 -54l-28 -26l-230 57l84 740h816v-241h-579l-36 -313q103 55 219 55q208 0 326 -129t118 -361q0 -141 -59.5 -252.5t-170.5 -173t-262 -61.5q-132 0 -245 53.5
t-178.5 150.5t-69.5 221z" />
    <glyph glyph-name="six" unicode="6" horiz-adv-x="1175" 
d="M100 671q0 237 89.5 418.5t257 281t388.5 100.5h48v-238h-28q-196 -3 -315.5 -102t-143.5 -275q116 118 293 118q190 0 302 -136t112 -358q0 -142 -61.5 -257t-174 -179t-254.5 -64q-230 0 -371.5 160t-141.5 427v104zM390 521q0 -145 57 -226.5t160 -81.5
q93 0 150.5 73.5t57.5 190.5q0 119 -58 192t-156 73q-70 0 -127 -36.5t-84 -96.5v-88z" />
    <glyph glyph-name="seven" unicode="7" horiz-adv-x="1175" 
d="M1089 1294l-563 -1294h-305l564 1222h-724v234h1028v-162z" />
    <glyph glyph-name="eight" unicode="8" horiz-adv-x="1175" 
d="M157 610q62 90 167 140q-93 49 -145.5 131t-52.5 188q0 186 124 296.5t337 110.5q212 0 336.5 -109.5t124.5 -297.5q0 -106 -53 -188t-146 -131q106 -51 168 -140.5t62 -210.5q0 -194 -132 -306.5t-359 -112.5t-360 113t-133 306q0 121 62 211zM438 270q54 -57 150 -57
q94 0 147.5 55t53.5 152q0 95 -55 152t-148 57q-92 0 -147 -56.5t-55 -152.5q0 -93 54 -150zM461 915q45 -53 127 -53t126.5 53t44.5 140q0 85 -45 136.5t-127 51.5q-81 0 -126 -50t-45 -138q0 -87 45 -140z" />
    <glyph glyph-name="nine" unicode="9" horiz-adv-x="1175" 
d="M86 961q0 143 62.5 262.5t174.5 186t252 66.5q144 0 256 -72t174 -207t63 -309v-107q0 -364 -181 -572t-513 -222l-71 -1v241l64 1q377 17 408 354q-113 -111 -264 -111q-193 0 -309 132.5t-116 357.5zM374 964q0 -119 54.5 -195.5t153.5 -76.5q70 0 120.5 36t76.5 87
v119q0 147 -56 228t-150 81q-87 0 -143 -79.5t-56 -199.5z" />
    <glyph glyph-name="colon" unicode=":" horiz-adv-x="578" 
d="M125 961q0 69 46.5 112t116.5 43q71 0 117.5 -43t46.5 -112q0 -68 -46 -110.5t-118 -42.5q-71 0 -117 42.5t-46 110.5zM125 142q0 69 46.5 112t116.5 43q71 0 117.5 -43t46.5 -112q0 -68 -46 -110.5t-118 -42.5q-71 0 -117 42.5t-46 110.5z" />
    <glyph glyph-name="semicolon" unicode=";" horiz-adv-x="537" 
d="M57 -286l36 65q67 122 69 243v224h244l-1 -200q-1 -111 -56 -224t-141 -187zM108 961q0 69 46.5 112t116.5 43q71 0 117.5 -43t46.5 -112q0 -68 -46 -110.5t-118 -42.5q-71 0 -117 42.5t-46 110.5z" />
    <glyph glyph-name="less" unicode="&#x3c;" horiz-adv-x="1042" 
d="M54 502v236l861 365v-280l-570 -205l570 -201v-280z" />
    <glyph glyph-name="equal" unicode="=" horiz-adv-x="1172" 
d="M1030 982v-236h-894v236h894zM136 313v236h894v-236h-894z" />
    <glyph glyph-name="greater" unicode="&#x3e;" horiz-adv-x="1058" 
d="M120 136v279l581 206l-581 203v278l871 -365v-235z" />
    <glyph glyph-name="question" unicode="?" horiz-adv-x="1019" 
d="M45 1069q2 191 123.5 299t331.5 108q212 0 329 -102.5t117 -289.5q0 -85 -38 -160.5t-133 -167.5l-81 -77q-76 -73 -87 -171l-4 -61h-256q0 140 34 223t124.5 163.5t120.5 131t30 106.5q0 169 -156 169q-74 0 -118.5 -45.5t-46.5 -125.5h-290zM364 251q45 43 116 43
t116.5 -43.5t45.5 -110.5q0 -66 -44.5 -109t-117.5 -43t-117.5 43t-44.5 109q0 67 46 111z" />
    <glyph glyph-name="at" unicode="@" horiz-adv-x="1833" 
d="M87 463q12 276 126 495t310.5 338.5t443.5 119.5q251 0 432 -107.5t266 -296.5t85 -419q0 -28 -1 -57q-11 -256 -126.5 -406.5t-310.5 -150.5q-86 0 -148.5 37t-94.5 106q-100 -140 -261 -140q-146 0 -218 110.5t-72 259.5q0 38 4 78q18 165 83.5 293.5t165.5 197.5
t216 69q143 0 244 -66l63 -43l-51 -578q-3 -21 -3 -40q0 -50 24 -86.5t84 -36.5q92 0 154 107.5t68 281.5q2 34 2 66q0 301 -150 479.5t-459 178.5q-193 0 -344 -98t-238 -278.5t-98 -413.5q-1 -33 -1 -64q0 -308 150.5 -492.5t465.5 -184.5q83 0 174 18.5t157 49.5l38 -154
q-61 -40 -164.5 -64.5t-208.5 -24.5q-264 0 -450 106.5t-272 302t-86 441.5q0 33 1 66zM767 230q34 -69 110 -69q49 0 93 43t73 124l42 473q-39 13 -80 13q-115 0 -178.5 -98t-82.5 -286q-3 -32 -3 -61q0 -88 26 -139z" />
    <glyph glyph-name="A" unicode="A" horiz-adv-x="1378" 
d="M549 1456h278l545 -1456h-319l-101 300h-526l-100 -300h-319zM871 543l-183 545l-181 -545h364z" />
    <glyph glyph-name="B" unicode="B" horiz-adv-x="1307" 
d="M640 1456q265 0 402 -101.5t137 -297.5q0 -107 -55 -188.5t-153 -119.5q112 -28 176.5 -113t64.5 -208q0 -210 -134 -318t-382 -110h-566v1456h510zM430 241h257q106 0 165.5 50.5t59.5 139.5q0 200 -207 203h-275v-393zM430 846h222q227 4 227 181q0 99 -57.5 142.5
t-181.5 43.5h-210v-367z" />
    <glyph glyph-name="C" unicode="C" horiz-adv-x="1340" 
d="M86 775q0 210 74 370t211.5 245.5t319.5 85.5q252 0 406 -135t178 -379h-300q-11 141 -78.5 204.5t-205.5 63.5q-150 0 -224.5 -107.5t-76.5 -333.5v-110q0 -236 71.5 -345t225.5 -109q139 0 207.5 63.5t78.5 196.5h300q-17 -235 -173.5 -370t-412.5 -135
q-280 0 -440.5 188.5t-160.5 517.5v89z" />
    <glyph glyph-name="D" unicode="D" horiz-adv-x="1331" 
d="M578 1456q192 0 343.5 -86.5t236.5 -246t85 -362.5v-67q0 -203 -83.5 -361t-235.5 -245t-343 -88h-451v1456h448zM430 1213v-972h145q176 0 269 115t95 329v77q0 222 -92 336.5t-269 114.5h-148z" />
    <glyph glyph-name="E" unicode="E" horiz-adv-x="1152" 
d="M1104 1456v-243h-674v-347h576v-235h-576v-390h676v-241h-976v1456h974z" />
    <glyph glyph-name="F" unicode="F" horiz-adv-x="1122" 
d="M130 0v1456h948v-243h-648v-376h576v-242h-576v-595h-300z" />
    <glyph glyph-name="G" unicode="G" horiz-adv-x="1395" 
d="M94 671v99q0 218 73.5 377.5t212 244t324.5 84.5q259 0 405 -123.5t173 -359.5h-292q-20 125 -88.5 183t-188.5 58q-153 0 -233 -115t-81 -342v-93q0 -229 87 -346t255 -117q169 0 241 72v251h-273v221h573v-581q-81 -97 -229 -150.5t-328 -53.5q-189 0 -331.5 82.5
t-220 239.5t-79.5 369z" />
    <glyph glyph-name="H" unicode="H" horiz-adv-x="1447" 
d="M130 0v1456h300v-590h585v590h300v-1456h-300v624h-585v-624h-300z" />
    <glyph glyph-name="I" unicode="I" horiz-adv-x="597" 
d="M449 0h-300v1456h300v-1456z" />
    <glyph glyph-name="J" unicode="J" horiz-adv-x="1144" 
d="M40 430h302q0 -107 45 -158t142 -51q86 0 137 59t51 168v1008h300v-1008q0 -139 -61.5 -245.5t-173.5 -164.5t-253 -58q-231 0 -360 117.5t-129 332.5z" />
    <glyph glyph-name="K" unicode="K" horiz-adv-x="1300" 
d="M130 0v1456h300v-660l132 181l371 479h369l-517 -647l532 -809h-357l-374 584l-156 -168v-416h-300z" />
    <glyph glyph-name="L" unicode="L" horiz-adv-x="1109" 
d="M430 241h637v-241h-937v1456h300v-1215z" />
    <glyph glyph-name="M" unicode="M" horiz-adv-x="1794" 
d="M522 1456l374 -1056l372 1056h394v-1456h-301v398l30 687l-393 -1085h-206l-392 1084l30 -686v-398h-300v1456h392z" />
    <glyph glyph-name="N" unicode="N" horiz-adv-x="1446" 
d="M430 1456l585 -960v960h299v-1456h-300l-584 958v-958h-300v1456h300z" />
    <glyph glyph-name="O" unicode="O" horiz-adv-x="1414" 
d="M86 759q0 215 77.5 378.5t219 251t323.5 87.5t323.5 -87.5t219 -251t77.5 -377.5v-65q0 -215 -76 -377t-217.5 -250t-324.5 -88q-181 0 -323 87t-220 248.5t-79 371.5v72zM472 349q82 -123 236 -123q151 0 232 118.5t82 345.5v71q0 229 -82 348t-234 119
q-151 0 -233 -117.5t-83 -344.5v-71q0 -223 82 -346z" />
    <glyph glyph-name="P" unicode="P" horiz-adv-x="1321" 
d="M130 0v1456h568q164 0 288.5 -60t191.5 -170.5t67 -251.5q0 -214 -146.5 -337.5t-405.5 -123.5h-263v-513h-300zM430 756h268q119 0 181.5 56t62.5 160q0 107 -63 173t-174 68h-275v-457z" />
    <glyph glyph-name="Q" unicode="Q" horiz-adv-x="1414" 
d="M84 759q0 215 77.5 378.5t219 251t323.5 87.5t323.5 -87.5t219 -251t77.5 -377.5v-65q0 -204 -66 -354.5t-183 -241.5l242 -190l-191 -169l-310 249q-53 -9 -110 -9q-181 0 -323 87t-220 248.5t-79 371.5v72zM470 349q82 -123 236 -123q151 0 232 118.5t82 345.5v71
q0 229 -82 348t-234 119q-151 0 -233 -117.5t-83 -344.5v-71q0 -223 82 -346z" />
    <glyph glyph-name="R" unicode="R" horiz-adv-x="1307" 
d="M671 1456q258 0 398 -115t140 -325q0 -149 -64.5 -248.5t-195.5 -158.5l315 -595v-14h-322l-273 533h-239v-533h-300v1456h541zM430 776h242q113 0 175 57.5t62 158.5q0 103 -58.5 162t-179.5 59h-241v-437z" />
    <glyph glyph-name="S" unicode="S" horiz-adv-x="1259" 
d="M69 458h301q0 -241 288 -241q107 0 167 43.5t60 121.5q0 85 -60 130.5t-216 96t-247 99.5q-248 134 -248 361q0 118 66.5 210.5t191 144.5t279.5 52q156 0 278 -56.5t189.5 -159.5t67.5 -234h-300q0 100 -63 155.5t-177 55.5q-110 0 -171 -46.5t-61 -122.5
q0 -71 71.5 -119t210.5 -90q256 -77 373 -191t117 -284q0 -189 -143 -296.5t-385 -107.5q-168 0 -306 61.5t-210.5 168.5t-72.5 248z" />
    <glyph glyph-name="T" unicode="T" horiz-adv-x="1267" 
d="M40 1213v243h1186v-243h-446v-1213h-300v1213h-440z" />
    <glyph glyph-name="U" unicode="U" horiz-adv-x="1348" 
d="M116 1456h300v-961q0 -143 68.5 -208.5t189.5 -65.5q253 0 257 266v969h301v-959q0 -239 -149.5 -378t-408.5 -139q-255 0 -405 135t-153 371v970z" />
    <glyph glyph-name="V" unicode="V" horiz-adv-x="1339" 
d="M7 1456h333l328 -1095l330 1095h334l-507 -1456h-313z" />
    <glyph glyph-name="W" unicode="W" horiz-adv-x="1791" 
d="M35 1456h299l197 -1034l240 1034h254l239 -1036l196 1036h299l-323 -1456h-302l-237 974l-237 -974h-302z" />
    <glyph glyph-name="X" unicode="X" horiz-adv-x="1301" 
d="M22 0l435 734l-424 722h345l273 -502l273 502h345l-424 -722l435 -734h-349l-280 510l-280 -510h-349z" />
    <glyph glyph-name="Y" unicode="Y" horiz-adv-x="1266" 
d="M331 1456l301 -656l303 656h328l-478 -928v-528h-305v528l-478 928h329z" />
    <glyph glyph-name="Z" unicode="Z" horiz-adv-x="1241" 
d="M448 241h734v-241h-1109v176l720 1037h-719v243h1092v-172z" />
    <glyph glyph-name="bracketleft" unicode="[" horiz-adv-x="569" 
d="M552 1694v-223h-142v-1587h142v-223h-432v2033h432z" />
    <glyph glyph-name="backslash" unicode="\" horiz-adv-x="864" 
d="M0 1456h295l608 -1581h-296z" />
    <glyph glyph-name="bracketright" unicode="]" horiz-adv-x="569" 
d="M156 -116v1587h-143v223h432v-2033h-432v223h143z" />
    <glyph glyph-name="asciicircum" unicode="^" horiz-adv-x="895" 
d="M343 1456h210l299 -727h-229l-175 457l-174 -457h-230z" />
    <glyph glyph-name="underscore" unicode="_" horiz-adv-x="914" 
d="M912 -226h-911v226h911v-226z" />
    <glyph glyph-name="grave" unicode="`" horiz-adv-x="677" 
d="M565 1226h-237l-276 310h315z" />
    <glyph glyph-name="a" unicode="a" horiz-adv-x="1098" 
d="M196 568q127 92 368 93h133v62q0 75 -38.5 120t-121.5 45q-73 0 -114.5 -35t-41.5 -96h-289q0 94 58 174t164 125.5t238 45.5q200 0 317.5 -100.5t117.5 -282.5v-469q1 -154 43 -233v-17h-292q-20 39 -29 97q-105 -117 -273 -117q-159 0 -263.5 92t-104.5 232
q0 172 128 264zM395 236q38 -35 104 -35q64 0 118 28.5t80 76.5v186h-108q-217 0 -231 -150l-1 -17q0 -54 38 -89z" />
    <glyph glyph-name="b" unicode="b" horiz-adv-x="1153" 
d="M111 1536h289v-551q100 117 263 117q198 0 310.5 -145.5t112.5 -409.5v-16q0 -260 -111 -405.5t-310 -145.5q-176 0 -281 135l-13 -115h-260v1536zM400 327q53 -114 192 -114q140 0 184 138q21 66 21 201q0 164 -52 239.5t-155 75.5q-138 0 -190 -113v-427z" />
    <glyph glyph-name="c" unicode="c" horiz-adv-x="1068" 
d="M66 535v19q0 250 133 399t365 149q203 0 325.5 -115.5t124.5 -307.5h-271q-2 84 -52 136.5t-132 52.5q-101 0 -152.5 -73.5t-51.5 -238.5v-30q0 -167 51 -240t155 -73q80 0 130 44t52 117h271q-1 -110 -60 -201.5t-161.5 -142t-226.5 -50.5q-232 0 -366 147.5t-134 407.5
z" />
    <glyph glyph-name="d" unicode="d" horiz-adv-x="1154" 
d="M180 952q113 150 310 150q158 0 261 -118v552h290v-1536h-261l-14 115q-108 -135 -278 -135q-191 0 -306.5 150.5t-115.5 418.5q0 253 114 403zM408 295q53 -81 154 -81q134 0 189 113v427q-54 113 -187 113q-209 0 -209 -339q0 -152 53 -233z" />
    <glyph glyph-name="e" unicode="e" horiz-adv-x="1107" 
d="M72 515v28q0 163 63 291.5t178.5 198t263.5 69.5q222 0 349.5 -140t127.5 -397v-118h-689q14 -106 84.5 -170t178.5 -64q167 0 261 121l142 -159q-65 -92 -176 -143.5t-246 -51.5q-238 0 -387.5 146t-149.5 389zM368 644h402v23q-2 96 -52 148.5t-142 52.5
q-86 0 -139.5 -58t-68.5 -166z" />
    <glyph glyph-name="f" unicode="f" horiz-adv-x="734" 
d="M190 1082v92q0 182 104.5 282.5t292.5 100.5q60 0 147 -20l-3 -224q-36 9 -88 9q-163 0 -163 -153v-87h215v-212h-215v-870h-290v870h-161v212h161z" />
    <glyph glyph-name="g" unicode="g" horiz-adv-x="1169" 
d="M69 549q0 249 118.5 401t319.5 152q178 0 277 -122l12 102h262v-1046q0 -142 -64.5 -247t-181.5 -160t-274 -55q-119 0 -232 47.5t-171 122.5l128 176q108 -121 262 -121q115 0 179 61.5t64 174.5v58q-100 -113 -263 -113q-195 0 -315.5 152.5t-120.5 404.5v12zM358 528
q0 -147 59 -230.5t162 -83.5q132 0 189 99v455q-58 99 -187 99q-104 0 -163.5 -85t-59.5 -254z" />
    <glyph glyph-name="h" unicode="h" horiz-adv-x="1146" 
d="M104 1536h289v-572q115 138 289 138q352 0 357 -409v-693h-289v685q0 93 -40 137.5t-133 44.5q-127 0 -184 -98v-769h-289v1536z" />
    <glyph glyph-name="i" unicode="i" horiz-adv-x="543" 
d="M126 0v1082h290v-1082h-290zM109 1362q0 65 43.5 107t118.5 42q74 0 118 -42t44 -107q0 -66 -44.5 -108t-117.5 -42t-117.5 42t-44.5 108z" />
    <glyph glyph-name="j" unicode="j" horiz-adv-x="532" 
d="M-4 -200q131 0 131 139v1143h290v-1141q0 -179 -95 -278.5t-274 -99.5q-75 0 -143 17v229q52 -9 91 -9zM104 1362q0 65 43.5 107t118.5 42t118.5 -42t43.5 -107q0 -66 -44.5 -108t-117.5 -42t-117.5 42t-44.5 108z" />
    <glyph glyph-name="k" unicode="k" horiz-adv-x="1094" 
d="M111 0v1536h289v-851l56 72l277 325h347l-391 -451l425 -631h-332l-278 434l-104 -104v-330h-289z" />
    <glyph glyph-name="l" unicode="l" horiz-adv-x="543" 
d="M416 0h-290v1536h290v-1536z" />
    <glyph glyph-name="m" unicode="m" horiz-adv-x="1773" 
d="M382 1082l9 -121q115 141 311 141q209 0 287 -165q114 165 325 165q176 0 262 -102.5t86 -308.5v-691h-290v690q0 92 -36 134.5t-127 42.5q-130 0 -180 -124l1 -743h-289v689q0 94 -37 136t-126 42q-123 0 -178 -102v-765h-289v1082h271z" />
    <glyph glyph-name="n" unicode="n" horiz-adv-x="1147" 
d="M105 0v1082h272l9 -125q116 145 311 145q172 0 256 -101t86 -302v-699h-289v692q0 92 -40 133.5t-133 41.5q-122 0 -183 -104v-763h-289z" />
    <glyph glyph-name="o" unicode="o" horiz-adv-x="1158" 
d="M66 538v13q0 161 62 287t178.5 195t270.5 69q219 0 357.5 -134t154.5 -364l2 -74q0 -249 -139 -399.5t-373 -150.5t-373.5 150t-139.5 408zM413 295q58 -82 166 -82q105 0 164 80.5t59 257.5q0 151 -59 234t-166 83q-106 0 -164 -82.5t-58 -255.5q0 -154 58 -235z" />
    <glyph glyph-name="p" unicode="p" horiz-adv-x="1153" 
d="M111 -416v1498h268l10 -106q105 126 274 126q200 0 311 -148t111 -408v-15q0 -250 -113.5 -400.5t-306.5 -150.5q-164 0 -265 114v-510h-289zM400 320q53 -107 189 -107q207 0 207 339q0 151 -53.5 233t-155.5 82q-136 0 -187 -104v-443z" />
    <glyph glyph-name="q" unicode="q" horiz-adv-x="1157" 
d="M66 551q0 255 113.5 403t311.5 148q174 0 277 -133l19 113h254v-1498h-290v509q-100 -113 -262 -113q-193 0 -308 150t-115 421zM355 530q0 -155 54.5 -236t153.5 -81q133 0 188 106v447q-54 102 -186 102q-100 0 -155 -81t-55 -257z" />
    <glyph glyph-name="r" unicode="r" horiz-adv-x="747" 
d="M384 1082l8 -129q87 149 241 149q48 0 90 -13l-4 -278q-59 8 -104 8q-164 0 -215 -111v-708h-289v1082h273z" />
    <glyph glyph-name="s" unicode="s" horiz-adv-x="1053" 
d="M56 344h274q4 -77 57 -118t142 -41q83 0 125.5 31.5t42.5 82.5q0 53 -52.5 83.5t-168.5 54.5q-386 81 -386 328q0 144 119.5 240.5t312.5 96.5q206 0 329.5 -97t123.5 -252h-289q0 62 -40 102.5t-125 40.5q-73 0 -113 -33t-40 -84q0 -48 45.5 -77.5t153.5 -51t182 -48.5
q229 -84 229 -291q0 -148 -127 -239.5t-328 -91.5q-136 0 -241.5 48.5t-165.5 133t-60 182.5z" />
    <glyph glyph-name="t" unicode="t" horiz-adv-x="692" 
d="M168 1082v266h289v-266h185v-212h-185v-540q0 -60 23 -86t88 -26q48 0 85 7v-219q-85 -26 -175 -26q-304 0 -310 307v583h-158v212h158z" />
    <glyph glyph-name="u" unicode="u" horiz-adv-x="1146" 
d="M104 373v709h289v-699q0 -169 154 -169q147 0 202 102v766h290v-1082h-272l-8 110q-107 -130 -296 -130q-174 0 -265.5 100t-93.5 293z" />
    <glyph glyph-name="v" unicode="v" horiz-adv-x="1035" 
d="M13 1082h302l201 -729l201 729h302l-365 -1082h-276z" />
    <glyph glyph-name="w" unicode="w" horiz-adv-x="1505" 
d="M28 1082h279l141 -688l198 688h209l197 -689l142 689h279l-276 -1082h-242l-205 681l-205 -681h-241z" />
    <glyph glyph-name="x" unicode="x" horiz-adv-x="1042" 
d="M21 0l321 552l-307 530h310l178 -323l182 323h309l-308 -530l321 -552h-310l-193 340l-192 -340h-311z" />
    <glyph glyph-name="y" unicode="y" horiz-adv-x="1028" 
d="M3 1082h311l201 -673l200 673h310l-435 -1250l-24 -57q-97 -212 -320 -212q-63 0 -128 19v219l44 -1q82 0 122.5 25t63.5 83l34 89z" />
    <glyph glyph-name="z" unicode="z" horiz-adv-x="1042" 
d="M443 233h529v-233h-898v176l509 672h-494v234h867v-171z" />
    <glyph glyph-name="braceleft" unicode="{" horiz-adv-x="676" 
d="M48 515v207q174 0 178 199v212q0 185 90 299t270 165l56 -161q-76 -28 -115 -97.5t-41 -192.5v-210q0 -226 -179 -317q179 -92 179 -319v-212q5 -234 156 -286l-56 -162q-360 101 -360 465v199q0 211 -178 211z" />
    <glyph glyph-name="bar" unicode="|" horiz-adv-x="518" 
d="M348 -270h-175v1726h175v-1726z" />
    <glyph glyph-name="braceright" unicode="}" horiz-adv-x="676" 
d="M90 1597q179 -50 269 -163.5t91 -297.5v-215q4 -199 178 -199v-207q-178 0 -178 -209v-217q-8 -350 -360 -449l-56 162q152 54 156 290v212q0 226 183 314q-183 88 -183 319v209q-4 233 -156 290z" />
    <glyph glyph-name="asciitilde" unicode="~" horiz-adv-x="1328" 
d="M197 714q90 113 240 113q78 0 142 -30t145.5 -107.5t148.5 -77.5q59 0 96.5 53t37.5 129l214 -1q0 -186 -93 -302t-240 -116q-74 0 -137.5 28.5t-146.5 108t-153 79.5q-58 0 -94 -50t-36 -128l-215 2q0 186 91 299z" />
    <glyph glyph-name="uni00A0" unicode="&#xa0;" horiz-adv-x="510" 
 />
    <glyph glyph-name="exclamdown" unicode="&#xa1;" horiz-adv-x="578" 
d="M170 639h241l33 -1008h-307zM128 948q0 67 44.5 110t117.5 43t117.5 -43t44.5 -110t-46 -110t-116 -43t-116 43t-46 110z" />
    <glyph glyph-name="cent" unicode="&#xa2;" horiz-adv-x="1178" 
d="M99 532v22q0 218 105 363t294 177v224h200v-225q163 -29 255.5 -140t94.5 -274h-272q-2 86 -52 137.5t-131 51.5q-102 0 -153 -74.5t-52 -234.5v-33q0 -168 51.5 -240.5t154.5 -72.5q80 0 130 44t52 117h272q-2 -145 -98.5 -250.5t-251.5 -134.5v-234h-200v233
q-187 30 -293 174t-106 370z" />
    <glyph glyph-name="sterling" unicode="&#xa3;" horiz-adv-x="1217" 
d="M99 812h154l-7 227q0 202 123.5 319t330.5 117q212 0 333 -112.5t121 -304.5h-287q0 85 -43.5 130t-124.5 45q-66 0 -109.5 -49t-43.5 -145l9 -227h309v-236h-300l6 -139q0 -123 -62 -196h653v-241h-1059v241h92q72 18 72 179l-5 156h-162v236z" />
    <glyph glyph-name="currency" unicode="&#xa4;" horiz-adv-x="1418" 
d="M81 1120l141 144l142 -145q155 115 348 115q194 0 349 -117l144 148l142 -145l-148 -151q107 -159 107 -361q0 -193 -98 -349l139 -141l-142 -145l-132 134q-159 -127 -361 -127q-203 0 -361 126l-129 -132l-141 144l135 137q-100 156 -100 353q0 204 109 365zM302 608
q0 -118 54 -219.5t149.5 -160t206.5 -58.5q110 0 205.5 58.5t149.5 160t54 219.5q0 119 -54 219.5t-149 158.5t-206 58q-112 0 -207 -58t-149 -158.5t-54 -219.5z" />
    <glyph glyph-name="yen" unicode="&#xa5;" horiz-adv-x="1098" 
d="M10 1456h315l225 -564l224 564h313l-322 -714h218v-175h-288v-115h288v-174h-288v-278h-300v278h-306v174h306v115h-306v175h244z" />
    <glyph glyph-name="brokenbar" unicode="&#xa6;" horiz-adv-x="516" 
d="M128 -270v795h260v-795h-260zM128 698v758h260v-758h-260z" />
    <glyph glyph-name="section" unicode="&#xa7;" horiz-adv-x="1287" 
d="M92 -35l289 1q0 -89 64 -136.5t191 -47.5q112 0 170 37.5t58 100.5q0 65 -64.5 106t-247 91.5t-275 105.5t-138 130t-45.5 181q0 180 162 273q-136 103 -136 288q0 171 140.5 276t379.5 105q247 0 383 -113t136 -314h-289q0 87 -61.5 140.5t-168.5 53.5q-110 0 -170 -39
t-60 -107q0 -73 55.5 -110t240.5 -86t282.5 -104t144.5 -131.5t47 -184.5q0 -182 -162 -271q135 -102 135 -288q0 -175 -137.5 -274.5t-379.5 -99.5q-257 0 -400.5 107t-143.5 310zM425 457q41 -38 165 -78l222 -67q82 47 82 140q0 62 -45.5 101.5t-163.5 79.5l-227 71
q-75 -42 -75 -141q0 -69 42 -106z" />
    <glyph glyph-name="dieresis" unicode="&#xa8;" horiz-adv-x="956" 
d="M622 1456q40 36 98 36q59 0 98.5 -37t39.5 -90q0 -52 -38 -89.5t-100 -37.5t-100.5 37.5t-38.5 89.5q0 54 41 91zM94 1365q0 52 38 89.5t100 37.5t100.5 -37.5t38.5 -89.5q0 -53 -39 -89.5t-100 -36.5q-62 0 -100 37t-38 89z" />
    <glyph glyph-name="copyright" unicode="&#xa9;" horiz-adv-x="1606" 
d="M86 729q0 202 93.5 375t259 272.5t357.5 99.5t357.5 -99.5t259 -272.5t93.5 -375q0 -204 -95 -377.5t-259.5 -272.5t-355.5 -99q-193 0 -357.5 100t-258.5 273t-94 376zM286 415q77 -144 213.5 -227.5t296.5 -83.5t297.5 85t213.5 229t76 311q0 166 -75 308.5t-212 228
t-300 85.5q-159 0 -295.5 -82t-214.5 -226t-78 -314t78 -314zM433 788q0 174 95.5 280.5t253.5 106.5q163 0 249.5 -82.5t86.5 -231.5h-156q0 96 -46 137.5t-134 41.5q-92 0 -142.5 -67.5t-51.5 -180.5v-123q0 -117 51 -184.5t143 -67.5q89 0 134 40.5t45 138.5h156
q0 -152 -87.5 -233t-247.5 -81t-254.5 106.5t-94.5 286.5v113z" />
    <glyph glyph-name="ordfeminine" unicode="&#xaa;" horiz-adv-x="909" 
d="M221 1090q84 60 257 60h102v51q0 127 -116 127q-65 0 -101.5 -25.5t-36.5 -73.5l-173 14q0 104 87.5 168.5t223.5 64.5q135 0 213 -72t78 -205v-316q0 -97 26 -178h-177q-10 27 -17 68q-77 -82 -201 -82q-118 0 -183.5 61.5t-65.5 166.5q0 110 84 171zM429 835
q40 0 82 18.5t69 43.5v136h-106q-76 -1 -119 -31t-43 -79q0 -88 117 -88z" />
    <glyph glyph-name="guillemotleft" unicode="&#xab;" horiz-adv-x="1023" 
d="M742 924h186l-240 -400l240 -399h-186l-280 390v19zM77 515v19l280 390h186l-240 -400l240 -399h-186z" />
    <glyph glyph-name="logicalnot" unicode="&#xac;" horiz-adv-x="1129" 
d="M961 374h-200v260h-635v171h835v-431z" />
    <glyph glyph-name="uni00AD" unicode="&#xad;" horiz-adv-x="794" 
d="M673 507h-563v233h563v-233z" />
    <glyph glyph-name="registered" unicode="&#xae;" horiz-adv-x="1606" 
d="M180 1104q93 173 258.5 272.5t357.5 99.5t357.5 -99.5t259 -272.5t93.5 -375q0 -204 -95 -377.5t-259.5 -272.5t-355.5 -99q-193 0 -357.5 100t-258.5 273t-94 376q0 202 94 375zM208 729q0 -170 77.5 -314t214 -227.5t296.5 -83.5t297.5 85t213.5 229t76 311
q0 166 -75 308.5t-212 228t-300 85.5q-159 0 -295.5 -82t-214.5 -226t-78 -314zM782 1166q151 0 238 -68.5t87 -194.5q0 -112 -113 -174q61 -31 85.5 -86.5t24.5 -137.5t3.5 -116t13.5 -57v-16h-155q-13 34 -13 194q0 76 -33 109.5t-110 33.5h-158v-337h-151v850h281z
M652 787h136q74 0 121.5 32t47.5 84q0 70 -35.5 99.5t-128.5 30.5h-141v-246z" />
    <glyph glyph-name="macron" unicode="&#xaf;" horiz-adv-x="1026" 
d="M858 1287h-690v167h690v-167z" />
    <glyph glyph-name="degree" unicode="&#xb0;" horiz-adv-x="795" 
d="M207 1395q81 81 191 81q109 0 188.5 -80.5t79.5 -195.5t-79.5 -193.5t-188.5 -78.5q-108 0 -190 78.5t-82 193.5q0 114 81 195zM273 1200q0 -52 36.5 -88t88.5 -36q53 0 87.5 35.5t34.5 88.5q0 52 -34.5 90t-87.5 38t-89 -38t-36 -90z" />
    <glyph glyph-name="plusminus" unicode="&#xb1;" horiz-adv-x="1100" 
d="M424 942v343h253v-343h328v-241h-328v-364h-253v364h-335v241h335zM977 236v-235h-864v235h864z" />
    <glyph glyph-name="twosuperior" unicode="&#xb2;" horiz-adv-x="763" 
d="M141 1388q85 79 220 79q148 0 228.5 -64.5t80.5 -183.5q0 -70 -36 -128t-144 -145l-148 -115h351v-164h-620v138l287 257q56 49 80.5 91t24.5 65q0 84 -95 84q-50 0 -79.5 -31t-29.5 -78h-206q0 116 86 195z" />
    <glyph glyph-name="threesuperior" unicode="&#xb3;" horiz-adv-x="763" 
d="M254 903q0 -34 34 -58.5t86 -24.5q60 0 86.5 26.5t26.5 61.5q0 92 -122 93h-92v136h82q119 0 119 88q0 35 -28.5 56t-77.5 21q-42 0 -71.5 -15.5t-29.5 -44.5h-205q0 102 84.5 163.5t215.5 61.5q145 0 230.5 -59.5t85.5 -166.5q0 -119 -135 -169q150 -41 150 -184
q0 -105 -91.5 -168.5t-239.5 -63.5q-142 0 -228 66.5t-86 180.5h206z" />
    <glyph glyph-name="acute" unicode="&#xb4;" horiz-adv-x="679" 
d="M298 1536h315l-277 -310h-235z" />
    <glyph glyph-name="uni00B5" unicode="&#xb5;" horiz-adv-x="1261" 
d="M428 1082v-623q0 -126 40.5 -185.5t139.5 -59.5q149 0 205 105v763h289v-1082h-269l-6 68q-89 -89 -225 -89q-102 0 -174 45v-440h-289v1498h289z" />
    <glyph glyph-name="paragraph" unicode="&#xb6;" horiz-adv-x="1003" 
d="M208 1329q133 127 363 127h298v-1456h-219v520h-80q-230 0 -362.5 127t-132.5 341q0 213 133 341z" />
    <glyph glyph-name="periodcentered" unicode="&#xb7;" horiz-adv-x="617" 
d="M140 697q0 69 46 112t117 43t117.5 -43t46.5 -112t-47 -111.5t-117 -42.5q-72 0 -117.5 43.5t-45.5 110.5z" />
    <glyph glyph-name="cedilla" unicode="&#xb8;" horiz-adv-x="548" 
d="M98 -136l31 143h216l-11 -58q150 -27 150 -173q0 -110 -91.5 -174t-257.5 -64l-7 167q112 0 112 81q0 42 -33.5 57.5t-108.5 20.5z" />
    <glyph glyph-name="onesuperior" unicode="&#xb9;" horiz-adv-x="763" 
d="M528 667h-204v548l-189 -41v158l374 121h19v-786z" />
    <glyph glyph-name="ordmasculine" unicode="&#xba;" horiz-adv-x="936" 
d="M214 1379q95 97 250 97t251 -97t96 -263v-72q0 -159 -94 -256.5t-251 -97.5q-158 0 -253 98t-95 261v72q0 160 96 258zM340 891q46 -55 126 -55q78 0 123.5 54t46.5 151v80q0 97 -46.5 152t-125.5 55q-78 0 -124.5 -54.5t-46.5 -156.5v-73q0 -98 47 -153z" />
    <glyph glyph-name="guillemotright" unicode="&#xbb;" horiz-adv-x="1023" 
d="M718 523l-240 400h187l280 -390v-19l-280 -390h-187zM85 124l240 399l-240 400h187l280 -390v-19l-280 -390h-187z" />
    <glyph glyph-name="onequarter" unicode="&#xbc;" horiz-adv-x="1470" 
d="M1096 789h206v-463h88v-167h-88v-159h-205v159h-346l-12 135zM317 193l711 1138l141 -76l-711 -1138zM475 1450h19v-786h-204v548l-189 -41v158zM935 326h162v212l-14 -22z" />
    <glyph glyph-name="onehalf" unicode="&#xbd;" horiz-adv-x="1559" 
d="M925 721q85 79 220 79q148 0 228.5 -64.5t80.5 -183.5q0 -70 -36 -128t-144 -145l-148 -115h351v-164h-620v138l287 257q56 49 80.5 91t24.5 65q0 84 -95 84q-50 0 -79.5 -31t-29.5 -78h-206q0 116 86 195zM986 1331l141 -76l-711 -1138l-141 76zM84 1177v158l374 121h19
v-786h-204v548z" />
    <glyph glyph-name="threequarters" unicode="&#xbe;" horiz-adv-x="1655" 
d="M300 903q0 -34 34 -58.5t86 -24.5q60 0 86.5 26.5t26.5 61.5q0 92 -122 93h-92v136h82q119 0 119 88q0 35 -28.5 56t-77.5 21q-42 0 -71.5 -15.5t-29.5 -44.5h-205q0 102 84.5 163.5t215.5 61.5q145 0 230.5 -59.5t85.5 -166.5q0 -119 -135 -169q150 -41 150 -184
q0 -105 -91.5 -168.5t-239.5 -63.5q-142 0 -228 66.5t-86 180.5h206zM897 294l357 495h206v-463h88v-167h-88v-159h-205v159h-346zM1189 1331l141 -76l-711 -1138l-141 76zM1255 326v212l-14 -22l-148 -190h162z" />
    <glyph glyph-name="questiondown" unicode="&#xbf;" horiz-adv-x="1019" 
d="M69 6q0 159 153 312l97 93q50 45 69.5 94t21.5 138h256q0 -133 -31 -215t-110.5 -156t-108 -110t-43 -73t-14.5 -81q0 -157 154 -157q77 0 122.5 45t47.5 126h289q-2 -192 -123 -299.5t-331 -107.5q-213 0 -331 101.5t-118 289.5zM378 949q0 67 44.5 110t117.5 43
t117.5 -43t44.5 -110t-46 -110t-116 -43t-116 43t-46 110z" />
    <glyph glyph-name="Agrave" unicode="&#xc0;" horiz-adv-x="1378" 
d="M7 0l542 1456h278l545 -1456h-319l-101 300h-526l-100 -300h-319zM871 543l-183 545l-181 -545h364zM323 1846h315l198 -310h-237z" />
    <glyph glyph-name="Aacute" unicode="&#xc1;" horiz-adv-x="1378" 
d="M549 1456h278l545 -1456h-319l-101 300h-526l-100 -300h-319zM507 543h364l-183 545zM553 1536l197 310h315l-277 -310h-235z" />
    <glyph glyph-name="Acircumflex" unicode="&#xc2;" horiz-adv-x="1378" 
d="M7 0l542 1456h278l545 -1456h-319l-101 300h-526l-100 -300h-319zM312 1554v16l296 276h168l300 -280v-12h-230l-154 145l-154 -145h-226zM871 543l-183 545l-181 -545h364z" />
    <glyph glyph-name="Atilde" unicode="&#xc3;" horiz-adv-x="1378" 
d="M7 0l542 1456h278l545 -1456h-319l-101 300h-526l-100 -300h-319zM381 1755q65 78 160 78q30 0 56.5 -7.5t86.5 -36.5t83 -35t48 -6q35 0 60.5 24.5t25.5 70.5l167 -11q0 -113 -66 -189.5t-161 -76.5q-38 0 -67.5 8.5t-81.5 36.5t-75 34.5t-50 6.5q-35 0 -59.5 -25
t-24.5 -71l-168 10q0 111 66 189zM871 543l-183 545l-181 -545h364z" />
    <glyph glyph-name="Adieresis" unicode="&#xc4;" horiz-adv-x="1378" 
d="M549 1456h278l545 -1456h-319l-101 300h-526l-100 -300h-319zM507 543h364l-183 545zM797 1675q0 54 40.5 90.5t98.5 36.5q59 0 98.5 -37t39.5 -90q0 -52 -38 -89.5t-100 -37.5t-100.5 37.5t-38.5 89.5zM310 1675q0 52 38 89.5t100 37.5t100.5 -37.5t38.5 -89.5
q0 -53 -39 -89.5t-100 -36.5q-62 0 -100 37t-38 89z" />
    <glyph glyph-name="Aring" unicode="&#xc5;" horiz-adv-x="1378" 
d="M549 1456h278l545 -1456h-319l-101 300h-526l-100 -300h-319zM535 1876q65 59 158 59q92 0 157.5 -58.5t65.5 -146.5q0 -85 -64 -143t-159 -58q-97 0 -160 59t-63 142q0 86 65 146zM871 543l-183 545l-181 -545h364zM585 1730q0 -44 29 -75.5t79 -31.5t79 31.5t29 75.5
q0 46 -29.5 77.5t-78.5 31.5t-78.5 -31.5t-29.5 -77.5z" />
    <glyph glyph-name="AE" unicode="&#xc6;" horiz-adv-x="1925" 
d="M2 0l786 1456h1016v-236h-598l15 -355h502v-236h-492l16 -394h618v-235h-897l-14 333h-446l-167 -333h-339zM633 580h311l-24 570z" />
    <glyph glyph-name="Ccedilla" unicode="&#xc7;" horiz-adv-x="1340" 
d="M86 686v89q0 210 74 370t211.5 245.5t319.5 85.5q252 0 406 -135t178 -379h-300q-11 141 -78.5 204.5t-205.5 63.5q-150 0 -224.5 -107.5t-76.5 -333.5v-110q0 -236 71.5 -345t225.5 -109q139 0 207.5 63.5t78.5 196.5h300q-17 -235 -173 -370q-123 -106 -307 -129
l-7 -38q150 -27 150 -173q0 -110 -91.5 -174t-257.5 -64l-7 167q112 0 112 81q0 42 -33.5 57.5t-108.5 20.5l27 125q-203 31 -330 181q-161 188 -161 517z" />
    <glyph glyph-name="Egrave" unicode="&#xc8;" horiz-adv-x="1152" 
d="M130 0v1456h974v-243h-674v-347h576v-235h-576v-390h676v-241h-976zM266 1849h315l198 -310h-237z" />
    <glyph glyph-name="Eacute" unicode="&#xc9;" horiz-adv-x="1152" 
d="M130 1456h974v-243h-674v-347h576v-235h-576v-390h676v-241h-976v1456zM496 1539l197 310h315l-277 -310h-235z" />
    <glyph glyph-name="Ecircumflex" unicode="&#xca;" horiz-adv-x="1152" 
d="M130 1456h974v-243h-674v-347h576v-235h-576v-390h676v-241h-976v1456zM551 1849h168l300 -280v-12h-230l-154 145l-154 -145h-226v16z" />
    <glyph glyph-name="Edieresis" unicode="&#xcb;" horiz-adv-x="1152" 
d="M130 1456h974v-243h-674v-347h576v-235h-576v-390h676v-241h-976v1456zM781 1769q40 36 98 36q59 0 98.5 -37t39.5 -90q0 -52 -38 -89.5t-100 -37.5t-100.5 37.5t-38.5 89.5q0 54 41 91zM291 1768q38 37 100 37t100.5 -37.5t38.5 -89.5q0 -53 -39 -89.5t-100 -36.5
q-62 0 -100 37t-38 89t38 90z" />
    <glyph glyph-name="Igrave" unicode="&#xcc;" horiz-adv-x="597" 
d="M449 0h-300v1456h300v-1456zM443 1539h-237l-276 310h315z" />
    <glyph glyph-name="Iacute" unicode="&#xcd;" horiz-adv-x="597" 
d="M449 0h-300v1456h300v-1456zM356 1849h315l-277 -310h-235z" />
    <glyph glyph-name="Icircumflex" unicode="&#xce;" horiz-adv-x="597" 
d="M149 0v1456h300v-1456h-300zM215 1849h168l300 -280v-12h-230l-154 145l-154 -145h-226v16z" />
    <glyph glyph-name="Idieresis" unicode="&#xcf;" horiz-adv-x="597" 
d="M149 1456h300v-1456h-300v1456zM404 1678q0 54 40.5 90.5t98.5 36.5q59 0 98.5 -37t39.5 -90q0 -52 -38 -89.5t-100 -37.5t-100.5 37.5t-38.5 89.5zM-83 1678q0 52 38 89.5t100 37.5t100.5 -37.5t38.5 -89.5q0 -53 -39 -89.5t-100 -36.5q-62 0 -100 37t-38 89z" />
    <glyph glyph-name="Eth" unicode="&#xd0;" horiz-adv-x="1361" 
d="M160 825v631h448q192 0 343.5 -86.5t236.5 -246t85 -362.5v-67q0 -203 -83.5 -361t-235.5 -245t-343 -88h-451v642h-180v183h180zM460 642v-401h145q178 0 271 117.5t93 335.5v68q0 222 -92 336.5t-269 114.5h-148v-388h219v-183h-219z" />
    <glyph glyph-name="Ntilde" unicode="&#xd1;" horiz-adv-x="1446" 
d="M130 1456h300l585 -960v960h299v-1456h-300l-584 958v-958h-300v1456zM415 1755q65 78 160 78q30 0 56.5 -7.5t86.5 -36.5t83 -35t48 -6q35 0 60.5 24.5t25.5 70.5l167 -11q0 -113 -66 -189.5t-161 -76.5q-38 0 -67.5 8.5t-81.5 36.5t-75 34.5t-50 6.5q-35 0 -59.5 -25
t-24.5 -71l-168 10q0 111 66 189z" />
    <glyph glyph-name="Ograve" unicode="&#xd2;" horiz-adv-x="1414" 
d="M164 1138q77 163 218.5 250.5t323.5 87.5t323.5 -87.5t219 -251t77.5 -377.5v-65q0 -215 -76 -377t-217.5 -250t-324.5 -88q-181 0 -323 87t-220 248.5t-79 371.5v72q0 215 78 379zM472 349q82 -123 236 -123q151 0 232 118.5t82 345.5v71q0 229 -82 348t-234 119
q-151 0 -233 -117.5t-83 -344.5v-71q0 -223 82 -346zM652 1846l198 -310h-237l-276 310h315z" />
    <glyph glyph-name="Oacute" unicode="&#xd3;" horiz-adv-x="1414" 
d="M164 1138q77 163 218.5 250.5t323.5 87.5t323.5 -87.5t219 -251t77.5 -377.5v-65q0 -215 -76 -377t-217.5 -250t-324.5 -88q-181 0 -323 87t-220 248.5t-79 371.5v72q0 215 78 379zM472 349q82 -123 236 -123q151 0 232 118.5t82 345.5v71q0 229 -82 348t-234 119
q-151 0 -233 -117.5t-83 -344.5v-71q0 -223 82 -346zM567 1536l197 310h315l-277 -310h-235z" />
    <glyph glyph-name="Ocircumflex" unicode="&#xd4;" horiz-adv-x="1414" 
d="M86 687v72q0 215 77.5 378.5t219 251t323.5 87.5t323.5 -87.5t219 -251t77.5 -377.5v-65q0 -215 -76 -377t-217.5 -250t-324.5 -88q-181 0 -323 87t-220 248.5t-79 371.5zM390 766v-71q0 -223 82 -346t236 -123q151 0 232 118.5t82 345.5v71q0 229 -82 348t-234 119
q-151 0 -233 -117.5t-83 -344.5zM326 1570l296 276h168l300 -280v-12h-230l-154 145l-154 -145h-226v16z" />
    <glyph glyph-name="Otilde" unicode="&#xd5;" horiz-adv-x="1414" 
d="M86 687v72q0 215 77.5 378.5t219 251t323.5 87.5t323.5 -87.5t219 -251t77.5 -377.5v-65q0 -215 -76 -377t-217.5 -250t-324.5 -88q-181 0 -323 87t-220 248.5t-79 371.5zM390 695q0 -223 82 -346t236 -123q151 0 232 118.5t82 345.5v71q0 229 -82 348t-234 119
q-151 0 -233 -117.5t-83 -344.5v-71zM395 1755q65 78 160 78q30 0 56.5 -7.5t86.5 -36.5t83 -35t48 -6q35 0 60.5 24.5t25.5 70.5l167 -11q0 -113 -66 -189.5t-161 -76.5q-38 0 -67.5 8.5t-81.5 36.5t-75 34.5t-50 6.5q-35 0 -59.5 -25t-24.5 -71l-168 10q0 111 66 189z" />
    <glyph glyph-name="Odieresis" unicode="&#xd6;" horiz-adv-x="1414" 
d="M86 759q0 215 77.5 378.5t219 251t323.5 87.5t323.5 -87.5t219 -251t77.5 -377.5v-65q0 -215 -76 -377t-217.5 -250t-324.5 -88q-181 0 -323 87t-220 248.5t-79 371.5v72zM390 766v-71q0 -223 82 -346t236 -123q151 0 232 118.5t82 345.5v71q0 229 -82 348t-234 119
q-151 0 -233 -117.5t-83 -344.5zM852 1766q40 36 98 36q59 0 98.5 -37t39.5 -90q0 -52 -38 -89.5t-100 -37.5t-100.5 37.5t-38.5 89.5q0 54 41 91zM324 1675q0 52 38 89.5t100 37.5t100.5 -37.5t38.5 -89.5q0 -53 -39 -89.5t-100 -36.5q-62 0 -100 37t-38 89z" />
    <glyph glyph-name="multiply" unicode="&#xd7;" horiz-adv-x="1088" 
d="M65 373l307 313l-307 313l170 168l304 -311l305 311l170 -168l-307 -313l307 -313l-170 -168l-305 310l-304 -310z" />
    <glyph glyph-name="Oslash" unicode="&#xd8;" horiz-adv-x="1411" 
d="M171 1138q77 163 218.5 250.5t323.5 87.5q175 0 314 -82l74 124h187l-134 -227q179 -198 179 -537v-59q0 -215 -76 -377t-217.5 -250t-324.5 -88q-164 0 -295 70l-85 -145h-188l143 242q-197 195 -197 555v57q0 215 78 379zM446 410l447 757q-73 61 -180 61
q-151 0 -233 -117.5t-83 -344.5v-71q0 -172 49 -285zM552 273q70 -47 163 -47q151 0 232.5 118.5t82.5 345.5v71q0 151 -38 256z" />
    <glyph glyph-name="Ugrave" unicode="&#xd9;" horiz-adv-x="1348" 
d="M116 486v970h300v-961q0 -143 68.5 -208.5t189.5 -65.5q253 0 257 266v969h301v-959q0 -239 -149.5 -378t-408.5 -139q-255 0 -405 135t-153 371zM616 1846l198 -310h-237l-276 310h315z" />
    <glyph glyph-name="Uacute" unicode="&#xda;" horiz-adv-x="1348" 
d="M116 486v970h300v-961q0 -143 68.5 -208.5t189.5 -65.5q253 0 257 266v969h301v-959q0 -239 -149.5 -378t-408.5 -139q-255 0 -405 135t-153 371zM531 1536l197 310h315l-277 -310h-235z" />
    <glyph glyph-name="Ucircumflex" unicode="&#xdb;" horiz-adv-x="1348" 
d="M416 1456v-961q0 -143 68.5 -208.5t189.5 -65.5q253 0 257 266v969h301v-959q0 -239 -149.5 -378t-408.5 -139q-255 0 -405 135t-153 371v970h300zM586 1846h168l300 -280v-12h-230l-154 145l-154 -145h-226v16z" />
    <glyph glyph-name="Udieresis" unicode="&#xdc;" horiz-adv-x="1348" 
d="M416 1456v-961q0 -143 68.5 -208.5t189.5 -65.5q253 0 257 266v969h301v-959q0 -239 -149.5 -378t-408.5 -139q-255 0 -405 135t-153 371v970h300zM816 1766q40 36 98 36q59 0 98.5 -37t39.5 -90q0 -52 -38 -89.5t-100 -37.5t-100.5 37.5t-38.5 89.5q0 54 41 91z
M326 1765q38 37 100 37t100.5 -37.5t38.5 -89.5q0 -53 -39 -89.5t-100 -36.5q-62 0 -100 37t-38 89t38 90z" />
    <glyph glyph-name="Yacute" unicode="&#xdd;" horiz-adv-x="1266" 
d="M331 1456l301 -656l303 656h328l-478 -928v-528h-305v528l-478 928h329zM496 1536l197 310h315l-277 -310h-235z" />
    <glyph glyph-name="Thorn" unicode="&#xde;" horiz-adv-x="1246" 
d="M422 1456v-267h230q162 -1 281.5 -56.5t183.5 -158t64 -236.5q0 -202 -138.5 -324t-378.5 -127h-242v-287h-289v1456h289zM422 956v-436h223q117 0 182 59t65 157t-63.5 158t-175.5 62h-231z" />
    <glyph glyph-name="germandbls" unicode="&#xdf;" horiz-adv-x="1292" 
d="M424 0h-289v1101q0 220 124 339t350 119q191 0 306.5 -99.5t115.5 -270.5q0 -108 -53.5 -195t-53.5 -164q0 -37 30.5 -76.5t118.5 -117.5q151 -134 151 -282q0 -177 -115 -275.5t-330 -98.5q-81 0 -160 16t-119 40l54 229q98 -52 219 -52q79 0 121 36.5t42 99.5
q0 46 -34.5 89.5t-116.5 109.5q-150 120 -150 270q0 96 55 186.5t55 169.5q0 70 -44.5 111.5t-112.5 41.5q-159 0 -164 -213v-1114z" />
    <glyph glyph-name="agrave" unicode="&#xe0;" horiz-adv-x="1098" 
d="M196 568q127 92 368 93h133v62q0 75 -38.5 120t-121.5 45q-73 0 -114.5 -35t-41.5 -96h-289q0 94 58 174t164 125.5t238 45.5q200 0 317.5 -100.5t117.5 -282.5v-469q1 -154 43 -233v-17h-292q-20 39 -29 97q-105 -117 -273 -117q-159 0 -263.5 92t-104.5 232
q0 172 128 264zM357 325q0 -54 38 -89t104 -35q64 0 118 28.5t80 76.5v186h-108q-217 0 -231 -150zM497 1536l198 -310h-237l-276 310h315z" />
    <glyph glyph-name="aacute" unicode="&#xe1;" horiz-adv-x="1098" 
d="M196 568q127 92 368 93h133v62q0 75 -38.5 120t-121.5 45q-73 0 -114.5 -35t-41.5 -96h-289q0 94 58 174t164 125.5t238 45.5q200 0 317.5 -100.5t117.5 -282.5v-469q1 -154 43 -233v-17h-292q-20 39 -29 97q-105 -117 -273 -117q-159 0 -263.5 92t-104.5 232
q0 172 128 264zM357 325q0 -54 38 -89t104 -35q64 0 118 28.5t80 76.5v186h-108q-217 0 -231 -150zM412 1226l197 310h315l-277 -310h-235z" />
    <glyph glyph-name="acircumflex" unicode="&#xe2;" horiz-adv-x="1098" 
d="M196 568q127 92 368 93h133v62q0 75 -38.5 120t-121.5 45q-73 0 -114.5 -35t-41.5 -96h-289q0 94 58 174t164 125.5t238 45.5q200 0 317.5 -100.5t117.5 -282.5v-469q1 -154 43 -233v-17h-292q-20 39 -29 97q-105 -117 -273 -117q-159 0 -263.5 92t-104.5 232
q0 172 128 264zM467 1536h168l300 -280v-12h-230l-154 145l-154 -145h-226v16zM357 325q0 -54 38 -89t104 -35q64 0 118 28.5t80 76.5v186h-108q-217 0 -231 -150z" />
    <glyph glyph-name="atilde" unicode="&#xe3;" horiz-adv-x="1098" 
d="M196 568q127 92 368 93h133v62q0 75 -38.5 120t-121.5 45q-73 0 -114.5 -35t-41.5 -96h-289q0 94 58 174t164 125.5t238 45.5q200 0 317.5 -100.5t117.5 -282.5v-469q1 -154 43 -233v-17h-292q-20 39 -29 97q-105 -117 -273 -117q-159 0 -263.5 92t-104.5 232
q0 172 128 264zM174 1257q0 111 65.5 189t160.5 78q30 0 56.5 -7.5t86.5 -36.5t83 -35t48 -6q35 0 60.5 24.5t25.5 70.5l167 -11q0 -113 -66 -189.5t-161 -76.5q-38 0 -67.5 8.5t-81.5 36.5t-75 34.5t-50 6.5q-35 0 -59.5 -25t-24.5 -71zM357 325q0 -54 38 -89t104 -35
q64 0 118 28.5t80 76.5v186h-108q-217 0 -231 -150z" />
    <glyph glyph-name="adieresis" unicode="&#xe4;" horiz-adv-x="1098" 
d="M68 304q0 172 127.5 264t368.5 93h133v62q0 75 -38.5 120t-121.5 45q-73 0 -114.5 -35t-41.5 -96h-289q0 94 58 174t164 125.5t238 45.5q200 0 317.5 -100.5t117.5 -282.5v-469q1 -154 43 -233v-17h-292q-20 39 -29 97q-105 -117 -273 -117q-159 0 -263.5 92t-104.5 232z
M395 236q38 -35 104 -35q64 0 118 28.5t80 76.5v186h-108q-217 0 -231 -150l-1 -17q0 -54 38 -89zM697 1456q40 36 98 36q59 0 98.5 -37t39.5 -90q0 -52 -38 -89.5t-100 -37.5t-100.5 37.5t-38.5 89.5q0 54 41 91zM169 1365q0 52 38 89.5t100 37.5t100.5 -37.5t38.5 -89.5
q0 -53 -39 -89.5t-100 -36.5q-62 0 -100 37t-38 89z" />
    <glyph glyph-name="aring" unicode="&#xe5;" horiz-adv-x="1098" 
d="M68 304q0 172 127.5 264t368.5 93h133v62q0 75 -38.5 120t-121.5 45q-73 0 -114.5 -35t-41.5 -96h-289q0 94 58 174t164 125.5t238 45.5q200 0 317.5 -100.5t117.5 -282.5v-469q1 -154 43 -233v-17h-292q-20 39 -29 97q-105 -117 -273 -117q-159 0 -263.5 92t-104.5 232z
M329 1420q0 86 65 145.5t158 59.5q92 0 157.5 -58.5t65.5 -146.5q0 -85 -64 -143t-159 -58q-97 0 -160 59t-63 142zM357 325q0 -54 38 -89t104 -35q64 0 118 28.5t80 76.5v186h-108q-217 0 -231 -150zM473 1345q29 -32 79 -32t79 31.5t29 75.5q0 46 -29.5 77.5t-78.5 31.5
t-78.5 -31.5t-29.5 -77.5q0 -44 29 -75z" />
    <glyph glyph-name="ae" unicode="&#xe6;" horiz-adv-x="1729" 
d="M190 562q124 86 367 87h168v57q0 76 -40.5 119t-117.5 43q-82 0 -129.5 -35.5t-47.5 -87.5l-289 19q0 149 130.5 243.5t338.5 94.5q211 0 327 -110q124 110 319 110h7q212 0 333 -131.5t121 -363.5v-157h-668q11 -116 80.5 -177t186.5 -61q77 0 142.5 16t152.5 61
l77 -189q-73 -56 -180.5 -88t-221.5 -32q-247 0 -386 147q-64 -69 -166.5 -108t-227.5 -39q-186 0 -293 89t-107 250q0 157 124 243zM355 315q0 -56 40.5 -89.5t125.5 -33.5q49 0 107 22.5t97 57.5v189h-164q-95 -1 -150.5 -43t-55.5 -103zM1011 644h382v28q0 94 -43.5 145
t-126.5 51q-90 0 -144.5 -57.5t-67.5 -166.5z" />
    <glyph glyph-name="ccedilla" unicode="&#xe7;" horiz-adv-x="1068" 
d="M66 554q0 250 133 399t365 149q203 0 325.5 -115.5t124.5 -307.5h-271q-2 84 -52 136.5t-132 52.5q-101 0 -152.5 -73.5t-51.5 -238.5v-30q0 -167 51 -240t155 -73q80 0 130 44t52 117h271q-1 -110 -60 -201.5t-161 -141.5q-62 -31 -130 -43l-8 -40q150 -27 150 -173
q0 -110 -91.5 -174t-257.5 -64l-7 167q112 0 112 81q0 42 -33.5 57.5t-108.5 20.5l28 128q-150 29 -247 137q-134 147 -134 407v19z" />
    <glyph glyph-name="egrave" unicode="&#xe8;" horiz-adv-x="1107" 
d="M72 515v28q0 163 63 291.5t178.5 198t263.5 69.5q222 0 349.5 -140t127.5 -397v-118h-689q14 -106 84.5 -170t178.5 -64q167 0 261 121l142 -159q-65 -92 -176 -143.5t-246 -51.5q-238 0 -387.5 146t-149.5 389zM175 1536h315l198 -310h-237zM770 644v23q-2 96 -52 148.5
t-142 52.5q-86 0 -139.5 -58t-68.5 -166h402z" />
    <glyph glyph-name="eacute" unicode="&#xe9;" horiz-adv-x="1107" 
d="M72 515v28q0 163 63 291.5t178.5 198t263.5 69.5q222 0 349.5 -140t127.5 -397v-118h-689q14 -106 84.5 -170t178.5 -64q167 0 261 121l142 -159q-65 -92 -176 -143.5t-246 -51.5q-238 0 -387.5 146t-149.5 389zM405 1226l197 310h315l-277 -310h-235zM770 644v23
q-2 96 -52 148.5t-142 52.5q-86 0 -139.5 -58t-68.5 -166h402z" />
    <glyph glyph-name="ecircumflex" unicode="&#xea;" horiz-adv-x="1107" 
d="M72 515v28q0 163 63 291.5t178.5 198t263.5 69.5q222 0 349.5 -140t127.5 -397v-118h-689q14 -106 84.5 -170t178.5 -64q167 0 261 121l142 -159q-65 -92 -176 -143.5t-246 -51.5q-238 0 -387.5 146t-149.5 389zM164 1244v16l296 276h168l300 -280v-12h-230l-154 145
l-154 -145h-226zM770 644v23q-2 96 -52 148.5t-142 52.5q-86 0 -139.5 -58t-68.5 -166h402z" />
    <glyph glyph-name="edieresis" unicode="&#xeb;" horiz-adv-x="1107" 
d="M72 515v28q0 163 63 291.5t178.5 198t263.5 69.5q222 0 349.5 -140t127.5 -397v-118h-689q14 -106 84.5 -170t178.5 -64q167 0 261 121l142 -159q-65 -92 -176 -143.5t-246 -51.5q-238 0 -387.5 146t-149.5 389zM770 644v23q-2 96 -52 148.5t-142 52.5q-86 0 -139.5 -58
t-68.5 -166h402zM690 1456q40 36 98 36q59 0 98.5 -37t39.5 -90q0 -52 -38 -89.5t-100 -37.5t-100.5 37.5t-38.5 89.5q0 54 41 91zM200 1455q38 37 100 37t100.5 -37.5t38.5 -89.5q0 -53 -39 -89.5t-100 -36.5q-62 0 -100 37t-38 89t38 90z" />
    <glyph glyph-name="igrave" unicode="&#xec;" horiz-adv-x="561" 
d="M423 0h-289v1082h289v-1082zM425 1211h-237l-276 310h315z" />
    <glyph glyph-name="iacute" unicode="&#xed;" horiz-adv-x="561" 
d="M423 0h-289v1082h289v-1082zM338 1521h315l-277 -310h-235z" />
    <glyph glyph-name="icircumflex" unicode="&#xee;" horiz-adv-x="561" 
d="M134 0v1082h289v-1082h-289zM197 1521h168l300 -280v-12h-230l-154 145l-154 -145h-226v16z" />
    <glyph glyph-name="idieresis" unicode="&#xef;" horiz-adv-x="561" 
d="M423 1082v-1082h-289v1082h289zM386 1350q0 54 40.5 90.5t98.5 36.5q59 0 98.5 -37t39.5 -90q0 -52 -38 -89.5t-100 -37.5t-100.5 37.5t-38.5 89.5zM-101 1350q0 52 38 89.5t100 37.5t100.5 -37.5t38.5 -89.5q0 -53 -39 -89.5t-100 -36.5q-62 0 -100 37t-38 89z" />
    <glyph glyph-name="eth" unicode="&#xf0;" horiz-adv-x="1178" 
d="M849 1305q255 -262 256 -654v-74q0 -172 -66.5 -309t-185.5 -212.5t-266 -75.5q-144 0 -259 63.5t-179.5 176t-64.5 248.5q0 231 123 364.5t329 133.5q136 0 244 -76q-49 152 -166 265l-191 -122l-78 114l152 97q-116 72 -264 111l91 224q238 -48 416 -180l171 109
l77 -114zM816 663q-68 83 -215 83q-113 0 -170.5 -74.5t-57.5 -203.5q0 -112 60 -183.5t158 -71.5q103 0 164 90.5t61 248.5v111z" />
    <glyph glyph-name="ntilde" unicode="&#xf1;" horiz-adv-x="1147" 
d="M105 0v1082h272l9 -125q116 145 311 145q172 0 256 -101t86 -302v-699h-289v692q0 92 -40 133.5t-133 41.5q-122 0 -183 -104v-763h-289zM264 1446q65 78 160 78q30 0 56.5 -7.5t86.5 -36.5t83 -35t48 -6q35 0 60.5 24.5t25.5 70.5l167 -11q0 -113 -66 -189.5t-161 -76.5
q-38 0 -67.5 8.5t-81.5 36.5t-75 34.5t-50 6.5q-35 0 -59.5 -25t-24.5 -71l-168 10q0 111 66 189z" />
    <glyph glyph-name="ograve" unicode="&#xf2;" horiz-adv-x="1158" 
d="M66 538v13q0 161 62 287t178.5 195t270.5 69q219 0 357.5 -134t154.5 -364l2 -74q0 -249 -139 -399.5t-373 -150.5t-373.5 150t-139.5 408zM355 530q0 -154 58 -235.5t166 -81.5q105 0 164 80.5t59 257.5q0 151 -59 234t-166 83q-106 0 -164 -82.5t-58 -255.5zM522 1536
l198 -310h-237l-276 310h315z" />
    <glyph glyph-name="oacute" unicode="&#xf3;" horiz-adv-x="1158" 
d="M66 551q0 161 62 287t178.5 195t270.5 69q219 0 357.5 -134t154.5 -364l2 -74q0 -249 -139 -399.5t-373 -150.5t-373.5 150t-139.5 408v13zM413 295q58 -82 166 -82q105 0 164 80.5t59 257.5q0 151 -59 234t-166 83q-106 0 -164 -82.5t-58 -255.5q0 -154 58 -235z
M437 1226l197 310h315l-277 -310h-235z" />
    <glyph glyph-name="ocircumflex" unicode="&#xf4;" horiz-adv-x="1158" 
d="M66 551q0 161 62 287t178.5 195t270.5 69q219 0 357.5 -134t154.5 -364l2 -74q0 -249 -139 -399.5t-373 -150.5t-373.5 150t-139.5 408v13zM413 295q58 -82 166 -82q105 0 164 80.5t59 257.5q0 151 -59 234t-166 83q-106 0 -164 -82.5t-58 -255.5q0 -154 58 -235z
M196 1244v16l296 276h168l300 -280v-12h-230l-154 145l-154 -145h-226z" />
    <glyph glyph-name="otilde" unicode="&#xf5;" horiz-adv-x="1158" 
d="M66 538v13q0 161 62 287t178.5 195t270.5 69q219 0 357.5 -134t154.5 -364l2 -74q0 -249 -139 -399.5t-373 -150.5t-373.5 150t-139.5 408zM413 295q58 -82 166 -82q105 0 164 80.5t59 257.5q0 151 -59 234t-166 83q-106 0 -164 -82.5t-58 -255.5q0 -154 58 -235z
M199 1257q0 111 65.5 189t160.5 78q30 0 56.5 -7.5t86.5 -36.5t83 -35t48 -6q35 0 60.5 24.5t25.5 70.5l167 -11q0 -113 -66 -189.5t-161 -76.5q-38 0 -67.5 8.5t-81.5 36.5t-75 34.5t-50 6.5q-35 0 -59.5 -25t-24.5 -71z" />
    <glyph glyph-name="odieresis" unicode="&#xf6;" horiz-adv-x="1158" 
d="M66 538v13q0 161 62 287t178.5 195t270.5 69q219 0 357.5 -134t154.5 -364l2 -74q0 -249 -139 -399.5t-373 -150.5t-373.5 150t-139.5 408zM355 530q0 -154 58 -235.5t166 -81.5q105 0 164 80.5t59 257.5q0 151 -59 234t-166 83q-106 0 -164 -82.5t-58 -255.5zM681 1365
q0 54 40.5 90.5t98.5 36.5q59 0 98.5 -37t39.5 -90q0 -52 -38 -89.5t-100 -37.5t-100.5 37.5t-38.5 89.5zM232 1455q38 37 100 37t100.5 -37.5t38.5 -89.5q0 -53 -39 -89.5t-100 -36.5q-62 0 -100 37t-38 89t38 90z" />
    <glyph glyph-name="divide" unicode="&#xf7;" horiz-adv-x="1168" 
d="M1091 571h-1028v230h1028v-230zM415 1089q0 68 45.5 110t117.5 42q71 0 117.5 -41.5t46.5 -110.5q0 -67 -45 -108.5t-119 -41.5q-75 0 -119 42t-44 108zM415 277q0 68 45.5 110t117.5 42q71 0 117.5 -41.5t46.5 -110.5q0 -67 -45 -108.5t-119 -41.5q-75 0 -119 42
t-44 108z" />
    <glyph glyph-name="oslash" unicode="&#xf8;" horiz-adv-x="1156" 
d="M66 551q0 161 62 287t178.5 195t270.5 69q101 0 186 -29l70 143h161l-103 -211q200 -149 200 -475q0 -249 -139 -399.5t-373 -150.5q-95 0 -176 26l-72 -148h-161l103 212q-207 146 -207 481zM396 322l260 532q-36 14 -79 14q-106 0 -164 -82.5t-58 -255.5
q0 -130 41 -208zM579 213q105 0 164 80.5t59 257.5q0 114 -37 196l-256 -524q30 -10 70 -10z" />
    <glyph glyph-name="ugrave" unicode="&#xf9;" horiz-adv-x="1146" 
d="M104 1082h289v-699q0 -169 154 -169q147 0 202 102v766h290v-1082h-272l-8 110q-107 -130 -296 -130q-174 0 -265.5 100t-93.5 293v709zM518 1536l198 -310h-237l-276 310h315z" />
    <glyph glyph-name="uacute" unicode="&#xfa;" horiz-adv-x="1146" 
d="M104 1082h289v-699q0 -169 154 -169q147 0 202 102v766h290v-1082h-272l-8 110q-107 -130 -296 -130q-174 0 -265.5 100t-93.5 293v709zM433 1226l197 310h315l-277 -310h-235z" />
    <glyph glyph-name="ucircumflex" unicode="&#xfb;" horiz-adv-x="1146" 
d="M393 1082v-699q0 -169 154 -169q147 0 202 102v766h290v-1082h-272l-8 110q-107 -130 -296 -130q-174 0 -265.5 100t-93.5 293v709h289zM488 1536h168l300 -280v-12h-230l-154 145l-154 -145h-226v16z" />
    <glyph glyph-name="udieresis" unicode="&#xfc;" horiz-adv-x="1146" 
d="M393 1082v-699q0 -169 154 -169q147 0 202 102v766h290v-1082h-272l-8 110q-107 -130 -296 -130q-174 0 -265.5 100t-93.5 293v709h289zM677 1365q0 54 40.5 90.5t98.5 36.5q59 0 98.5 -37t39.5 -90q0 -52 -38 -89.5t-100 -37.5t-100.5 37.5t-38.5 89.5zM190 1365
q0 52 38 89.5t100 37.5t100.5 -37.5t38.5 -89.5q0 -53 -39 -89.5t-100 -36.5q-62 0 -100 37t-38 89z" />
    <glyph glyph-name="yacute" unicode="&#xfd;" horiz-adv-x="1028" 
d="M3 1082h311l201 -673l200 673h310l-435 -1250l-24 -57q-97 -212 -320 -212q-63 0 -128 19v219l44 -1q82 0 122.5 25t63.5 83l34 89zM381 1226l197 310h315l-277 -310h-235z" />
    <glyph glyph-name="thorn" unicode="&#xfe;" horiz-adv-x="1162" 
d="M1087 531q0 -250 -113.5 -400.5t-306.5 -150.5q-164 0 -264 113v-509h-290v1952h290v-547q100 113 262 113q198 0 310 -147t112 -410v-14zM798 552q0 151 -53.5 233t-155.5 82q-132 0 -186 -102v-447q54 -105 188 -105q207 0 207 339z" />
    <glyph glyph-name="ydieresis" unicode="&#xff;" horiz-adv-x="1028" 
d="M314 1082l201 -673l200 673h310l-435 -1250l-24 -57q-97 -212 -320 -212q-63 0 -128 19v219l44 -1q82 0 122.5 25t63.5 83l34 89l-379 1085h311zM666 1456q40 36 98 36q59 0 98.5 -37t39.5 -90q0 -52 -38 -89.5t-100 -37.5t-100.5 37.5t-38.5 89.5q0 54 41 91zM176 1455
q38 37 100 37t100.5 -37.5t38.5 -89.5q0 -53 -39 -89.5t-100 -36.5q-62 0 -100 37t-38 89t38 90z" />
    <glyph glyph-name="Amacron" unicode="&#x100;" horiz-adv-x="1378" 
d="M7 0l542 1456h278l545 -1456h-319l-101 300h-526l-100 -300h-319zM349 1595v167h690v-167h-690zM507 543h364l-183 545z" />
    <glyph glyph-name="amacron" unicode="&#x101;" horiz-adv-x="1098" 
d="M196 568q127 92 368 93h133v62q0 75 -38.5 120t-121.5 45q-73 0 -114.5 -35t-41.5 -96h-289q0 94 58 174t164 125.5t238 45.5q200 0 317.5 -100.5t117.5 -282.5v-469q1 -154 43 -233v-17h-292q-20 39 -29 97q-105 -117 -273 -117q-159 0 -263.5 92t-104.5 232
q0 172 128 264zM208 1286v167h690v-167h-690zM395 236q38 -35 104 -35q64 0 118 28.5t80 76.5v186h-108q-217 0 -231 -150l-1 -17q0 -54 38 -89z" />
    <glyph glyph-name="Abreve" unicode="&#x102;" horiz-adv-x="1378" 
d="M7 0l542 1456h278l545 -1456h-319l-101 300h-526l-100 -300h-319zM347 1836h205q0 -63 37.5 -97.5t103.5 -34.5q65 0 102 34.5t37 97.5h207q0 -133 -95.5 -215t-250.5 -82t-250.5 81t-95.5 216zM871 543l-183 545l-181 -545h364z" />
    <glyph glyph-name="abreve" unicode="&#x103;" horiz-adv-x="1098" 
d="M68 304q0 172 127.5 264t368.5 93h133v62q0 75 -38.5 120t-121.5 45q-73 0 -114.5 -35t-41.5 -96h-289q0 94 58 174t164 125.5t238 45.5q200 0 317.5 -100.5t117.5 -282.5v-469q1 -154 43 -233v-17h-292q-20 39 -29 97q-105 -117 -273 -117q-159 0 -263.5 92t-104.5 232z
M411 1526q0 -63 37.5 -97.5t103.5 -34.5q65 0 102 34.5t37 97.5h207q0 -133 -95.5 -215t-250.5 -82t-250.5 81t-95.5 216h205zM395 236q38 -35 104 -35q64 0 118 28.5t80 76.5v186h-108q-217 0 -231 -150l-1 -17q0 -54 38 -89z" />
    <glyph glyph-name="Aogonek" unicode="&#x104;" horiz-adv-x="1378" 
d="M549 1456h278l545 -1456h-84q-74 -42 -114 -82.5t-40 -93.5q0 -65 66 -65q33 0 80 20l29 -157q-73 -44 -165 -44q-100 0 -163.5 55.5t-63.5 153.5q0 135 132 224l-97 289h-526l-100 -300h-319zM871 543l-183 545l-181 -545h364z" />
    <glyph glyph-name="aogonek" unicode="&#x105;" horiz-adv-x="1098" 
d="M68 304q0 172 127.5 264t368.5 93h133v62q0 75 -38.5 120t-121.5 45q-73 0 -114.5 -35t-41.5 -96h-289q0 94 58 174t164 125.5t238 45.5q200 0 317.5 -100.5t117.5 -282.5v-469q1 -154 43 -233v-17h-48q-74 -42 -114 -82.5t-40 -93.5q0 -65 66 -65q33 0 80 20l29 -157
q-73 -44 -165 -44q-100 0 -163.5 55.5t-63.5 153.5q0 131 124 218q-17 41 -26 92q-105 -117 -273 -117q-159 0 -263.5 92t-104.5 232zM395 236q38 -35 104 -35q64 0 118 28.5t80 76.5v186h-108q-217 0 -231 -150l-1 -17q0 -54 38 -89z" />
    <glyph glyph-name="Cacute" unicode="&#x106;" horiz-adv-x="1340" 
d="M160 1145q74 160 211.5 245.5t319.5 85.5q252 0 406 -135t178 -379h-300q-11 141 -78.5 204.5t-205.5 63.5q-150 0 -224.5 -107.5t-76.5 -333.5v-110q0 -236 71.5 -345t225.5 -109q139 0 207.5 63.5t78.5 196.5h300q-17 -235 -173.5 -370t-412.5 -135
q-280 0 -440.5 188.5t-160.5 517.5v89q0 210 74 370zM549 1544l197 310h315l-277 -310h-235z" />
    <glyph glyph-name="cacute" unicode="&#x107;" horiz-adv-x="1068" 
d="M66 554q0 250 133 399t365 149q203 0 325.5 -115.5t124.5 -307.5h-271q-2 84 -52 136.5t-132 52.5q-101 0 -152.5 -73.5t-51.5 -238.5v-30q0 -167 51 -240t155 -73q80 0 130 44t52 117h271q-1 -110 -60 -201.5t-161.5 -142t-226.5 -50.5q-232 0 -366 147.5t-134 407.5v19
zM592 1536h315l-277 -310h-235z" />
    <glyph glyph-name="Ccircumflex" unicode="&#x108;" horiz-adv-x="1340" 
d="M86 686v89q0 210 74 370t211.5 245.5t319.5 85.5q252 0 406 -135t178 -379h-300q-11 141 -78.5 204.5t-205.5 63.5q-150 0 -224.5 -107.5t-76.5 -333.5v-110q0 -236 71.5 -345t225.5 -109q139 0 207.5 63.5t78.5 196.5h300q-17 -235 -173.5 -370t-412.5 -135
q-280 0 -440.5 188.5t-160.5 517.5zM604 1854h168l300 -280v-12h-230l-154 145l-154 -145h-226v16z" />
    <glyph glyph-name="ccircumflex" unicode="&#x109;" horiz-adv-x="1068" 
d="M66 535v19q0 250 133 399t365 149q203 0 325.5 -115.5t124.5 -307.5h-271q-2 84 -52 136.5t-132 52.5q-101 0 -152.5 -73.5t-51.5 -238.5v-30q0 -167 51 -240t155 -73q80 0 130 44t52 117h271q-1 -110 -60 -201.5t-161.5 -142t-226.5 -50.5q-232 0 -366 147.5t-134 407.5
zM154 1260l296 276h168l300 -280v-12h-230l-154 145l-154 -145h-226v16z" />
    <glyph glyph-name="Cdotaccent" unicode="&#x10a;" horiz-adv-x="1340" 
d="M86 775q0 210 74 370t211.5 245.5t319.5 85.5q252 0 406 -135t178 -379h-300q-11 141 -78.5 204.5t-205.5 63.5q-150 0 -224.5 -107.5t-76.5 -333.5v-110q0 -236 71.5 -345t225.5 -109q139 0 207.5 63.5t78.5 196.5h300q-17 -235 -173.5 -370t-412.5 -135
q-280 0 -440.5 188.5t-160.5 517.5v89zM539 1709q0 60 40.5 98.5t107.5 38.5q69 0 108.5 -38.5t39.5 -98.5t-39.5 -98t-108.5 -38q-68 0 -108 38t-40 98z" />
    <glyph glyph-name="cdotaccent" unicode="&#x10b;" horiz-adv-x="1068" 
d="M66 535v19q0 250 133 399t365 149q203 0 325.5 -115.5t124.5 -307.5h-271q-2 84 -52 136.5t-132 52.5q-101 0 -152.5 -73.5t-51.5 -238.5v-30q0 -167 51 -240t155 -73q80 0 130 44t52 117h271q-1 -110 -60 -201.5t-161.5 -142t-226.5 -50.5q-232 0 -366 147.5t-134 407.5
zM426 1490q40 38 107 38q69 0 108.5 -38.5t39.5 -98.5t-39.5 -98t-108.5 -38q-68 0 -108 38t-40 98t41 99z" />
    <glyph glyph-name="Ccaron" unicode="&#x10c;" horiz-adv-x="1340" 
d="M160 1145q74 160 211.5 245.5t319.5 85.5q252 0 406 -135t178 -379h-300q-11 141 -78.5 204.5t-205.5 63.5q-150 0 -224.5 -107.5t-76.5 -333.5v-110q0 -236 71.5 -345t225.5 -109q139 0 207.5 63.5t78.5 196.5h300q-17 -235 -173.5 -370t-412.5 -135
q-280 0 -440.5 188.5t-160.5 517.5v89q0 210 74 370zM541 1855l147 -143l146 143h247v-11l-302 -281h-183l-302 283v9h247z" />
    <glyph glyph-name="ccaron" unicode="&#x10d;" horiz-adv-x="1068" 
d="M66 535v19q0 250 133 399t365 149q203 0 325.5 -115.5t124.5 -307.5h-271q-2 84 -52 136.5t-132 52.5q-101 0 -152.5 -73.5t-51.5 -238.5v-30q0 -167 51 -240t155 -73q80 0 130 44t52 117h271q-1 -110 -60 -201.5t-161.5 -142t-226.5 -50.5q-232 0 -366 147.5t-134 407.5
zM140 1537h247l147 -143l146 143h247v-11l-302 -281h-183l-302 283v9z" />
    <glyph glyph-name="Dcaron" unicode="&#x10e;" horiz-adv-x="1331" 
d="M578 1456q192 0 343.5 -86.5t236.5 -246t85 -362.5v-67q0 -203 -83.5 -361t-235.5 -245t-343 -88h-451v1456h448zM575 241q176 0 269 115t95 329v77q0 222 -92 336.5t-269 114.5h-148v-972h145zM133 1850h247l147 -143l146 143h247v-11l-302 -281h-183l-302 283v9z" />
    <glyph glyph-name="dcaron" unicode="&#x10f;" horiz-adv-x="1304" 
d="M66 549q0 253 113.5 403t310.5 150q158 0 261 -118v552h290v-1536h-261l-14 115q-108 -135 -278 -135q-191 0 -306.5 150.5t-115.5 418.5zM355 528q0 -152 53 -233t154 -81q134 0 189 113v427q-54 113 -187 113q-209 0 -209 -339zM1119 1192q73 115 76 242v103h212v-71
q0 -93 -41.5 -192t-103.5 -161z" />
    <glyph glyph-name="Dcroat" unicode="&#x110;" horiz-adv-x="1361" 
d="M160 825v631h448q192 0 343.5 -86.5t236.5 -246t85 -362.5v-67q0 -203 -83.5 -361t-235.5 -245t-343 -88h-451v642h-180v183h180zM460 642v-401h145q178 0 271 117.5t93 335.5v68q0 222 -92 336.5t-269 114.5h-148v-388h219v-183h-219z" />
    <glyph glyph-name="dcroat" unicode="&#x111;" horiz-adv-x="1291" 
d="M66 549q0 253 113.5 403t310.5 150q158 0 261 -118v234h-252v183h252v135h290v-135h158v-183h-158v-1218h-261l-14 115q-108 -135 -278 -135q-191 0 -306.5 150.5t-115.5 418.5zM355 528q0 -152 53 -233t154 -81q134 0 189 113v427q-54 113 -187 113q-209 0 -209 -339z
" />
    <glyph glyph-name="Emacron" unicode="&#x112;" horiz-adv-x="1152" 
d="M130 0v1456h974v-243h-674v-347h576v-235h-576v-390h676v-241h-976zM292 1765h690v-167h-690v167z" />
    <glyph glyph-name="emacron" unicode="&#x113;" horiz-adv-x="1107" 
d="M72 515v28q0 163 63 291.5t178.5 198t263.5 69.5q222 0 349.5 -140t127.5 -397v-118h-689q14 -106 84.5 -170t178.5 -64q167 0 261 121l142 -159q-65 -92 -176 -143.5t-246 -51.5q-238 0 -387.5 146t-149.5 389zM201 1286v167h690v-167h-690zM770 644v23q-2 96 -52 148.5
t-142 52.5q-86 0 -139.5 -58t-68.5 -166h402z" />
    <glyph glyph-name="Ebreve" unicode="&#x114;" horiz-adv-x="1152" 
d="M130 1456h974v-243h-674v-347h576v-235h-576v-390h676v-241h-976v1456zM290 1839h205q0 -63 37.5 -97.5t103.5 -34.5q65 0 102 34.5t37 97.5h207q0 -133 -95.5 -215t-250.5 -82t-250.5 81t-95.5 216z" />
    <glyph glyph-name="ebreve" unicode="&#x115;" horiz-adv-x="1107" 
d="M72 515v28q0 163 63 291.5t178.5 198t263.5 69.5q222 0 349.5 -140t127.5 -397v-118h-689q14 -106 84.5 -170t178.5 -64q167 0 261 121l142 -159q-65 -92 -176 -143.5t-246 -51.5q-238 0 -387.5 146t-149.5 389zM404 1526q0 -63 37.5 -97.5t103.5 -34.5q65 0 102 34.5
t37 97.5h207q0 -133 -95.5 -215t-250.5 -82t-250.5 81t-95.5 216h205zM368 644h402v23q-2 96 -52 148.5t-142 52.5q-86 0 -139.5 -58t-68.5 -166z" />
    <glyph glyph-name="Edotaccent" unicode="&#x116;" horiz-adv-x="1152" 
d="M130 1456h974v-243h-674v-347h576v-235h-576v-390h676v-241h-976v1456zM527 1803q40 38 107 38q69 0 108.5 -38.5t39.5 -98.5t-39.5 -98t-108.5 -38q-68 0 -108 38t-40 98t41 99z" />
    <glyph glyph-name="edotaccent" unicode="&#x117;" horiz-adv-x="1107" 
d="M72 515v28q0 163 63 291.5t178.5 198t263.5 69.5q222 0 349.5 -140t127.5 -397v-118h-689q14 -106 84.5 -170t178.5 -64q167 0 261 121l142 -159q-65 -92 -176 -143.5t-246 -51.5q-238 0 -387.5 146t-149.5 389zM368 644h402v23q-2 96 -52 148.5t-142 52.5
q-86 0 -139.5 -58t-68.5 -166zM395 1391q0 60 40.5 98.5t107.5 38.5q69 0 108.5 -38.5t39.5 -98.5t-39.5 -98t-108.5 -38q-68 0 -108 38t-40 98z" />
    <glyph glyph-name="Eogonek" unicode="&#x118;" horiz-adv-x="1152" 
d="M130 0v1456h974v-243h-674v-347h576v-235h-576v-390h676v-241h-152q-74 -42 -114 -82.5t-40 -93.5q0 -65 66 -65q33 0 80 20l29 -157q-73 -44 -165 -44q-100 0 -163.5 55.5t-63.5 153.5q0 127 116 213h-569z" />
    <glyph glyph-name="eogonek" unicode="&#x119;" horiz-adv-x="1107" 
d="M72 512v31q0 163 63 291.5t178.5 198t263.5 69.5q222 0 349.5 -140t127.5 -397v-118h-689q14 -106 84.5 -170t178.5 -64q167 0 261 121l142 -159q-62 -91 -177 -144h1q-74 -42 -114 -82.5t-40 -93.5q0 -65 66 -65q33 0 80 20l29 -157q-73 -44 -165 -44
q-100 0 -163.5 55.5t-63.5 153.5q0 97 63 165q-214 19 -344.5 162.5t-130.5 366.5zM770 644v23q-2 96 -52 148.5t-142 52.5q-86 0 -139.5 -58t-68.5 -166h402z" />
    <glyph glyph-name="Ecaron" unicode="&#x11a;" horiz-adv-x="1152" 
d="M130 1456h974v-243h-674v-347h576v-235h-576v-390h676v-241h-976v1456zM241 1850h247l147 -143l146 143h247v-11l-302 -281h-183l-302 283v9z" />
    <glyph glyph-name="ecaron" unicode="&#x11b;" horiz-adv-x="1107" 
d="M72 515v28q0 163 63 291.5t178.5 198t263.5 69.5q222 0 349.5 -140t127.5 -397v-118h-689q14 -106 84.5 -170t178.5 -64q167 0 261 121l142 -159q-65 -92 -176 -143.5t-246 -51.5q-238 0 -387.5 146t-149.5 389zM150 1537h247l147 -143l146 143h247v-11l-302 -281h-183
l-302 283v9zM368 644h402v23q-2 96 -52 148.5t-142 52.5q-86 0 -139.5 -58t-68.5 -166z" />
    <glyph glyph-name="Gcircumflex" unicode="&#x11c;" horiz-adv-x="1395" 
d="M94 770q0 218 73.5 377.5t212 244t324.5 84.5q259 0 405 -123.5t173 -359.5h-292q-20 125 -88.5 183t-188.5 58q-153 0 -233 -115t-81 -342v-93q0 -229 87 -346t255 -117q169 0 241 72v251h-273v221h573v-581q-81 -97 -229 -150.5t-328 -53.5q-189 0 -331.5 82.5
t-220 239.5t-79.5 369v99zM315 1578l296 276h168l300 -280v-12h-230l-154 145l-154 -145h-226v16z" />
    <glyph glyph-name="gcircumflex" unicode="&#x11d;" horiz-adv-x="1169" 
d="M69 537v12q0 249 118.5 401t319.5 152q178 0 277 -122l12 102h262v-1046q0 -142 -64.5 -247t-181.5 -160t-274 -55q-119 0 -232 47.5t-171 122.5l128 176q108 -121 262 -121q115 0 179 61.5t64 174.5v58q-100 -113 -263 -113q-195 0 -315.5 152.5t-120.5 404.5zM358 528
q0 -147 59 -230.5t162 -83.5q132 0 189 99v455q-58 99 -187 99q-104 0 -163.5 -85t-59.5 -254zM174 1244v16l296 276h168l300 -280v-12h-230l-154 145l-154 -145h-226z" />
    <glyph glyph-name="Gbreve" unicode="&#x11e;" horiz-adv-x="1395" 
d="M94 770q0 218 73.5 377.5t212 244t324.5 84.5q259 0 405 -123.5t173 -359.5h-292q-20 125 -88.5 183t-188.5 58q-153 0 -233 -115t-81 -342v-93q0 -229 87 -346t255 -117q169 0 241 72v251h-273v221h573v-581q-81 -97 -229 -150.5t-328 -53.5q-189 0 -331.5 82.5
t-220 239.5t-79.5 369v99zM350 1844h205q0 -63 37.5 -97.5t103.5 -34.5q65 0 102 34.5t37 97.5h207q0 -133 -95.5 -215t-250.5 -82t-250.5 81t-95.5 216z" />
    <glyph glyph-name="gbreve" unicode="&#x11f;" horiz-adv-x="1169" 
d="M69 549q0 249 118.5 401t319.5 152q178 0 277 -122l12 102h262v-1046q0 -142 -64.5 -247t-181.5 -160t-274 -55q-119 0 -232 47.5t-171 122.5l128 176q108 -121 262 -121q115 0 179 61.5t64 174.5v58q-100 -113 -263 -113q-195 0 -315.5 152.5t-120.5 404.5v12zM417 298
q59 -84 162 -84q132 0 189 99v455q-58 99 -187 99q-104 0 -163.5 -85t-59.5 -254q0 -147 59 -230zM414 1526q0 -63 37.5 -97.5t103.5 -34.5q65 0 102 34.5t37 97.5h207q0 -133 -95.5 -215t-250.5 -82t-250.5 81t-95.5 216h205z" />
    <glyph glyph-name="Gdotaccent" unicode="&#x120;" horiz-adv-x="1395" 
d="M94 671v99q0 218 73.5 377.5t212 244t324.5 84.5q259 0 405 -123.5t173 -359.5h-292q-20 125 -88.5 183t-188.5 58q-153 0 -233 -115t-81 -342v-93q0 -229 87 -346t255 -117q169 0 241 72v251h-273v221h573v-581q-81 -97 -229 -150.5t-328 -53.5q-189 0 -331.5 82.5
t-220 239.5t-79.5 369zM546 1709q0 60 40.5 98.5t107.5 38.5q69 0 108.5 -38.5t39.5 -98.5t-39.5 -98t-108.5 -38q-68 0 -108 38t-40 98z" />
    <glyph glyph-name="gdotaccent" unicode="&#x121;" horiz-adv-x="1169" 
d="M69 537v12q0 249 118.5 401t319.5 152q178 0 277 -122l12 102h262v-1046q0 -142 -64.5 -247t-181.5 -160t-274 -55q-119 0 -232 47.5t-171 122.5l128 176q108 -121 262 -121q115 0 179 61.5t64 174.5v58q-100 -113 -263 -113q-195 0 -315.5 152.5t-120.5 404.5zM358 528
q0 -147 59 -230.5t162 -83.5q132 0 189 99v455q-58 99 -187 99q-104 0 -163.5 -85t-59.5 -254zM405 1391q0 60 40.5 98.5t107.5 38.5q69 0 108.5 -38.5t39.5 -98.5t-39.5 -98t-108.5 -38q-68 0 -108 38t-40 98z" />
    <glyph glyph-name="uni0122" unicode="&#x122;" horiz-adv-x="1395" 
d="M94 770q0 218 73.5 377.5t212 244t324.5 84.5q259 0 405 -123.5t173 -359.5h-292q-20 125 -88.5 183t-188.5 58q-153 0 -233 -115t-81 -342v-93q0 -229 87 -346t255 -117q169 0 241 72v251h-273v221h573v-581q-81 -97 -229 -150.5t-328 -53.5q-189 0 -331.5 82.5
t-220 239.5t-79.5 369v99zM547 -439q73 115 76 242v103h212v-71q0 -93 -41.5 -192t-103.5 -161z" />
    <glyph glyph-name="uni0123" unicode="&#x123;" horiz-adv-x="1169" 
d="M69 537v12q0 249 118.5 401t319.5 152q178 0 277 -122l12 102h262v-1046q0 -142 -64.5 -247t-181.5 -160t-274 -55q-119 0 -232 47.5t-171 122.5l128 176q108 -121 262 -121q115 0 179 61.5t64 174.5v58q-100 -113 -263 -113q-195 0 -315.5 152.5t-120.5 404.5zM358 528
q0 -147 59 -230.5t162 -83.5q132 0 189 99v455q-58 99 -187 99q-104 0 -163.5 -85t-59.5 -254zM478 1588q39 89 103 132l149 -78q-65 -118 -67 -249l-1 -134h-225v140q1 100 41 189z" />
    <glyph glyph-name="Hcircumflex" unicode="&#x124;" horiz-adv-x="1447" 
d="M130 1456h300v-590h585v590h300v-1456h-300v624h-585v-624h-300v1456zM638 1849h168l300 -280v-12h-230l-154 145l-154 -145h-226v16z" />
    <glyph glyph-name="hcircumflex" unicode="&#x125;" horiz-adv-x="1146" 
d="M104 1536h289v-572q115 138 289 138q352 0 357 -409v-693h-289v685q0 93 -40 137.5t-133 44.5q-127 0 -184 -98v-769h-289v1536zM144 1624v16l296 276h168l300 -280v-12h-230l-154 145l-154 -145h-226z" />
    <glyph glyph-name="Hbar" unicode="&#x126;" horiz-adv-x="1474" 
d="M32 1050v174h113v232h301v-232h585v232h300v-232h122v-174h-122v-1050h-300v624h-585v-624h-301v1050h-113zM446 866h585v184h-585v-184z" />
    <glyph glyph-name="hbar" unicode="&#x127;" horiz-adv-x="1176" 
d="M-53 1399h187v137h289v-137h223v-183h-223v-252q115 138 289 138q352 0 357 -409v-693h-289v685q0 93 -40 137.5t-133 44.5q-127 0 -184 -98v-769h-289v1216h-187v183z" />
    <glyph glyph-name="Itilde" unicode="&#x128;" horiz-adv-x="597" 
d="M149 1456h300v-1456h-300v1456zM-78 1569q0 111 65.5 189t160.5 78q30 0 56.5 -7.5t86.5 -36.5t83 -35t48 -6q35 0 60.5 24.5t25.5 70.5l167 -11q0 -113 -66 -189.5t-161 -76.5q-38 0 -67.5 8.5t-81.5 36.5t-75 34.5t-50 6.5q-35 0 -59.5 -25t-24.5 -71z" />
    <glyph glyph-name="itilde" unicode="&#x129;" horiz-adv-x="561" 
d="M134 1082h289v-1082h-289v1082zM-96 1241q0 111 65.5 189t160.5 78q30 0 56.5 -7.5t86.5 -36.5t83 -35t48 -6q35 0 60.5 24.5t25.5 70.5l167 -11q0 -113 -66 -189.5t-161 -76.5q-38 0 -67.5 8.5t-81.5 36.5t-75 34.5t-50 6.5q-35 0 -59.5 -25t-24.5 -71z" />
    <glyph glyph-name="Imacron" unicode="&#x12a;" horiz-adv-x="597" 
d="M449 0h-300v1456h300v-1456zM646 1598h-690v167h690v-167z" />
    <glyph glyph-name="imacron" unicode="&#x12b;" horiz-adv-x="561" 
d="M423 0h-289v1082h289v-1082zM628 1270h-690v167h690v-167z" />
    <glyph glyph-name="Ibreve" unicode="&#x12c;" horiz-adv-x="597" 
d="M149 0v1456h300v-1456h-300zM-46 1839h205q0 -63 37.5 -97.5t103.5 -34.5q65 0 102 34.5t37 97.5h207q0 -133 -95.5 -215t-250.5 -82t-250.5 81t-95.5 216z" />
    <glyph glyph-name="ibreve" unicode="&#x12d;" horiz-adv-x="561" 
d="M134 0v1082h289v-1082h-289zM-64 1511h205q0 -63 37.5 -97.5t103.5 -34.5q65 0 102 34.5t37 97.5h207q0 -133 -95.5 -215t-250.5 -82t-250.5 81t-95.5 216z" />
    <glyph glyph-name="Iogonek" unicode="&#x12e;" horiz-adv-x="597" 
d="M149 7v1449h300v-1456h-59q-71 -41 -110 -81q-40 -40 -40 -93q0 -65 66 -65q33 0 80 20l29 -157q-73 -44 -165 -44q-100 0 -163.5 55.5t-63.5 153.5q0 129 126 218z" />
    <glyph glyph-name="iogonek" unicode="&#x12f;" horiz-adv-x="543" 
d="M126 3v1079h290v-1082h-42q-74 -42 -114 -82.5t-40 -93.5q0 -65 66 -65q33 0 80 20l29 -157q-73 -44 -165 -44q-100 0 -163.5 55.5t-63.5 153.5q0 128 123 216zM109 1362q0 65 43.5 107t118.5 42q74 0 118 -42t44 -107q0 -66 -44.5 -108t-117.5 -42t-117.5 42t-44.5 108z
" />
    <glyph glyph-name="Idotaccent" unicode="&#x130;" horiz-adv-x="597" 
d="M149 1456h300v-1456h-300v1456zM149 1704q0 60 40.5 98.5t107.5 38.5q69 0 108.5 -38.5t39.5 -98.5t-39.5 -98t-108.5 -38q-68 0 -108 38t-40 98z" />
    <glyph glyph-name="dotlessi" unicode="&#x131;" horiz-adv-x="561" 
d="M423 0h-289v1082h289v-1082z" />
    <glyph glyph-name="IJ" unicode="&#x132;" horiz-adv-x="1741" 
d="M449 0h-300v1456h300v-1456zM1314 1456h300v-1008q0 -139 -61.5 -245.5t-173.5 -164.5t-253 -58q-231 0 -360 117.5t-129 332.5h302q0 -107 45 -158t142 -51q86 0 137 59t51 168v1008z" />
    <glyph glyph-name="ij" unicode="&#x133;" horiz-adv-x="1075" 
d="M416 0h-290v1082h290v-1082zM109 1362q0 65 43.5 107t118.5 42q74 0 118 -42t44 -107q0 -66 -44.5 -108t-117.5 -42t-117.5 42t-44.5 108zM960 1082v-1141q0 -179 -95 -278.5t-274 -99.5q-75 0 -143 17v229q52 -9 91 -9q131 0 131 139v1143h290zM647 1362q0 65 43.5 107
t118.5 42t118.5 -42t43.5 -107q0 -66 -44.5 -108t-117.5 -42t-117.5 42t-44.5 108z" />
    <glyph glyph-name="Jcircumflex" unicode="&#x134;" horiz-adv-x="1144" 
d="M342 430q0 -107 45 -158t142 -51q86 0 137 59t51 168v1008h300v-1008q0 -139 -61.5 -245.5t-173.5 -164.5t-253 -58q-231 0 -360 117.5t-129 332.5h302zM474 1570l296 276h168l300 -280v-12h-230l-154 145l-154 -145h-226v16z" />
    <glyph glyph-name="jcircumflex" unicode="&#x135;" horiz-adv-x="577" 
d="M-83 -420l14 229q44 -12 98 -12q121 0 121 176v1109h289v-1118q-1 -192 -100.5 -296.5t-279.5 -104.5q-77 0 -142 17zM-105 1234l296 276h168l300 -280v-12h-230l-154 145l-154 -145h-226v16z" />
    <glyph glyph-name="uni0136" unicode="&#x136;" horiz-adv-x="1300" 
d="M430 1456v-660l132 181l371 479h369l-517 -647l532 -809h-357l-374 584l-156 -168v-416h-300v1456h300zM472 -375q73 115 76 242v103h212v-71q0 -93 -41.5 -192t-103.5 -161z" />
    <glyph glyph-name="uni0137" unicode="&#x137;" horiz-adv-x="1094" 
d="M111 1536h289v-851l56 72l277 325h347l-391 -451l425 -631h-332l-278 434l-104 -104v-330h-289v1536zM459 -155v103h212v-71q0 -93 -41.5 -192t-103.5 -161l-143 79q73 115 76 242z" />
    <glyph glyph-name="kgreenlandic" unicode="&#x138;" horiz-adv-x="1208" 
d="M130 0v1082h289v-407h87l282 407h365l-380 -521l397 -561h-371l-262 399h-118v-399h-289z" />
    <glyph glyph-name="Lacute" unicode="&#x139;" horiz-adv-x="1109" 
d="M430 241h637v-241h-937v1456h300v-1215zM344 1846h315l-277 -310h-235z" />
    <glyph glyph-name="lacute" unicode="&#x13a;" horiz-adv-x="543" 
d="M416 0h-290v1536h290v-1536zM329 1928h315l-277 -310h-235z" />
    <glyph glyph-name="uni013B" unicode="&#x13b;" horiz-adv-x="1109" 
d="M130 0v1456h300v-1215h637v-241h-937zM421 -427q73 115 76 242v103h212v-71q0 -93 -41.5 -192t-103.5 -161z" />
    <glyph glyph-name="uni013C" unicode="&#x13c;" horiz-adv-x="543" 
d="M126 1536h290v-1536h-290v1536zM167 -185v103h212v-71q0 -93 -41.5 -192t-103.5 -161l-143 79q73 115 76 242z" />
    <glyph glyph-name="Lcaron" unicode="&#x13d;" horiz-adv-x="1109" 
d="M430 1456v-1215h637v-241h-937v1456h300zM620 1111q73 115 76 242v103h212v-71q0 -93 -41.5 -192t-103.5 -161z" />
    <glyph glyph-name="lcaron" unicode="&#x13e;" horiz-adv-x="693" 
d="M126 0v1536h290v-1536h-290zM495 1192q73 115 76 242v103h212v-71q0 -93 -41.5 -192t-103.5 -161z" />
    <glyph glyph-name="Ldot" unicode="&#x13f;" horiz-adv-x="1109" 
d="M130 0v1456h300v-1215h637v-241h-937zM633 928q40 38 107 38q69 0 108.5 -38.5t39.5 -98.5t-39.5 -98t-108.5 -38q-68 0 -108 38t-40 98t41 99z" />
    <glyph glyph-name="ldot" unicode="&#x140;" horiz-adv-x="763" 
d="M126 1536h290v-1536h-290v1536zM513 773q0 60 40.5 98.5t107.5 38.5q69 0 108.5 -38.5t39.5 -98.5t-39.5 -98t-108.5 -38q-68 0 -108 38t-40 98z" />
    <glyph glyph-name="Lslash" unicode="&#x141;" horiz-adv-x="1142" 
d="M29 770l134 38v648h300v-561l215 62v-166l-215 -62v-488h637v-241h-937v642l-134 -38v166z" />
    <glyph glyph-name="lslash" unicode="&#x142;" horiz-adv-x="626" 
d="M30 770l132 44v722h289v-626l142 47v-166l-142 -47v-744h-289v648l-132 -44v166z" />
    <glyph glyph-name="Nacute" unicode="&#x143;" horiz-adv-x="1446" 
d="M430 1456l585 -960v960h299v-1456h-300l-584 958v-958h-300v1456h300zM587 1536l197 310h315l-277 -310h-235z" />
    <glyph glyph-name="nacute" unicode="&#x144;" horiz-adv-x="1147" 
d="M105 0v1082h272l9 -125q116 145 311 145q172 0 256 -101t86 -302v-699h-289v692q0 92 -40 133.5t-133 41.5q-122 0 -183 -104v-763h-289zM633 1536h315l-277 -310h-235z" />
    <glyph glyph-name="uni0145" unicode="&#x145;" horiz-adv-x="1446" 
d="M130 0v1456h300l585 -960v960h299v-1456h-300l-584 958v-958h-300zM544 -435q73 115 76 242v103h212v-71q0 -93 -41.5 -192t-103.5 -161z" />
    <glyph glyph-name="uni0146" unicode="&#x146;" horiz-adv-x="1147" 
d="M105 0v1082h272l9 -125q116 145 311 145q172 0 256 -101t86 -302v-699h-289v692q0 92 -40 133.5t-133 41.5q-122 0 -183 -104v-763h-289zM392 -427q73 115 76 242v103h212v-71q0 -93 -41.5 -192t-103.5 -161z" />
    <glyph glyph-name="Ncaron" unicode="&#x147;" horiz-adv-x="1446" 
d="M130 0v1456h300l585 -960v960h299v-1456h-300l-584 958v-958h-300zM332 1847h247l147 -143l146 143h247v-11l-302 -281h-183l-302 283v9z" />
    <glyph glyph-name="ncaron" unicode="&#x148;" horiz-adv-x="1147" 
d="M105 0v1082h272l9 -125q116 145 311 145q172 0 256 -101t86 -302v-699h-289v692q0 92 -40 133.5t-133 41.5q-122 0 -183 -104v-763h-289zM181 1528v9h247l147 -143l146 143h247v-11l-302 -281h-183z" />
    <glyph glyph-name="napostrophe" unicode="&#x149;" horiz-adv-x="1147" 
d="M105 0v1082h272l9 -125q116 145 311 145q172 0 256 -101t86 -302v-699h-289v692q0 92 -40 133.5t-133 41.5q-122 0 -183 -104v-763h-289zM-110 1191q73 115 76 242v103h212v-71q0 -93 -41.5 -192t-103.5 -161z" />
    <glyph glyph-name="Eng" unicode="&#x14a;" horiz-adv-x="1440" 
d="M128 1456h301l583 -979v979h300v-1482q0 -196 -102 -303.5t-285 -107.5q-81 0 -147 17l14 238q46 -12 99 -12q121 0 121 174v20l-583 980v-980h-301v1456z" />
    <glyph glyph-name="eng" unicode="&#x14b;" horiz-adv-x="1156" 
d="M108 1082h269l13 -152q113 172 309 172q172 0 259.5 -110t88.5 -326v-700q0 -194 -101 -298.5t-280 -104.5q-78 0 -143 17l14 231q45 -12 99 -12q121 0 121 173v688q0 108 -39 157.5t-125 49.5q-128 0 -196 -87v-780h-289v1082z" />
    <glyph glyph-name="Omacron" unicode="&#x14c;" horiz-adv-x="1414" 
d="M164 1138q77 163 218.5 250.5t323.5 87.5t323.5 -87.5t219 -251t77.5 -377.5v-65q0 -215 -76 -377t-217.5 -250t-324.5 -88q-181 0 -323 87t-220 248.5t-79 371.5v72q0 215 78 379zM390 695q0 -223 82 -346t236 -123q151 0 232 118.5t82 345.5v71q0 229 -82 348t-234 119
q-151 0 -233 -117.5t-83 -344.5v-71zM1053 1762v-167h-690v167h690z" />
    <glyph glyph-name="omacron" unicode="&#x14d;" horiz-adv-x="1158" 
d="M66 538v13q0 161 62 287t178.5 195t270.5 69q219 0 357.5 -134t154.5 -364l2 -74q0 -249 -139 -399.5t-373 -150.5t-373.5 150t-139.5 408zM355 530q0 -154 58 -235.5t166 -81.5q105 0 164 80.5t59 257.5q0 151 -59 234t-166 83q-106 0 -164 -82.5t-58 -255.5zM233 1286
v167h690v-167h-690z" />
    <glyph glyph-name="Obreve" unicode="&#x14e;" horiz-adv-x="1414" 
d="M164 1138q77 163 218.5 250.5t323.5 87.5t323.5 -87.5t219 -251t77.5 -377.5v-65q0 -215 -76 -377t-217.5 -250t-324.5 -88q-181 0 -323 87t-220 248.5t-79 371.5v72q0 215 78 379zM390 695q0 -223 82 -346t236 -123q151 0 232 118.5t82 345.5v71q0 229 -82 348t-234 119
q-151 0 -233 -117.5t-83 -344.5v-71zM361 1836h205q0 -63 37.5 -97.5t103.5 -34.5q65 0 102 34.5t37 97.5h207q0 -133 -95.5 -215t-250.5 -82t-250.5 81t-95.5 216z" />
    <glyph glyph-name="obreve" unicode="&#x14f;" horiz-adv-x="1158" 
d="M66 551q0 161 62 287t178.5 195t270.5 69q219 0 357.5 -134t154.5 -364l2 -74q0 -249 -139 -399.5t-373 -150.5t-373.5 150t-139.5 408v13zM355 530q0 -154 58 -235.5t166 -81.5q105 0 164 80.5t59 257.5q0 151 -59 234t-166 83q-106 0 -164 -82.5t-58 -255.5zM231 1526
h205q0 -63 37.5 -97.5t103.5 -34.5q65 0 102 34.5t37 97.5h207q0 -133 -95.5 -215t-250.5 -82t-250.5 81t-95.5 216z" />
    <glyph glyph-name="Ohungarumlaut" unicode="&#x150;" horiz-adv-x="1414" 
d="M86 759q0 215 77.5 378.5t219 251t323.5 87.5t323.5 -87.5t219 -251t77.5 -377.5v-65q0 -215 -76 -377t-217.5 -250t-324.5 -88q-181 0 -323 87t-220 248.5t-79 371.5v72zM472 349q82 -123 236 -123q151 0 232 118.5t82 345.5v71q0 229 -82 348t-234 119
q-151 0 -233 -117.5t-83 -344.5v-71q0 -223 82 -346zM978 1845h259l-266 -301h-218zM401 1544l186 301h255l-229 -301h-212z" />
    <glyph glyph-name="ohungarumlaut" unicode="&#x151;" horiz-adv-x="1158" 
d="M66 538v13q0 161 62 287t178.5 195t270.5 69q219 0 357.5 -134t154.5 -364l2 -74q0 -249 -139 -399.5t-373 -150.5t-373.5 150t-139.5 408zM355 530q0 -154 58 -235.5t166 -81.5q105 0 164 80.5t59 257.5q0 151 -59 234t-166 83q-106 0 -164 -82.5t-58 -255.5zM623 1234
l225 301h259l-266 -301h-218zM271 1234l186 301h255l-229 -301h-212z" />
    <glyph glyph-name="OE" unicode="&#x152;" horiz-adv-x="1983" 
d="M96 563v317q0 173 75.5 309.5t214 211.5t314.5 75q123 0 290 -20h884v-243h-673v-347h575v-235h-575v-390h675v-241h-886q-167 -20 -288 -20q-174 0 -312 73.5t-214.5 207t-79.5 302.5zM385 885v-309q0 -176 83.5 -270t233.5 -94q94 0 198 13v1004q-112 14 -200 14
q-150 0 -232 -92.5t-83 -265.5z" />
    <glyph glyph-name="oe" unicode="&#x153;" horiz-adv-x="1847" 
d="M83 538v13q0 161 61 286.5t177 195t270 69.5q231 0 371 -149q132 149 343 149h6q214 0 337 -129t123 -365v-158h-654q16 -113 81.5 -175.5t168.5 -62.5q85 0 152 16.5t149 61.5l79 -187q-73 -58 -182 -90.5t-228 -32.5q-233 0 -373 149q-138 -149 -371 -149t-371.5 149.5
t-138.5 408.5zM372 530q0 -155 56.5 -236.5t164.5 -81.5q106 0 163 80.5t57 258.5q0 153 -58 235t-164 82q-105 0 -162 -82t-57 -256zM1487 647v26q0 97 -46.5 146t-129.5 49q-77 0 -126 -57t-65 -164h367z" />
    <glyph glyph-name="Racute" unicode="&#x154;" horiz-adv-x="1307" 
d="M130 1456h541q258 0 398 -115t140 -325q0 -149 -64.5 -248.5t-195.5 -158.5l315 -595v-14h-322l-273 533h-239v-533h-300v1456zM430 776h242q113 0 175 57.5t62 158.5q0 103 -58.5 162t-179.5 59h-241v-437zM459 1536l197 310h315l-277 -310h-235z" />
    <glyph glyph-name="racute" unicode="&#x155;" horiz-adv-x="747" 
d="M111 0v1082h273l8 -129q87 149 241 149q48 0 90 -13l-4 -278q-59 8 -104 8q-164 0 -215 -111v-708h-289zM271 1226l197 310h315l-277 -310h-235z" />
    <glyph glyph-name="uni0156" unicode="&#x156;" horiz-adv-x="1307" 
d="M130 1456h541q258 0 398 -115t140 -325q0 -149 -64.5 -248.5t-195.5 -158.5l315 -595v-14h-322l-273 533h-239v-533h-300v1456zM430 776h242q113 0 175 57.5t62 158.5q0 103 -58.5 162t-179.5 59h-241v-437zM432 -427q73 115 76 242v103h212v-71q0 -93 -41.5 -192
t-103.5 -161z" />
    <glyph glyph-name="uni0157" unicode="&#x157;" horiz-adv-x="747" 
d="M111 1082h273l8 -129q87 149 241 149q48 0 90 -13l-4 -278q-59 8 -104 8q-164 0 -215 -111v-708h-289v1082zM80 -427q73 115 76 242v103h212v-71q0 -93 -41.5 -192t-103.5 -161z" />
    <glyph glyph-name="Rcaron" unicode="&#x158;" horiz-adv-x="1307" 
d="M130 1456h541q258 0 398 -115t140 -325q0 -149 -64.5 -248.5t-195.5 -158.5l315 -595v-14h-322l-273 533h-239v-533h-300v1456zM430 776h242q113 0 175 57.5t62 158.5q0 103 -58.5 162t-179.5 59h-241v-437zM204 1847h247l147 -143l146 143h247v-11l-302 -281h-183
l-302 283v9z" />
    <glyph glyph-name="rcaron" unicode="&#x159;" horiz-adv-x="747" 
d="M111 1082h273l8 -129q87 149 241 149q48 0 90 -13l-4 -278q-59 8 -104 8q-164 0 -215 -111v-708h-289v1082zM264 1537l147 -143l146 143h247v-11l-302 -281h-183l-302 283v9h247z" />
    <glyph glyph-name="Sacute" unicode="&#x15a;" horiz-adv-x="1259" 
d="M69 458h301q0 -241 288 -241q107 0 167 43.5t60 121.5q0 85 -60 130.5t-216 96t-247 99.5q-248 134 -248 361q0 118 66.5 210.5t191 144.5t279.5 52q156 0 278 -56.5t189.5 -159.5t67.5 -234h-300q0 100 -63 155.5t-177 55.5q-110 0 -171 -46.5t-61 -122.5
q0 -71 71.5 -119t210.5 -90q256 -77 373 -191t117 -284q0 -189 -143 -296.5t-385 -107.5q-168 0 -306 61.5t-210.5 168.5t-72.5 248zM706 1846h315l-277 -310h-235z" />
    <glyph glyph-name="sacute" unicode="&#x15b;" horiz-adv-x="1053" 
d="M56 344h274q4 -77 57 -118t142 -41q83 0 125.5 31.5t42.5 82.5q0 53 -52.5 83.5t-168.5 54.5q-386 81 -386 328q0 144 119.5 240.5t312.5 96.5q206 0 329.5 -97t123.5 -252h-289q0 62 -40 102.5t-125 40.5q-73 0 -113 -33t-40 -84q0 -48 45.5 -77.5t153.5 -51t182 -48.5
q229 -84 229 -291q0 -148 -127 -239.5t-328 -91.5q-136 0 -241.5 48.5t-165.5 133t-60 182.5zM587 1536h315l-277 -310h-235z" />
    <glyph glyph-name="Scircumflex" unicode="&#x15c;" horiz-adv-x="1259" 
d="M370 458q0 -241 288 -241q107 0 167 43.5t60 121.5q0 85 -60 130.5t-216 96t-247 99.5q-248 134 -248 361q0 118 66.5 210.5t191 144.5t279.5 52q156 0 278 -56.5t189.5 -159.5t67.5 -234h-300q0 100 -63 155.5t-177 55.5q-110 0 -171 -46.5t-61 -122.5q0 -71 71.5 -119
t210.5 -90q256 -77 373 -191t117 -284q0 -189 -143 -296.5t-385 -107.5q-168 0 -306 61.5t-210.5 168.5t-72.5 248h301zM564 1846h168l300 -280v-12h-230l-154 145l-154 -145h-226v16z" />
    <glyph glyph-name="scircumflex" unicode="&#x15d;" horiz-adv-x="1053" 
d="M56 344h274q4 -77 57 -118t142 -41q83 0 125.5 31.5t42.5 82.5q0 53 -52.5 83.5t-168.5 54.5q-386 81 -386 328q0 144 119.5 240.5t312.5 96.5q206 0 329.5 -97t123.5 -252h-289q0 62 -40 102.5t-125 40.5q-73 0 -113 -33t-40 -84q0 -48 45.5 -77.5t153.5 -51t182 -48.5
q229 -84 229 -291q0 -148 -127 -239.5t-328 -91.5q-136 0 -241.5 48.5t-165.5 133t-60 182.5zM445 1536h168l300 -280v-12h-230l-154 145l-154 -145h-226v16z" />
    <glyph glyph-name="Scedilla" unicode="&#x15e;" horiz-adv-x="1259" 
d="M370 458q0 -241 288 -241q107 0 167 43.5t60 121.5q0 85 -60 130.5t-216 96t-247 99.5q-248 134 -248 361q0 118 66.5 210.5t191 144.5t279.5 52q156 0 278 -56.5t189.5 -159.5t67.5 -234h-300q0 100 -63 155.5t-177 55.5q-110 0 -171 -46.5t-61 -122.5q0 -71 71.5 -119
t210.5 -90q256 -77 373 -191t117 -284q0 -189 -143 -296q-112 -85 -286 -103l-7 -36q150 -27 150 -173q0 -110 -91.5 -174t-257.5 -64l-7 167q112 0 112 81q0 42 -33.5 57.5t-108.5 20.5l27 124q-101 14 -189 54q-138 61 -210.5 168t-72.5 248h301z" />
    <glyph glyph-name="scedilla" unicode="&#x15f;" horiz-adv-x="1053" 
d="M330 344q4 -77 57 -118t142 -41q83 0 125.5 31.5t42.5 82.5q0 53 -52.5 83.5t-168.5 54.5q-386 81 -386 328q0 144 119.5 240.5t312.5 96.5q206 0 329.5 -97t123.5 -252h-289q0 62 -40 102.5t-125 40.5q-73 0 -113 -33t-40 -84q0 -48 45.5 -77.5t153.5 -51t182 -48.5
q229 -84 229 -291q0 -148 -127 -239q-88 -64 -212 -83l-9 -49q150 -27 150 -173q0 -110 -91.5 -174t-257.5 -64l-7 167q112 0 112 81q0 42 -33.5 57.5t-108.5 20.5l29 132q-77 12 -141 42q-106 48 -166 132.5t-60 182.5h274z" />
    <glyph glyph-name="Scaron" unicode="&#x160;" horiz-adv-x="1259" 
d="M69 458h301q0 -241 288 -241q107 0 167 43.5t60 121.5q0 85 -60 130.5t-216 96t-247 99.5q-248 134 -248 361q0 118 66.5 210.5t191 144.5t279.5 52q156 0 278 -56.5t189.5 -159.5t67.5 -234h-300q0 100 -63 155.5t-177 55.5q-110 0 -171 -46.5t-61 -122.5
q0 -71 71.5 -119t210.5 -90q256 -77 373 -191t117 -284q0 -189 -143 -296.5t-385 -107.5q-168 0 -306 61.5t-210.5 168.5t-72.5 248zM501 1847l147 -143l146 143h247v-11l-302 -281h-183l-302 283v9h247z" />
    <glyph glyph-name="scaron" unicode="&#x161;" horiz-adv-x="1053" 
d="M330 344q4 -77 57 -118t142 -41q83 0 125.5 31.5t42.5 82.5q0 53 -52.5 83.5t-168.5 54.5q-386 81 -386 328q0 144 119.5 240.5t312.5 96.5q206 0 329.5 -97t123.5 -252h-289q0 62 -40 102.5t-125 40.5q-73 0 -113 -33t-40 -84q0 -48 45.5 -77.5t153.5 -51t182 -48.5
q229 -84 229 -291q0 -148 -127 -239.5t-328 -91.5q-136 0 -241.5 48.5t-165.5 133t-60 182.5h274zM382 1537l147 -143l146 143h247v-11l-302 -281h-183l-302 283v9h247z" />
    <glyph glyph-name="uni0162" unicode="&#x162;" horiz-adv-x="1267" 
d="M40 1213v243h1186v-243h-446v-1213h-43l-8 -44q150 -27 150 -173q0 -110 -91.5 -174t-257.5 -64l-7 167q112 0 112 81q0 42 -33.5 57.5t-108.5 20.5l28 129h-41v1213h-440z" />
    <glyph glyph-name="uni0163" unicode="&#x163;" horiz-adv-x="692" 
d="M168 1082v266h289v-266h185v-212h-185v-540q0 -60 23 -86t88 -26q48 0 85 7v-219q-55 -17 -113 -23l-6 -34q150 -27 150 -173q0 -110 -91.5 -174t-257.5 -64l-7 167q112 0 112 81q0 42 -33.5 57.5t-108.5 20.5l31 141q-157 63 -161 282v583h-158v212h158z" />
    <glyph glyph-name="Tcaron" unicode="&#x164;" horiz-adv-x="1267" 
d="M40 1213v243h1186v-243h-446v-1213h-300v1213h-440zM234 1838v9h247l147 -143l146 143h247v-11l-302 -281h-183z" />
    <glyph glyph-name="tcaron" unicode="&#x165;" horiz-adv-x="732" 
d="M168 1082v266h289v-266h185v-212h-185v-540q0 -60 23 -86t88 -26q48 0 85 7v-219q-85 -26 -175 -26q-304 0 -310 307v583h-158v212h158zM637 1564v103h212v-71q0 -93 -41.5 -192t-103.5 -161l-143 79q73 115 76 242z" />
    <glyph glyph-name="Tbar" unicode="&#x166;" horiz-adv-x="1267" 
d="M40 1456h1186v-243h-446v-281h184v-183h-184v-749h-300v749h-215v183h215v281h-440v243z" />
    <glyph glyph-name="tbar" unicode="&#x167;" horiz-adv-x="692" 
d="M168 715v155h-158v212h158v266h289v-266h185v-212h-185v-155h212v-183h-212v-202q0 -60 23 -86t88 -26q48 0 85 7v-219q-85 -26 -175 -26q-303 0 -310 305v247h-198v183h198z" />
    <glyph glyph-name="Utilde" unicode="&#x168;" horiz-adv-x="1348" 
d="M116 1456h300v-961q0 -143 68.5 -208.5t189.5 -65.5q253 0 257 266v969h301v-959q0 -239 -149.5 -378t-408.5 -139q-255 0 -405 135t-153 371v970zM293 1566q0 111 65.5 189t160.5 78q30 0 56.5 -7.5t86.5 -36.5t83 -35t48 -6q35 0 60.5 24.5t25.5 70.5l167 -11
q0 -113 -66 -189.5t-161 -76.5q-38 0 -67.5 8.5t-81.5 36.5t-75 34.5t-50 6.5q-35 0 -59.5 -25t-24.5 -71z" />
    <glyph glyph-name="utilde" unicode="&#x169;" horiz-adv-x="1146" 
d="M104 373v709h289v-699q0 -169 154 -169q147 0 202 102v766h290v-1082h-272l-8 110q-107 -130 -296 -130q-174 0 -265.5 100t-93.5 293zM195 1257q0 111 65.5 189t160.5 78q30 0 56.5 -7.5t86.5 -36.5t83 -35t48 -6q35 0 60.5 24.5t25.5 70.5l167 -11q0 -113 -66 -189.5
t-161 -76.5q-38 0 -67.5 8.5t-81.5 36.5t-75 34.5t-50 6.5q-35 0 -59.5 -25t-24.5 -71z" />
    <glyph glyph-name="Umacron" unicode="&#x16a;" horiz-adv-x="1348" 
d="M416 1456v-961q0 -143 68.5 -208.5t189.5 -65.5q253 0 257 266v969h301v-959q0 -239 -149.5 -378t-408.5 -139q-255 0 -405 135t-153 371v970h300zM327 1762h690v-167h-690v167z" />
    <glyph glyph-name="umacron" unicode="&#x16b;" horiz-adv-x="1146" 
d="M393 1082v-699q0 -169 154 -169q147 0 202 102v766h290v-1082h-272l-8 110q-107 -130 -296 -130q-174 0 -265.5 100t-93.5 293v709h289zM229 1453h690v-167h-690v167z" />
    <glyph glyph-name="Ubreve" unicode="&#x16c;" horiz-adv-x="1348" 
d="M116 1456h300v-961q0 -143 68.5 -208.5t189.5 -65.5q253 0 257 266v969h301v-959q0 -239 -149.5 -378t-408.5 -139q-255 0 -405 135t-153 371v970zM325 1836h205q0 -63 37.5 -97.5t103.5 -34.5q65 0 102 34.5t37 97.5h207q0 -133 -95.5 -215t-250.5 -82t-250.5 81
t-95.5 216z" />
    <glyph glyph-name="ubreve" unicode="&#x16d;" horiz-adv-x="1146" 
d="M104 373v709h289v-699q0 -169 154 -169q147 0 202 102v766h290v-1082h-272l-8 110q-107 -130 -296 -130q-174 0 -265.5 100t-93.5 293zM227 1526h205q0 -63 37.5 -97.5t103.5 -34.5q65 0 102 34.5t37 97.5h207q0 -133 -95.5 -215t-250.5 -82t-250.5 81t-95.5 216z" />
    <glyph glyph-name="Uring" unicode="&#x16e;" horiz-adv-x="1348" 
d="M116 1456h300v-961q0 -143 68.5 -208.5t189.5 -65.5q253 0 257 266v969h301v-959q0 -239 -149.5 -378t-408.5 -139q-255 0 -405 135t-153 371v970zM513 1876q65 59 158 59q92 0 157.5 -58.5t65.5 -146.5q0 -85 -64 -143t-159 -58q-97 0 -160 59t-63 142q0 86 65 146z
M592 1655q29 -32 79 -32t79 31.5t29 75.5q0 46 -29.5 77.5t-78.5 31.5t-78.5 -31.5t-29.5 -77.5q0 -44 29 -75z" />
    <glyph glyph-name="uring" unicode="&#x16f;" horiz-adv-x="1146" 
d="M393 1082v-699q0 -169 154 -169q147 0 202 102v766h290v-1082h-272l-8 110q-107 -130 -296 -130q-174 0 -265.5 100t-93.5 293v709h289zM415 1566q65 59 158 59q92 0 157.5 -58.5t65.5 -146.5q0 -85 -64 -143t-159 -58q-97 0 -160 59t-63 142q0 86 65 146zM494 1345
q29 -32 79 -32t79 31.5t29 75.5q0 46 -29.5 77.5t-78.5 31.5t-78.5 -31.5t-29.5 -77.5q0 -44 29 -75z" />
    <glyph glyph-name="Uhungarumlaut" unicode="&#x170;" horiz-adv-x="1348" 
d="M416 1456v-961q0 -143 68.5 -208.5t189.5 -65.5q253 0 257 266v969h301v-959q0 -239 -149.5 -378t-408.5 -139q-255 0 -405 135t-153 371v970h300zM717 1544l225 301h259l-266 -301h-218zM365 1544l186 301h255l-229 -301h-212z" />
    <glyph glyph-name="uhungarumlaut" unicode="&#x171;" horiz-adv-x="1146" 
d="M104 1082h289v-699q0 -169 154 -169q147 0 202 102v766h290v-1082h-272l-8 110q-107 -130 -296 -130q-174 0 -265.5 100t-93.5 293v709zM619 1234l225 301h259l-266 -301h-218zM267 1234l186 301h255l-229 -301h-212z" />
    <glyph glyph-name="Uogonek" unicode="&#x172;" horiz-adv-x="1348" 
d="M416 1456v-961q0 -143 68.5 -208.5t189.5 -65.5q253 0 257 266v969h301v-961q0 -165 -70 -279t-190 -173q-56 -35 -85 -70.5t-29 -81.5q0 -65 66 -65q33 0 80 20l29 -157q-73 -44 -165 -44q-100 0 -163.5 55.5t-63.5 153.5q0 72 34 126q-259 0 -409 137.5t-150 381.5v957
h300z" />
    <glyph glyph-name="uogonek" unicode="&#x173;" horiz-adv-x="1146" 
d="M393 1082v-699q0 -169 154 -169q147 0 202 102v766h290v-1082h-31q-74 -42 -114 -82.5t-40 -93.5q0 -65 66 -65q33 0 80 20l29 -157q-73 -44 -165 -44q-100 0 -163.5 55.5t-63.5 153.5q0 134 129 222l-7 101q-107 -130 -296 -130q-174 0 -265.5 100t-93.5 293v709h289z
" />
    <glyph glyph-name="Wcircumflex" unicode="&#x174;" horiz-adv-x="1791" 
d="M35 1456h299l197 -1034l240 1034h254l239 -1036l196 1036h299l-323 -1456h-302l-237 974l-237 -974h-302zM819 1846h168l300 -280v-12h-230l-154 145l-154 -145h-226v16z" />
    <glyph glyph-name="wcircumflex" unicode="&#x175;" horiz-adv-x="1505" 
d="M28 1082h279l141 -688l198 688h209l197 -689l142 689h279l-276 -1082h-242l-205 681l-205 -681h-241zM369 1244v16l296 276h168l300 -280v-12h-230l-154 145l-154 -145h-226z" />
    <glyph glyph-name="Ycircumflex" unicode="&#x176;" horiz-adv-x="1266" 
d="M331 1456l301 -656l303 656h328l-478 -928v-528h-305v528l-478 928h329zM255 1570l296 276h168l300 -280v-12h-230l-154 145l-154 -145h-226v16z" />
    <glyph glyph-name="ycircumflex" unicode="&#x177;" horiz-adv-x="1028" 
d="M314 1082l201 -673l200 673h310l-435 -1250l-24 -57q-97 -212 -320 -212q-63 0 -128 19v219l44 -1q82 0 122.5 25t63.5 83l34 89l-379 1085h311zM140 1244v16l296 276h168l300 -280v-12h-230l-154 145l-154 -145h-226z" />
    <glyph glyph-name="Ydieresis" unicode="&#x178;" horiz-adv-x="1266" 
d="M331 1456l301 -656l303 656h328l-478 -928v-528h-305v528l-478 928h329zM740 1675q0 54 40.5 90.5t98.5 36.5q59 0 98.5 -37t39.5 -90q0 -52 -38 -89.5t-100 -37.5t-100.5 37.5t-38.5 89.5zM291 1765q38 37 100 37t100.5 -37.5t38.5 -89.5q0 -53 -39 -89.5t-100 -36.5
q-62 0 -100 37t-38 89t38 90z" />
    <glyph glyph-name="Zacute" unicode="&#x179;" horiz-adv-x="1241" 
d="M448 241h734v-241h-1109v176l720 1037h-719v243h1092v-172zM687 1846h315l-277 -310h-235z" />
    <glyph glyph-name="zacute" unicode="&#x17a;" horiz-adv-x="1042" 
d="M443 233h529v-233h-898v176l509 672h-494v234h867v-171zM580 1536h315l-277 -310h-235z" />
    <glyph glyph-name="Zdotaccent" unicode="&#x17b;" horiz-adv-x="1241" 
d="M73 176l720 1037h-719v243h1092v-172l-718 -1043h734v-241h-1109v176zM521 1800q40 38 107 38q69 0 108.5 -38.5t39.5 -98.5t-39.5 -98t-108.5 -38q-68 0 -108 38t-40 98t41 99z" />
    <glyph glyph-name="zdotaccent" unicode="&#x17c;" horiz-adv-x="1042" 
d="M74 0v176l509 672h-494v234h867v-171l-513 -678h529v-233h-898zM414 1490q40 38 107 38q69 0 108.5 -38.5t39.5 -98.5t-39.5 -98t-108.5 -38q-68 0 -108 38t-40 98t41 99z" />
    <glyph glyph-name="Zcaron" unicode="&#x17d;" horiz-adv-x="1241" 
d="M73 0v176l720 1037h-719v243h1092v-172l-718 -1043h734v-241h-1109zM235 1847h247l147 -143l146 143h247v-11l-302 -281h-183l-302 283v9z" />
    <glyph glyph-name="zcaron" unicode="&#x17e;" horiz-adv-x="1042" 
d="M583 848h-494v234h867v-171l-513 -678h529v-233h-898v176zM128 1528v9h247l147 -143l146 143h247v-11l-302 -281h-183z" />
    <glyph glyph-name="longs" unicode="&#x17f;" horiz-adv-x="531" 
d="M117 1174q0 183 103.5 283t294.5 100q64 0 160 -21l-24 -223q-44 10 -97 10q-148 0 -148 -153v-1170h-289v1174z" />
    <glyph glyph-name="uni0180" unicode="&#x180;" horiz-adv-x="1239" 
d="M24 1393h173v143h289v-143h237v-183h-237v-225q100 117 263 117q198 0 310.5 -145.5t112.5 -409.5v-16q0 -260 -111 -405.5t-310 -145.5q-176 0 -281 135l-13 -115h-260v1210h-173v183zM486 327q53 -114 192 -114q140 0 184 138q21 66 21 201q0 164 -52 239.5t-155 75.5
q-138 0 -190 -113v-427z" />
    <glyph glyph-name="uni0181" unicode="&#x181;" horiz-adv-x="1609" 
d="M434 0v1213q-73 -2 -111 -49t-38 -135q0 -42 8 -86h-239q-17 68 -17 144q0 173 100.5 269.5t292.5 99.5h514q266 0 403 -102.5t137 -296.5q0 -107 -55 -188.5t-153 -119.5q113 -28 176.5 -113.5t63.5 -207.5q0 -210 -134 -318t-382 -110h-566zM735 634v-393h256
q106 0 165.5 50.5t59.5 139.5q0 196 -198 203h-283zM735 846h210q238 0 238 181q0 99 -57.5 142.5t-181.5 43.5h-209v-367z" />
    <glyph glyph-name="uni0182" unicode="&#x182;" horiz-adv-x="1283" 
d="M1081 1213h-653v-1213h-300v1456h953v-243zM430 931h234q257 0 407.5 -124.5t150.5 -335.5q0 -212 -149.5 -340.5t-397.5 -130.5h-547v1456h302v-525zM430 689v-448h239q115 0 183.5 63t68.5 169q0 99 -65.5 156.5t-179.5 59.5h-246z" />
    <glyph glyph-name="uni0183" unicode="&#x183;" horiz-adv-x="1153" 
d="M885 1536v-183h-485v-368q100 117 263 117q198 0 310.5 -145.5t112.5 -409.5v-16q0 -260 -111 -405.5t-310 -145.5q-176 0 -281 135l-13 -115h-260v1536h774zM797 552q0 164 -52 239.5t-155 75.5q-138 0 -190 -113v-427q53 -114 192 -114q140 0 184 138q21 66 21 201z
" />
    <glyph glyph-name="uni0184" unicode="&#x184;" horiz-adv-x="1406" 
d="M554 1456v-525h234q258 0 408 -124t150 -336q0 -214 -150.5 -342.5t-408.5 -128.5h-534v967l-184 174v139l184 176h301zM554 689v-448h240q116 0 183.5 63.5t67.5 168.5q0 98 -64.5 156t-179.5 60h-247z" />
    <glyph glyph-name="uni0185" unicode="&#x185;" horiz-adv-x="1281" 
d="M1215 531q0 -260 -111 -405.5t-310 -145.5q-176 0 -281 135l-13 -115h-260v1047l-184 174v139l184 176h289v-551q100 117 263 117q198 0 310.5 -145.5t112.5 -409.5v-16zM926 552q0 164 -52 239.5t-155 75.5q-138 0 -190 -113v-427q53 -114 192 -114q140 0 184 138
q21 66 21 201z" />
    <glyph glyph-name="uni0186" unicode="&#x186;" horiz-adv-x="1340" 
d="M365 493q11 -141 78.5 -204.5t205.5 -63.5q150 0 224 107.5t76 333.5v110q0 236 -71.5 345t-225.5 109q-136 0 -204.5 -60.5t-81.5 -199.5h-300q15 232 172.5 369t413.5 137q278 0 440 -188t162 -519v-89q0 -210 -74.5 -370t-211.5 -245t-319 -85q-252 0 -407 135.5
t-177 377.5h300z" />
    <glyph glyph-name="uni0187" unicode="&#x187;" horiz-adv-x="1478" 
d="M1273 485q-17 -235 -173.5 -370t-412.5 -135q-280 0 -440.5 188.5t-160.5 517.5v89q0 210 74 370t211.5 245.5t319.5 85.5q228 0 375 -110q42 103 130 156.5t214 53.5q75 0 145 -17v-241q-52 9 -86 9q-189 0 -194 -143v-222h-300q-11 141 -78.5 204.5t-205.5 63.5
q-150 0 -224.5 -107.5t-76.5 -333.5v-110q0 -236 71.5 -345t225.5 -109q139 0 207.5 63.5t78.5 196.5h300z" />
    <glyph glyph-name="uni0188" unicode="&#x188;" horiz-adv-x="1207" 
d="M561 213q80 0 130 44t52 117h271q-1 -110 -60 -201.5t-161.5 -142t-226.5 -50.5q-232 0 -366 147.5t-134 407.5v19q0 250 133 399t365 149q163 0 279 -79q69 179 287 179q63 0 123 -15v-194q-44 7 -73 7q-166 0 -166 -145v-176h-271q-2 84 -52 136.5t-132 52.5
q-101 0 -152.5 -73.5t-51.5 -238.5v-30q0 -167 51 -240t155 -73z" />
    <glyph glyph-name="uni0189" unicode="&#x189;" horiz-adv-x="1408" 
d="M207 0v1456h448q192 0 343.5 -86.5t236.5 -246t85 -362.5v-67q0 -203 -83.5 -361t-235.5 -245t-343 -88h-451zM507 1213v-972h145q176 0 269 115t95 329v77q0 222 -92 336.5t-269 114.5h-148zM725 649h-699v183h699v-183z" />
    <glyph glyph-name="uni018A" unicode="&#x18a;" horiz-adv-x="1637" 
d="M436 0v1213q-151 -3 -151 -184q0 -42 8 -86h-239q-17 68 -17 144q0 176 103 272.5t300 96.5h444q192 0 343.5 -86.5t236.5 -246t85 -362.5v-67q0 -203 -83.5 -361t-235.5 -245t-344 -88h-450zM736 1213v-972h144q177 0 270 115t95 329v77q0 222 -92 336.5t-269 114.5
h-148z" />
    <glyph glyph-name="uni018B" unicode="&#x18b;" horiz-adv-x="1283" 
d="M77 471q0 210 150 335t409 125h234v282h-653v243h953v-1456h-534q-257 0 -408 129t-151 342zM870 689h-240q-118 0 -185 -58t-67 -158q0 -105 68 -168.5t184 -63.5h240v448z" />
    <glyph glyph-name="uni018C" unicode="&#x18c;" horiz-adv-x="1154" 
d="M66 549q0 253 113.5 403t310.5 150q158 0 261 -118v369h-485v183h775v-1536h-261l-14 115q-108 -135 -278 -135q-191 0 -306.5 150.5t-115.5 418.5zM355 528q0 -152 53 -233t154 -81q134 0 189 113v427q-54 113 -187 113q-209 0 -209 -339z" />
    <glyph glyph-name="uni018D" unicode="&#x18d;" horiz-adv-x="1156" 
d="M174 -375v232h410l-164 127q-333 262 -352 529l-1 57q0 239 137.5 385t371.5 146q223 0 361 -126.5t149 -342.5l1 -54q0 -197 -112 -333.5t-290 -165.5l-34 -1q184 -163 310 -298v-155h-787zM798 570q0 147 -58 222.5t-164 75.5q-103 0 -160.5 -73.5t-59.5 -216.5v-29
q0 -99 42 -183t115 -129q33 -7 60 -7q109 0 167 82.5t58 257.5z" />
    <glyph glyph-name="uni018E" unicode="&#x18e;" horiz-adv-x="1152" 
d="M45 1456h977v-1456h-975v242h674v347h-575v235h575v390h-676v242z" />
    <glyph glyph-name="uni018F" unicode="&#x18f;" horiz-adv-x="1423" 
d="M1025 826q-7 188 -110 287.5t-295 99.5q-204 0 -387 -63l-49 247q64 30 199 54.5t252 24.5q322 0 506.5 -182t184.5 -505v-138q0 -191 -81 -344.5t-225 -240t-319 -86.5q-297 0 -461.5 179t-164.5 512v155h950zM375 582v-31q0 -152 84 -231t242 -79q133 0 218 90t103 251
h-647z" />
    <glyph glyph-name="uni0190" unicode="&#x190;" horiz-adv-x="1263" 
d="M91 408q0 125 64 210.5t183 127.5q-103 45 -164 125t-61 190q0 195 143.5 305t398.5 110q145 0 265.5 -53t187 -146.5t66.5 -212.5h-300q0 79 -59.5 124t-159.5 45q-116 0 -178.5 -46.5t-62.5 -130.5q0 -190 209 -196h193v-235h-177q-124 0 -185.5 -49t-61.5 -164
q0 -94 67.5 -142.5t195.5 -48.5q109 0 174 51t65 132h301q0 -124 -65 -219t-191 -150t-284 -55q-270 0 -417 110t-147 318z" />
    <glyph glyph-name="uni0191" unicode="&#x191;" horiz-adv-x="1222" 
d="M1106 595h-576v-628q0 -193 -103.5 -298.5t-283.5 -105.5q-78 0 -143 17l14 245q50 -13 92 -13q63 0 93 35.5t30 118.5v1490h949v-243h-648v-376h576v-242z" />
    <glyph glyph-name="florin" unicode="&#x192;" horiz-adv-x="739" 
d="M681 870h-207l-1 -917q0 -188 -96.5 -289t-268.5 -101q-78 0 -143 17l15 229q28 -12 91 -12t88 39.5t25 114.5v919h-161v212h161v100q2 179 106.5 277t292.5 98q63 0 159 -21l-24 -224q-42 10 -99 10q-145 0 -145 -150v-90h207v-212z" />
    <glyph glyph-name="uni0193" unicode="&#x193;" horiz-adv-x="1484" 
d="M1282 184q-81 -97 -229 -150.5t-328 -53.5q-189 0 -331.5 82.5t-220 239.5t-79.5 369v99q0 218 73.5 377.5t212 244t324.5 84.5q230 0 374 -100q43 98 130 149t210 51q75 0 145 -17v-239q-52 9 -86 9q-190 0 -194 -147v-189h-293q-20 125 -88.5 183t-188.5 58
q-153 0 -233 -115t-81 -342v-93q0 -229 87 -346t255 -117q169 0 241 72v251h-273v221h573v-581z" />
    <glyph glyph-name="uni0194" unicode="&#x194;" horiz-adv-x="1366" 
d="M372 1456l310 -756l310 756h346l-511 -1104l140 -314q61 -143 61 -197q0 -132 -92 -205t-254 -73q-164 0 -258.5 73.5t-94.5 204.5q0 51 60 188l148 324l-510 1103h345zM737 -149q0 62 -55 187q-55 -125 -55 -187q0 -75 55 -75t55 75z" />
    <glyph glyph-name="uni0195" unicode="&#x195;" horiz-adv-x="1743" 
d="M1193 -20q-228 0 -333.5 104.5t-109.5 324.5v275q-2 103 -44 143t-129 40q-127 0 -184 -98v-769h-289v1536h289v-572q115 138 289 138q179 0 267.5 -104t89.5 -323v-245q0 -216 154 -216t154 216v652h289v-661q-1 -227 -107 -334t-336 -107z" />
    <glyph glyph-name="uni0196" unicode="&#x196;" horiz-adv-x="720" 
d="M417 360q0 -71 38 -109t110 -38q32 0 53.5 2.5t42.5 7.5l25 -222q-41 -9 -80 -15t-80 -6q-94 0 -168 25t-125 73t-78 119t-27 163v1176h289v-1176z" />
    <glyph glyph-name="uni0197" unicode="&#x197;" horiz-adv-x="740" 
d="M519 649v-649h-300v649h-198v183h198v624h300v-624h201v-183h-201z" />
    <glyph glyph-name="uni0198" unicode="&#x198;" horiz-adv-x="1300" 
d="M588 582l-158 -173v-409h-300v1456h300v-673l132 194l170 234q40 59 76 108t75.5 84t87 54t110.5 19q73 0 127.5 -18t105.5 -44l-107 -218q-23 12 -39.5 18t-43.5 6q-42 0 -73.5 -33.5t-73.5 -94.5l-195 -278l535 -814h-357z" />
    <glyph glyph-name="uni0199" unicode="&#x199;" horiz-adv-x="1094" 
d="M504 434l-104 -104v-330h-289v1226q7 331 378 331q90 0 150 -15v-194q-44 7 -73 7q-166 0 -166 -145v-525l56 72l277 325h347l-391 -451l425 -631h-332z" />
    <glyph glyph-name="uni019A" unicode="&#x19a;" horiz-adv-x="740" 
d="M514 726v-726h-290v726h-203v183h203v627h290v-627h206v-183h-206z" />
    <glyph glyph-name="uni019B" unicode="&#x19b;" horiz-adv-x="1123" 
d="M7 0l383 1057l-2 5l-196 -65v195l121 40q-36 80 -124 80l-58 -3l-6 215q70 22 161 22q195 0 265 -158l27 -68l177 59v-195l-109 -36l329 -824l16 -35q34 -72 86 -73h20l16 1l2 -228q-41 -7 -110 -7q-111 0 -181.5 49.5t-112.5 162.5l-171 469l-221 -663h-312z" />
    <glyph glyph-name="uni019C" unicode="&#x19c;" horiz-adv-x="1850" 
d="M1440 116q-109 -136 -301 -136q-228 0 -310 176q-109 -176 -335 -176q-188 0 -272.5 105.5t-87.5 324.5v1046h290v-1026q0 -216 153 -216q151 0 207 122l-4 67v1053h289v-1026q0 -216 154 -216q143 0 202 111v1131h290v-1456h-261z" />
    <glyph glyph-name="uni019D" unicode="&#x19d;" horiz-adv-x="1547" 
d="M1414 0h-300l-584 958v-991q0 -193 -103.5 -298.5t-283.5 -105.5q-78 0 -143 17l14 245q50 -13 92 -13q63 0 93 35.5t30 118.5v1490h301l584 -960v960h300v-1456z" />
    <glyph glyph-name="uni019E" unicode="&#x19e;" horiz-adv-x="1156" 
d="M108 1082h269l11 -133q119 153 311 153q340 0 348 -389v-1128h-290v1115q-3 168 -164 168q-127 0 -196 -93v-775h-289v1082z" />
    <glyph glyph-name="uni019F" unicode="&#x19f;" horiz-adv-x="1409" 
d="M168 1138q77 163 218.5 250.5t323.5 87.5t323.5 -87.5t219 -251t77.5 -377.5v-65q0 -215 -76 -377t-217.5 -250t-324.5 -88q-181 0 -323 87t-220 248.5t-79 371.5v72q0 215 78 379zM488 332q81 -106 224 -106q142 0 222.5 106t90.5 308h-630q11 -202 93 -308zM1025 822
q-11 199 -92.5 302.5t-222.5 103.5q-142 0 -222.5 -103.5t-91.5 -302.5h629z" />
    <glyph glyph-name="Ohorn" unicode="&#x1a0;" horiz-adv-x="1436" 
d="M158 1138q77 163 218.5 250.5t323.5 87.5q137 0 249.5 -48.5t194.5 -139.5q73 18 100 90t27 188h196q0 -344 -228 -421q79 -165 81 -376v-74q0 -215 -76 -377t-217.5 -250t-324.5 -88q-181 0 -323 87t-220 248.5t-79 371.5v72q0 215 78 379zM466 349q82 -123 236 -123
q151 0 232 118.5t82 345.5v71q0 229 -82 348t-234 119q-151 0 -233 -117.5t-83 -344.5v-71q0 -223 82 -346z" />
    <glyph glyph-name="ohorn" unicode="&#x1a1;" horiz-adv-x="1190" 
d="M64 551q0 162 62.5 288t179.5 194.5t270 68.5q237 0 377 -155q46 29 62 89.5t16 146.5h176q0 -272 -177 -352q59 -123 59 -280v-21q0 -162 -62.5 -288t-178 -194t-270.5 -68q-224 0 -363 139t-150 375zM354 530q0 -154 58 -235.5t166 -81.5q106 0 164 81t58 257
q0 150 -58 233.5t-166 83.5q-106 0 -164 -82.5t-58 -255.5z" />
    <glyph glyph-name="uni01A2" unicode="&#x1a2;" horiz-adv-x="1836" 
d="M1704 -416h-289v1530l-148 -66v-863q-88 -102 -231 -153.5t-322 -51.5q-188 0 -331 83.5t-219.5 241t-77.5 370.5v98q0 215 76.5 374.5t219.5 244t332 84.5q313 0 493 -147l279 127h218v-1872zM731 221q171 0 247 76v862q-80 75 -249 75q-321 0 -339 -411l-1 -140
q0 -226 87 -344t255 -118z" />
    <glyph glyph-name="uni01A3" unicode="&#x1a3;" horiz-adv-x="1486" 
d="M1373 -416h-289v1165l-103 -45v-510q-136 -214 -415 -214q-232 0 -366 147.5t-134 407.5v19q0 250 133 399t365 149q197 0 343 -141l268 121h198v-1498zM561 213q83 0 131 46v554q-49 55 -133 55q-101 0 -152.5 -73.5t-51.5 -238.5v-30q0 -165 52 -239t154 -74z" />
    <glyph glyph-name="uni01A4" unicode="&#x1a4;" horiz-adv-x="1625" 
d="M735 513v-513h-301v1213q-73 -2 -111 -49t-38 -135q0 -42 8 -86h-239q-17 68 -17 144q0 178 105 273.5t299 95.5h562q164 0 288.5 -60t191.5 -170.5t67 -251.5q0 -214 -146.5 -337.5t-405.5 -123.5h-263zM735 756h268q119 0 181 56t62 160q0 105 -60.5 171t-169.5 70
h-281v-457z" />
    <glyph glyph-name="uni01A5" unicode="&#x1a5;" horiz-adv-x="1153" 
d="M1085 531q0 -250 -113.5 -400.5t-306.5 -150.5q-164 0 -265 114v-510h-289v1498q10 327 377 327q91 0 151 -15v-193q-44 7 -74 7q-165 0 -165 -146v-74q101 114 263 114q200 0 311 -148t111 -408v-15zM796 552q0 151 -53.5 233t-155.5 82q-136 0 -187 -104v-443
q53 -107 189 -107q207 0 207 339z" />
    <glyph glyph-name="uni01A6" unicode="&#x1a6;" horiz-adv-x="1415" 
d="M430 1560v-104h252q253 -3 390 -117.5t137 -322.5q0 -290 -260 -407l496 -946v-14h-322l-453 884h-240v-533h-300v1560h300zM430 776h242q113 0 175 57.5t62 158.5q0 103 -58.5 162t-179.5 59h-241v-437z" />
    <glyph glyph-name="uni01A7" unicode="&#x1a7;" horiz-adv-x="1259" 
d="M373 382q0 -78 60 -121.5t167 -43.5q288 0 288 241h301q0 -141 -72.5 -248t-210.5 -168.5t-306 -61.5q-242 0 -385 107.5t-143 296.5q0 173 118 285.5t375 190.5q139 42 209 90t70 118q0 76 -61 122.5t-171 46.5q-114 0 -177 -55.5t-63 -155.5h-300q0 130 67 233t189 160
t279 57q155 0 279 -51.5t191.5 -144.5t67.5 -211q0 -237 -268 -371q-89 -45 -237 -92.5t-207.5 -93.5t-59.5 -130z" />
    <glyph glyph-name="uni01A8" unicode="&#x1a8;" horiz-adv-x="1053" 
d="M356 299q0 -51 42.5 -82.5t125.5 -31.5q89 0 142 41t57 118h274q0 -98 -60 -182.5t-165.5 -133t-241.5 -48.5q-203 0 -329 92t-126 239q0 132 93 214t314 125q110 21 156.5 51t46.5 78q0 51 -40.5 84t-112.5 33q-85 0 -125 -40.5t-40 -102.5h-289q0 155 123.5 252
t329.5 97q192 0 311.5 -96.5t119.5 -240.5q0 -248 -389 -329q-114 -24 -165.5 -54t-51.5 -83z" />
    <glyph glyph-name="uni01A9" unicode="&#x1a9;" horiz-adv-x="1162" 
d="M72 151l439 584l-439 570v151h1009v-243h-597l345 -471v-15l-350 -486h626v-241h-1033v151z" />
    <glyph glyph-name="uni01AA" unicode="&#x1aa;" horiz-adv-x="1073" 
d="M34 1173q0 108 54.5 202t146.5 147t199 53q164 0 281.5 -116t120.5 -279v-1215q3 -157 137 -157q34 0 86 9v-228q-63 -17 -145 -17q-174 0 -270 101.5t-98 293.5v821q-54 -15 -112 -15q-107 0 -200 53.5t-146.5 146.5t-53.5 200zM436 1022q66 0 105 42.5t39 110.5
q0 69 -39 111.5t-105 42.5q-68 0 -108 -41.5t-40 -112.5q0 -70 40 -111.5t108 -41.5z" />
    <glyph glyph-name="uni01AB" unicode="&#x1ab;" horiz-adv-x="692" 
d="M642 870h-185v-540q0 -60 23 -86t88 -26q48 0 85 7v-287q-1 -165 -83 -251.5t-231 -86.5q-71 0 -123 15v193q44 -7 73 -7q165 0 165 147v33q-282 13 -286 308v581h-158v212h158v266h289v-266h185v-212z" />
    <glyph glyph-name="uni01AC" unicode="&#x1ac;" horiz-adv-x="1437" 
d="M1396 1213h-446v-1213h-300v1213h-218q-155 0 -155 -184q0 -36 9 -86h-239q-17 61 -17 144q0 175 103 272t299 97h964v-243z" />
    <glyph glyph-name="uni01AD" unicode="&#x1ad;" horiz-adv-x="746" 
d="M173 1232q0 169 94.5 256t281.5 87q89 0 151 -15v-194q-44 7 -73 7q-165 0 -165 -146v-145h184v-212h-184v-532q0 -64 24 -92t87 -28q49 0 84 7v-219q-85 -26 -175 -26q-309 0 -309 332v558h-159v212h159v150z" />
    <glyph glyph-name="uni01AE" unicode="&#x1ae;" horiz-adv-x="1267" 
d="M1004 -420q-65 -17 -143 -17q-178 0 -279 103.5t-102 296.5v1250h-440v243h1186v-243h-446v-1247q0 -156 111 -156q44 0 99 12z" />
    <glyph glyph-name="Uhorn" unicode="&#x1af;" horiz-adv-x="1459" 
d="M416 1456v-961q0 -143 68.5 -208.5t189.5 -65.5q253 0 257 266v969h301v-228q75 6 116.5 36.5t60 86t18.5 186.5h193q0 -240 -93.5 -349t-294.5 -118v-573q0 -239 -149.5 -378t-408.5 -139q-255 0 -405 135t-153 371v970h300z" />
    <glyph glyph-name="uhorn" unicode="&#x1b0;" horiz-adv-x="1249" 
d="M393 1082v-699q0 -169 154 -169q147 0 202 102v766h290v-139q68 15 95.5 62t27.5 172h173q0 -182 -71.5 -269.5t-224.5 -103.5v-804h-272l-8 110q-107 -130 -296 -130q-174 0 -265.5 100t-93.5 293v709h289z" />
    <glyph glyph-name="uni01B1" unicode="&#x1b1;" horiz-adv-x="1364" 
d="M627 1206q-175 -75 -187 -470l-1 -144q0 -183 64.5 -275.5t179.5 -92.5q113 0 177.5 92.5t64.5 275.5v87q0 223 -48.5 356t-145.5 171v250h512v-243h-222q111 -98 174.5 -240t63.5 -295v-84q0 -177 -73 -318t-204.5 -218.5t-298.5 -77.5t-298 76.5t-204 213.5t-76 309
v100q0 154 62.5 294t173.5 240h-218v243h504v-250z" />
    <glyph glyph-name="uni01B2" unicode="&#x1b2;" horiz-adv-x="1349" 
d="M675 -20q-259 0 -409 137.5t-150 381.5v957h301v-961q0 -143 68.5 -208.5t189.5 -65.5q249 0 257 257v595q0 85 -30 119.5t-107 34.5q-34 0 -86 -9v240q70 17 145 17q178 0 278.5 -106t100.5 -298v-576q0 -238 -150 -376.5t-408 -138.5z" />
    <glyph glyph-name="uni01B3" unicode="&#x1b3;" horiz-adv-x="1401" 
d="M634 798l160 348q91 191 172.5 260.5t191.5 69.5q129 0 251 -62l-108 -218q-46 24 -82 24q-40 0 -72.5 -30.5t-75.5 -111.5l-285 -550v-528h-304v528l-480 928h330z" />
    <glyph glyph-name="uni01B4" unicode="&#x1b4;" horiz-adv-x="1224" 
d="M503 450l10 -54l186 618l35 102q83 227 275 227q125 0 234 -87l-65 -179q-57 26 -92 26q-39 0 -68.5 -37t-63.5 -137l-361 -1088q-48 -145 -135.5 -211.5t-211.5 -66.5q-63 0 -128 19v219l44 -1q83 0 123.5 26t65.5 91l31 80l-379 1085h311z" />
    <glyph glyph-name="uni01B5" unicode="&#x1b5;" horiz-adv-x="1241" 
d="M403 652h-263v182h390l263 379h-719v243h1092v-172l-310 -450h260v-182h-385l-283 -411h734v-241h-1109v176z" />
    <glyph glyph-name="uni01B6" unicode="&#x1b6;" horiz-adv-x="1048" 
d="M294 462h-160v182h298l154 204h-494v234h867v-171l-202 -267h152v-182h-290l-173 -229h529v-233h-898v176z" />
    <glyph glyph-name="uni01B7" unicode="&#x1b7;" horiz-adv-x="1338" 
d="M753 816q240 -31 371.5 -194t131.5 -426q0 -297 -159 -461.5t-444 -164.5q-254 0 -411.5 135.5t-174.5 366.5h301q12 -137 80 -198.5t205 -61.5q161 0 232 94.5t71 289.5q0 205 -71 299t-232 95h-269v174l392 449h-701v243h1084v-168z" />
    <glyph glyph-name="uni01B8" unicode="&#x1b8;" horiz-adv-x="1338" 
d="M1271 72q-17 -231 -174.5 -366.5t-411.5 -135.5q-286 0 -445 165.5t-159 460.5q0 267 133 429.5t374 191.5l-405 471v168h1080v-243h-698l393 -449v-174h-267q-111 0 -178 -40.5t-99.5 -127t-32.5 -226.5q0 -195 71.5 -289.5t232.5 -94.5q137 0 205 61.5t80 198.5h301z
" />
    <glyph glyph-name="uni01B9" unicode="&#x1b9;" horiz-adv-x="1175" 
d="M1043 1082v-234h-613l337 -355v-184h-137q-146 0 -213.5 -67.5t-67.5 -204.5q0 -88 67 -143t175 -55q94 0 155.5 53t61.5 137h290q0 -130 -64 -225t-181.5 -147t-261.5 -52q-241 0 -386 116t-145 312q0 194 101 311t288 149l-358 398l1 191h951z" />
    <glyph glyph-name="uni01BA" unicode="&#x1ba;" horiz-adv-x="1069" 
d="M343 -116q0 -55 45.5 -84.5t122.5 -29.5q90 0 143 42.5t56 116.5h274q0 -97 -59 -181.5t-165.5 -134t-242.5 -49.5q-200 0 -327.5 91.5t-127.5 240.5q0 132 92 212t298 121q132 26 176 54.5t44 79.5q0 50 -40 79.5t-113 29.5h-231v171l247 205h-422v234h878v-166
l-297 -264q118 -35 187 -116t69 -187q0 -250 -387 -330q-120 -25 -170 -54.5t-50 -80.5z" />
    <glyph glyph-name="uni01BB" unicode="&#x1bb;" horiz-adv-x="1225" 
d="M1097 0h-998v198l423 451h-256v183h412q82 115 82 203q0 97 -49 152.5t-140 55.5q-98 0 -154.5 -67.5t-56.5 -177.5h-290q0 133 63.5 243t179.5 172.5t263 62.5q225 0 349.5 -108t124.5 -305q0 -113 -62 -231h157v-183h-285l-81 -91l-308 -325h626v-233z" />
    <glyph glyph-name="uni01BC" unicode="&#x1bc;" horiz-adv-x="1248" 
d="M220 716l56 499h-215v241h1059v-241h-579l-36 -313q103 55 219 55q208 0 326 -129t118 -361q0 -141 -59.5 -252.5t-170.5 -173t-262 -61.5q-132 0 -245 53.5t-178.5 150.5t-69.5 221h286q9 -91 63.5 -141.5t142.5 -50.5q98 0 151 70.5t53 199.5q0 124 -61 190t-173 66
q-103 0 -167 -54l-28 -26z" />
    <glyph glyph-name="uni01BD" unicode="&#x1bd;" horiz-adv-x="1122" 
d="M990 851h-506l-27 -187q91 48 216 50q186 0 287.5 -96t101.5 -267q0 -178 -121 -272.5t-345 -94.5q-209 0 -340.5 90.5t-131.5 244.5l287 16q4 -60 53.5 -89.5t131.5 -29.5q93 0 135 41.5t42 109.5q0 69 -46 110.5t-132 41.5q-116 0 -166 -58l-260 13l49 377h-165v231
h937v-231z" />
    <glyph glyph-name="uni01BE" unicode="&#x1be;" horiz-adv-x="1053" 
d="M805 870h-185v-56q0 -123 104 -191l136 -81q118 -78 118 -231q0 -148 -127 -239.5t-328 -91.5q-136 0 -241.5 48.5t-165.5 133t-60 182.5h274q3 -74 56 -116.5t143 -42.5q78 0 123 30.5t45 83.5q0 38 -26 69t-99 73.5t-118 81.5q-120 102 -123 281v66h-158v212h158v266
h289v-266h185v-212z" />
    <glyph glyph-name="uni01BF" unicode="&#x1bf;" horiz-adv-x="1153" 
d="M379 1082l10 -106q105 126 274 126q200 0 311 -148t111 -408v-15q0 -183 -71.5 -314t-215.5 -223.5t-398 -163.5v-246h-289v1498h268zM587 867q-136 0 -187 -104v-708q190 52 292 171.5t104 297.5v28q0 151 -53.5 233t-155.5 82z" />
    <glyph glyph-name="uni01C0" unicode="&#x1c0;" horiz-adv-x="481" 
d="M328 0h-176v1456h176v-1456z" />
    <glyph glyph-name="uni01C1" unicode="&#x1c1;" horiz-adv-x="751" 
d="M328 0h-176v1456h176v-1456zM598 0h-176v1456h176v-1456z" />
    <glyph glyph-name="uni01C2" unicode="&#x1c2;" horiz-adv-x="740" 
d="M459 0h-176v1456h176v-1456zM720 899h-699v183h699v-183zM720 441h-699v183h699v-183z" />
    <glyph glyph-name="uni01C3" unicode="&#x1c3;" horiz-adv-x="557" 
d="M405 447h-240l-34 1009h308zM285 289q73 0 117.5 -43t44.5 -110q0 -66 -44.5 -109t-117.5 -43q-72 0 -116.5 43t-44.5 109t44.5 109.5t116.5 43.5z" />
    <glyph glyph-name="uni01C4" unicode="&#x1c4;" horiz-adv-x="2426" 
d="M130 0v1456h448q192 0 343.5 -86.5t236.5 -246t85 -362.5v-67q0 -203 -83.5 -361t-235.5 -245t-343 -88h-451zM430 1213v-972h145q176 0 269 115t95 329v77q0 222 -92 336.5t-269 114.5h-148zM1633 241h734v-241h-1109v176l720 1037h-719v243h1092v-172zM1812 1722
l146 143h247v-11l-302 -281h-183l-302 283v9h247z" />
    <glyph glyph-name="uni01C5" unicode="&#x1c5;" horiz-adv-x="2286" 
d="M578 1456q192 0 343.5 -86.5t236.5 -246t85 -362.5v-67q0 -203 -83.5 -361t-235.5 -245t-343 -88h-451v1456h448zM1687 233h529v-233h-898v176l509 672h-494v234h867v-171zM430 1213v-972h145q176 0 269 115t95 329v77q0 222 -92 336.5t-269 114.5h-148zM1772 1386
l132 139h247v-17l-280 -256h-197l-281 257v16h247z" />
    <glyph glyph-name="uni01C6" unicode="&#x1c6;" horiz-adv-x="2096" 
d="M66 549q0 253 113.5 403t310.5 150q158 0 261 -118v576h290v-1560h-251l-20 120q-108 -140 -282 -140q-191 0 -306.5 150.5t-115.5 418.5zM1497 233h529v-233h-898v176l509 672h-494v234h867v-171zM355 528q0 -152 53 -233t154 -81q134 0 189 113v427q-54 113 -187 113
q-209 0 -209 -339zM1582 1386l132 139h247v-17l-280 -256h-197l-281 257v16h247z" />
    <glyph glyph-name="uni01C7" unicode="&#x1c7;" horiz-adv-x="2253" 
d="M430 241h637v-241h-937v1456h300v-1215zM1826 1456h300v-1008q0 -139 -61.5 -245.5t-173.5 -164.5t-253 -58q-231 0 -360 117.5t-129 332.5h302q0 -107 45 -158t142 -51q86 0 137 59t51 168v1008z" />
    <glyph glyph-name="uni01C8" unicode="&#x1c8;" horiz-adv-x="1641" 
d="M430 241h637v-241h-937v1456h300v-1215zM1526 1082v-1141q0 -179 -95 -278.5t-274 -99.5q-75 0 -143 17v229q52 -9 91 -9q131 0 131 139v1143h290zM1213 1362q0 65 43.5 107t118.5 42t118.5 -42t43.5 -107q0 -66 -44.5 -108t-117.5 -42t-117.5 42t-44.5 108z" />
    <glyph glyph-name="uni01C9" unicode="&#x1c9;" horiz-adv-x="1075" 
d="M416 0h-290v1536h290v-1536zM960 1082v-1141q0 -179 -95 -278.5t-274 -99.5q-75 0 -143 17v229q52 -9 91 -9q131 0 131 139v1143h290zM647 1362q0 65 43.5 107t118.5 42t118.5 -42t43.5 -107q0 -66 -44.5 -108t-117.5 -42t-117.5 42t-44.5 108z" />
    <glyph glyph-name="uni01CA" unicode="&#x1ca;" horiz-adv-x="2590" 
d="M1314 0h-300l-584 958v-958h-300v1456h300l585 -960v960h299v-1456zM2163 1456h300v-1008q0 -139 -61.5 -245.5t-173.5 -164.5t-253 -58q-231 0 -360 117.5t-129 332.5h302q0 -107 45 -158t142 -51q86 0 137 59t51 168v1008z" />
    <glyph glyph-name="uni01CB" unicode="&#x1cb;" horiz-adv-x="1978" 
d="M1314 0h-300l-584 958v-958h-300v1456h300l585 -960v960h299v-1456zM1863 1082v-1141q0 -179 -95 -278.5t-274 -99.5q-75 0 -143 17v229q52 -9 91 -9q131 0 131 139v1143h290zM1550 1362q0 65 43.5 107t118.5 42t118.5 -42t43.5 -107q0 -66 -44.5 -108t-117.5 -42
t-117.5 42t-44.5 108z" />
    <glyph glyph-name="uni01CC" unicode="&#x1cc;" horiz-adv-x="1679" 
d="M377 1082l9 -125q116 145 311 145q172 0 256 -101t86 -302v-699h-289v692q0 92 -40 133.5t-133 41.5q-122 0 -183 -104v-763h-289v1082h272zM1564 1082v-1141q0 -179 -95 -278.5t-274 -99.5q-75 0 -143 17v229q52 -9 91 -9q131 0 131 139v1143h290zM1251 1362
q0 65 43.5 107t118.5 42t118.5 -42t43.5 -107q0 -66 -44.5 -108t-117.5 -42t-117.5 42t-44.5 108z" />
    <glyph glyph-name="uni01CD" unicode="&#x1cd;" horiz-adv-x="1378" 
d="M7 0l542 1456h278l545 -1456h-319l-101 300h-526l-100 -300h-319zM545 1847l147 -143l146 143h247v-11l-302 -281h-183l-302 283v9h247zM871 543l-183 545l-181 -545h364z" />
    <glyph glyph-name="uni01CE" unicode="&#x1ce;" horiz-adv-x="1098" 
d="M196 568q127 92 368 93h133v62q0 75 -38.5 120t-121.5 45q-73 0 -114.5 -35t-41.5 -96h-289q0 94 58 174t164 125.5t238 45.5q200 0 317.5 -100.5t117.5 -282.5v-469q1 -154 43 -233v-17h-292q-20 39 -29 97q-105 -117 -273 -117q-159 0 -263.5 92t-104.5 232
q0 172 128 264zM157 1528v9h247l147 -143l146 143h247v-11l-302 -281h-183zM357 325q0 -54 38 -89t104 -35q64 0 118 28.5t80 76.5v186h-108q-217 0 -231 -150z" />
    <glyph glyph-name="uni01CF" unicode="&#x1cf;" horiz-adv-x="597" 
d="M149 1456h300v-1456h-300v1456zM-95 1841v9h247l147 -143l146 143h247v-11l-302 -281h-183z" />
    <glyph glyph-name="uni01D0" unicode="&#x1d0;" horiz-adv-x="561" 
d="M134 0v1082h289v-1082h-289zM-113 1522h247l147 -143l146 143h247v-11l-302 -281h-183l-302 283v9z" />
    <glyph glyph-name="uni01D1" unicode="&#x1d1;" horiz-adv-x="1414" 
d="M164 1138q77 163 218.5 250.5t323.5 87.5t323.5 -87.5t219 -251t77.5 -377.5v-65q0 -215 -76 -377t-217.5 -250t-324.5 -88q-181 0 -323 87t-220 248.5t-79 371.5v72q0 215 78 379zM390 766v-71q0 -223 82 -346t236 -123q151 0 232 118.5t82 345.5v71q0 229 -82 348
t-234 119q-151 0 -233 -117.5t-83 -344.5zM559 1847l147 -143l146 143h247v-11l-302 -281h-183l-302 283v9h247z" />
    <glyph glyph-name="uni01D2" unicode="&#x1d2;" horiz-adv-x="1158" 
d="M66 538v13q0 161 62 287t178.5 195t270.5 69q219 0 357.5 -134t154.5 -364l2 -74q0 -249 -139 -399.5t-373 -150.5t-373.5 150t-139.5 408zM413 295q58 -82 166 -82q105 0 164 80.5t59 257.5q0 151 -59 234t-166 83q-106 0 -164 -82.5t-58 -255.5q0 -154 58 -235z
M182 1528v9h247l147 -143l146 143h247v-11l-302 -281h-183z" />
    <glyph glyph-name="uni01D3" unicode="&#x1d3;" horiz-adv-x="1348" 
d="M116 1456h300v-961q0 -143 68.5 -208.5t189.5 -65.5q253 0 257 266v969h301v-959q0 -239 -149.5 -378t-408.5 -139q-255 0 -405 135t-153 371v970zM276 1847h247l147 -143l146 143h247v-11l-302 -281h-183l-302 283v9z" />
    <glyph glyph-name="uni01D4" unicode="&#x1d4;" horiz-adv-x="1146" 
d="M393 1082v-699q0 -169 154 -169q147 0 202 102v766h290v-1082h-272l-8 110q-107 -130 -296 -130q-174 0 -265.5 100t-93.5 293v709h289zM178 1528v9h247l147 -143l146 143h247v-11l-302 -281h-183z" />
    <glyph glyph-name="uni01D5" unicode="&#x1d5;" horiz-adv-x="1348" 
d="M116 486v970h300v-961q0 -143 68.5 -208.5t189.5 -65.5q253 0 257 266v969h301v-959q0 -239 -149.5 -378t-408.5 -139q-255 0 -405 135t-153 371zM1015 2047v-166h-690v166h690zM354 1758q36 34 98 34q63 0 99 -34t36 -84t-36 -83.5t-99 -33.5q-62 0 -98 33.5t-36 83.5
t36 84zM753 1674q0 49 36 83t99 34q62 0 98 -34t36 -83q0 -50 -36 -83.5t-98 -33.5q-63 0 -99 33.5t-36 83.5z" />
    <glyph glyph-name="uni01D6" unicode="&#x1d6;" horiz-adv-x="1146" 
d="M104 1082h289v-699q0 -169 154 -169q147 0 202 102v766h290v-1082h-272l-8 110q-107 -130 -296 -130q-174 0 -265.5 100t-93.5 293v709zM229 1764h690v-167h-690v167zM677 1365q0 27 10.5 50t29 40t44 27t55.5 10t55.5 -10t43.5 -27t28.5 -40t10.5 -50t-10.5 -50
t-28.5 -40.5t-43.5 -27t-55.5 -9.5t-55.5 9.5t-44 27t-29 40.5t-10.5 50zM190 1365q0 27 10.5 50t28.5 40.5t43.5 27t55.5 9.5t55.5 -9.5t44 -27t29 -40.5t10.5 -50t-10.5 -50t-29 -40t-44 -26.5t-55.5 -9.5t-55.5 9.5t-43.5 26.5t-28.5 40t-10.5 50z" />
    <glyph glyph-name="uni01D7" unicode="&#x1d7;" horiz-adv-x="1348" 
d="M416 1456v-961q0 -143 68.5 -208.5t189.5 -65.5q253 0 257 266v969h301v-959q0 -239 -149.5 -378t-408.5 -139q-255 0 -405 135t-153 371v970h300zM354 1758q36 34 98 34q63 0 99 -34t36 -84t-36 -83.5t-99 -33.5q-62 0 -98 33.5t-36 83.5t36 84zM753 1674q0 49 36 83
t99 34q62 0 98 -34t36 -83q0 -50 -36 -83.5t-98 -33.5q-63 0 -99 33.5t-36 83.5zM583 1789l128 195h209l-180 -195h-157z" />
    <glyph glyph-name="uni01D8" unicode="&#x1d8;" horiz-adv-x="1146" 
d="M393 1082v-699q0 -169 154 -169q147 0 202 102v766h290v-1082h-272l-8 110q-107 -130 -296 -130q-174 0 -265.5 100t-93.5 293v709h289zM630 1847h316l-278 -309h-234zM677 1365q0 54 40.5 90.5t98.5 36.5q59 0 98.5 -37t39.5 -90q0 -52 -38 -89.5t-100 -37.5
t-100.5 37.5t-38.5 89.5zM228 1455q38 37 100 37t100.5 -37.5t38.5 -89.5q0 -53 -39 -89.5t-100 -36.5q-62 0 -100 37t-38 89t38 90z" />
    <glyph glyph-name="uni01D9" unicode="&#x1d9;" horiz-adv-x="1348" 
d="M116 1456h300v-961q0 -143 68.5 -208.5t189.5 -65.5q253 0 257 266v969h301v-959q0 -239 -149.5 -378t-408.5 -139q-255 0 -405 135t-153 371v970zM538 2053l132 -113l133 113h246v-16l-280 -229h-197l-281 229v16h247zM354 1758q36 34 98 34q63 0 99 -34t36 -84
t-36 -83.5t-99 -33.5q-62 0 -98 33.5t-36 83.5t36 84zM789 1757q36 34 99 34q62 0 98 -34t36 -83q0 -50 -36 -83.5t-98 -33.5q-63 0 -99 33.5t-36 83.5q0 49 36 83z" />
    <glyph glyph-name="uni01DA" unicode="&#x1da;" horiz-adv-x="1146" 
d="M393 1082v-699q0 -169 154 -169q147 0 202 102v766h290v-1082h-272l-8 110q-107 -130 -296 -130q-174 0 -265.5 100t-93.5 293v709h289zM178 1839v10h247l147 -143l147 143h246v-11l-302 -281h-182zM677 1365q0 54 40.5 90.5t98.5 36.5q59 0 98.5 -37t39.5 -90
q0 -52 -38 -89.5t-100 -37.5t-100.5 37.5t-38.5 89.5zM190 1365q0 52 38 89.5t100 37.5t100.5 -37.5t38.5 -89.5q0 -53 -39 -89.5t-100 -36.5q-62 0 -100 37t-38 89z" />
    </font>
</defs>
</svg>
